<svg width="18" height="21" viewBox="0 0 18 21" fill="none" xmlns="http://www.w3.org/2000/svg">
<path d="M17.8011 15.0138L16.2732 12.2924V7.55532C16.2929 5.67844 15.5584 3.86805 14.2256 2.50885C12.8929 1.14964 11.067 0.34876 9.13593 0.276377C8.16946 0.258852 7.20909 0.428625 6.31096 0.775774C5.41283 1.12292 4.59495 1.64048 3.90515 2.29819C3.21534 2.95591 2.66744 3.74058 2.29348 4.60634C1.91952 5.4721 1.72699 6.40159 1.72716 7.34046V12.2924L0.199221 15.0132C0.0638642 15.2536 -0.00470954 15.5241 0.000251259 15.798C0.00521206 16.0719 0.0835362 16.3399 0.227513 16.5755C0.37149 16.8111 0.576156 17.0062 0.821362 17.1417C1.06657 17.2771 1.34386 17.3482 1.62594 17.3479H16.3744C16.6564 17.3481 16.9336 17.277 17.1787 17.1416C17.4238 17.0062 17.6284 16.8112 17.7724 16.5756C17.9164 16.3401 17.9947 16.0723 17.9997 15.7984C18.0048 15.5246 17.9363 15.2542 17.8011 15.0138Z" fill="#212121"/>
<path d="M9.00079 20.2927C9.63829 20.2919 10.2644 20.1283 10.8162 19.8183C11.3681 19.5083 11.8264 19.0629 12.1451 18.5266H5.85645C6.17519 19.0629 6.63348 19.5083 7.18535 19.8183C7.73723 20.1283 8.36329 20.2919 9.00079 20.2927Z" fill="#212121"/>
</svg>
