<svg width="97" height="93" viewBox="0 0 97 93" fill="none" xmlns="http://www.w3.org/2000/svg">
<rect width="2.92287" height="2.92287" rx="0.5" transform="matrix(0.135506 -0.990776 0.990579 0.13694 32.4275 90.561)" fill="url(#paint0_radial_1011_7583)"/>
<rect width="2.92287" height="2.92287" rx="0.5" transform="matrix(0.135506 -0.990776 0.990579 0.13694 37.8047 86.6577)" fill="url(#paint1_radial_1011_7583)"/>
<rect width="2.92287" height="2.92287" rx="0.5" transform="matrix(0.135506 -0.990776 0.990579 0.13694 51.0908 71.3281)" fill="url(#paint2_radial_1011_7583)"/>
<rect width="2.92287" height="2.92287" rx="0.5" transform="matrix(0.135506 -0.990776 0.990579 0.13694 45 76.896)" fill="url(#paint3_radial_1011_7583)"/>
<rect width="2.92287" height="2.92287" rx="0.5" transform="matrix(0.135506 -0.990776 0.990579 0.13694 53.2385 64.9277)" fill="url(#paint4_radial_1011_7583)"/>
<rect width="2.92287" height="2.92287" rx="0.5" transform="matrix(0.135506 -0.990776 0.990579 0.13694 55.0623 58.3577)" fill="url(#paint5_radial_1011_7583)"/>
<rect width="2.92287" height="2.92287" rx="0.5" transform="matrix(0.135506 -0.990776 0.990579 0.13694 56.2559 51.6445)" fill="url(#paint6_radial_1011_7583)"/>
<rect width="2.92287" height="2.92287" rx="0.5" transform="matrix(0.135506 -0.990776 0.990579 0.13694 56.4302 44.8274)" fill="url(#paint7_radial_1011_7583)"/>
<rect width="2.92287" height="2.92287" rx="0.5" transform="matrix(0.135506 -0.990776 0.990579 0.13694 55.1636 38.1279)" fill="url(#paint8_radial_1011_7583)"/>
<rect width="2.92287" height="2.92287" rx="0.5" transform="matrix(0.135506 -0.990776 0.990579 0.13694 52.2351 31.9697)" fill="url(#paint9_radial_1011_7583)"/>
<rect width="2.92287" height="2.92287" rx="0.5" transform="matrix(0.135506 -0.990776 0.990579 0.13694 47.8723 26.7295)" fill="url(#paint10_radial_1011_7583)"/>
<rect width="2.92287" height="2.92287" rx="0.5" transform="matrix(0.135506 -0.990776 0.990579 0.13694 42.6277 23.2214)" fill="url(#paint11_radial_1011_7583)"/>
<rect width="2.92287" height="2.92287" rx="0.5" transform="matrix(0.135506 -0.990776 0.990579 0.13694 35.8088 23.238)" fill="url(#paint12_radial_1011_7583)"/>
<rect width="2.92287" height="2.92287" rx="0.5" transform="matrix(0.135506 -0.990776 0.990579 0.13694 30.4138 27.408)" fill="url(#paint13_radial_1011_7583)"/>
<rect width="2.92287" height="2.92287" rx="0.5" transform="matrix(0.135506 -0.990776 0.990579 0.13694 27.499 33.5723)" fill="url(#paint14_radial_1011_7583)"/>
<rect width="2.92287" height="2.92287" rx="0.5" transform="matrix(0.135506 -0.990776 0.990579 0.13694 27.4902 40.3906)" fill="url(#paint15_radial_1011_7583)"/>
<rect width="2.92287" height="2.92287" rx="0.5" transform="matrix(0.135506 -0.990776 0.990579 0.13694 30.9446 46.2698)" fill="url(#paint16_radial_1011_7583)"/>
<rect width="2.92287" height="2.92287" rx="0.5" transform="matrix(0.135506 -0.990776 0.990579 0.13694 38.4382 49.6223)" fill="url(#paint17_radial_1011_7583)"/>
<rect width="2.92287" height="2.92287" rx="0.5" transform="matrix(0.135506 -0.990776 0.990579 0.13694 44.9541 47.6135)" fill="url(#paint18_radial_1011_7583)"/>
<rect width="2.92287" height="2.92287" rx="0.5" transform="matrix(0.135506 -0.990776 0.990579 0.13694 50.3491 43.4436)" fill="url(#paint19_radial_1011_7583)"/>
<rect width="2.92287" height="2.92287" rx="0.5" transform="matrix(0.135506 -0.990776 0.990579 0.13694 54.9717 38.4314)" fill="url(#paint20_radial_1011_7583)"/>
<rect width="2.92287" height="2.92287" rx="0.5" transform="matrix(0.135506 -0.990776 0.990579 0.13694 59.0908 32.9971)" fill="url(#paint21_radial_1011_7583)"/>
<rect width="2.92287" height="2.92287" rx="0.5" transform="matrix(0.135506 -0.990776 0.990579 0.13694 62.8499 27.3079)" fill="url(#paint22_radial_1011_7583)"/>
<rect width="2.92287" height="2.92287" rx="0.5" transform="matrix(0.135506 -0.990776 0.990579 0.13694 66.3276 21.4441)" fill="url(#paint23_radial_1011_7583)"/>
<rect width="2.92287" height="2.92287" rx="0.5" transform="matrix(0.135506 -0.990776 0.990579 0.13694 70.3872 16.5352)" fill="url(#paint24_radial_1011_7583)"/>
<defs>
<radialGradient id="paint0_radial_1011_7583" cx="0" cy="0" r="1" gradientUnits="userSpaceOnUse" gradientTransform="translate(1.46144 1.46144) rotate(85.3036) scale(2.80114)">
<stop stop-color="#868686"/>
<stop offset="1" stop-color="#D1D1D1"/>
</radialGradient>
<radialGradient id="paint1_radial_1011_7583" cx="0" cy="0" r="1" gradientUnits="userSpaceOnUse" gradientTransform="translate(1.46144 1.46144) rotate(85.3036) scale(2.80114)">
<stop stop-color="#868686"/>
<stop offset="1" stop-color="#D1D1D1"/>
</radialGradient>
<radialGradient id="paint2_radial_1011_7583" cx="0" cy="0" r="1" gradientUnits="userSpaceOnUse" gradientTransform="translate(1.46144 1.46144) rotate(85.3036) scale(2.80114)">
<stop stop-color="#868686"/>
<stop offset="1" stop-color="#D1D1D1"/>
</radialGradient>
<radialGradient id="paint3_radial_1011_7583" cx="0" cy="0" r="1" gradientUnits="userSpaceOnUse" gradientTransform="translate(1.46144 1.46144) rotate(85.3036) scale(2.80114)">
<stop stop-color="#868686"/>
<stop offset="1" stop-color="#D1D1D1"/>
</radialGradient>
<radialGradient id="paint4_radial_1011_7583" cx="0" cy="0" r="1" gradientUnits="userSpaceOnUse" gradientTransform="translate(1.46144 1.46144) rotate(85.3036) scale(2.80114)">
<stop stop-color="#868686"/>
<stop offset="1" stop-color="#D1D1D1"/>
</radialGradient>
<radialGradient id="paint5_radial_1011_7583" cx="0" cy="0" r="1" gradientUnits="userSpaceOnUse" gradientTransform="translate(1.46144 1.46144) rotate(85.3036) scale(2.80114)">
<stop stop-color="#868686"/>
<stop offset="1" stop-color="#D1D1D1"/>
</radialGradient>
<radialGradient id="paint6_radial_1011_7583" cx="0" cy="0" r="1" gradientUnits="userSpaceOnUse" gradientTransform="translate(1.46144 1.46144) rotate(85.3036) scale(2.80114)">
<stop stop-color="#868686"/>
<stop offset="1" stop-color="#D1D1D1"/>
</radialGradient>
<radialGradient id="paint7_radial_1011_7583" cx="0" cy="0" r="1" gradientUnits="userSpaceOnUse" gradientTransform="translate(1.46144 1.46144) rotate(85.3036) scale(2.80114)">
<stop stop-color="#868686"/>
<stop offset="1" stop-color="#D1D1D1"/>
</radialGradient>
<radialGradient id="paint8_radial_1011_7583" cx="0" cy="0" r="1" gradientUnits="userSpaceOnUse" gradientTransform="translate(1.46144 1.46144) rotate(85.3036) scale(2.80114)">
<stop stop-color="#868686"/>
<stop offset="1" stop-color="#D1D1D1"/>
</radialGradient>
<radialGradient id="paint9_radial_1011_7583" cx="0" cy="0" r="1" gradientUnits="userSpaceOnUse" gradientTransform="translate(1.46144 1.46144) rotate(85.3036) scale(2.80114)">
<stop stop-color="#868686"/>
<stop offset="1" stop-color="#D1D1D1"/>
</radialGradient>
<radialGradient id="paint10_radial_1011_7583" cx="0" cy="0" r="1" gradientUnits="userSpaceOnUse" gradientTransform="translate(1.46144 1.46144) rotate(85.3036) scale(2.80114)">
<stop stop-color="#868686"/>
<stop offset="1" stop-color="#D1D1D1"/>
</radialGradient>
<radialGradient id="paint11_radial_1011_7583" cx="0" cy="0" r="1" gradientUnits="userSpaceOnUse" gradientTransform="translate(1.46144 1.46144) rotate(85.3036) scale(2.80114)">
<stop stop-color="#868686"/>
<stop offset="1" stop-color="#D1D1D1"/>
</radialGradient>
<radialGradient id="paint12_radial_1011_7583" cx="0" cy="0" r="1" gradientUnits="userSpaceOnUse" gradientTransform="translate(1.46144 1.46144) rotate(85.3036) scale(2.80114)">
<stop stop-color="#868686"/>
<stop offset="1" stop-color="#D1D1D1"/>
</radialGradient>
<radialGradient id="paint13_radial_1011_7583" cx="0" cy="0" r="1" gradientUnits="userSpaceOnUse" gradientTransform="translate(1.46144 1.46144) rotate(85.3036) scale(2.80114)">
<stop stop-color="#868686"/>
<stop offset="1" stop-color="#D1D1D1"/>
</radialGradient>
<radialGradient id="paint14_radial_1011_7583" cx="0" cy="0" r="1" gradientUnits="userSpaceOnUse" gradientTransform="translate(1.46144 1.46144) rotate(85.3036) scale(2.80114)">
<stop stop-color="#868686"/>
<stop offset="1" stop-color="#D1D1D1"/>
</radialGradient>
<radialGradient id="paint15_radial_1011_7583" cx="0" cy="0" r="1" gradientUnits="userSpaceOnUse" gradientTransform="translate(1.46144 1.46144) rotate(85.3036) scale(2.80114)">
<stop stop-color="#868686"/>
<stop offset="1" stop-color="#D1D1D1"/>
</radialGradient>
<radialGradient id="paint16_radial_1011_7583" cx="0" cy="0" r="1" gradientUnits="userSpaceOnUse" gradientTransform="translate(1.46144 1.46144) rotate(85.3036) scale(2.80114)">
<stop stop-color="#868686"/>
<stop offset="1" stop-color="#D1D1D1"/>
</radialGradient>
<radialGradient id="paint17_radial_1011_7583" cx="0" cy="0" r="1" gradientUnits="userSpaceOnUse" gradientTransform="translate(1.46144 1.46144) rotate(85.3036) scale(2.80114)">
<stop stop-color="#868686"/>
<stop offset="1" stop-color="#D1D1D1"/>
</radialGradient>
<radialGradient id="paint18_radial_1011_7583" cx="0" cy="0" r="1" gradientUnits="userSpaceOnUse" gradientTransform="translate(1.46144 1.46144) rotate(85.3036) scale(2.80114)">
<stop stop-color="#868686"/>
<stop offset="1" stop-color="#D1D1D1"/>
</radialGradient>
<radialGradient id="paint19_radial_1011_7583" cx="0" cy="0" r="1" gradientUnits="userSpaceOnUse" gradientTransform="translate(1.46144 1.46144) rotate(85.3036) scale(2.80114)">
<stop stop-color="#868686"/>
<stop offset="1" stop-color="#D1D1D1"/>
</radialGradient>
<radialGradient id="paint20_radial_1011_7583" cx="0" cy="0" r="1" gradientUnits="userSpaceOnUse" gradientTransform="translate(1.46144 1.46144) rotate(85.3036) scale(2.80114)">
<stop stop-color="#868686"/>
<stop offset="1" stop-color="#D1D1D1"/>
</radialGradient>
<radialGradient id="paint21_radial_1011_7583" cx="0" cy="0" r="1" gradientUnits="userSpaceOnUse" gradientTransform="translate(1.46144 1.46144) rotate(85.3036) scale(2.80114)">
<stop stop-color="#868686"/>
<stop offset="1" stop-color="#D1D1D1"/>
</radialGradient>
<radialGradient id="paint22_radial_1011_7583" cx="0" cy="0" r="1" gradientUnits="userSpaceOnUse" gradientTransform="translate(1.46144 1.46144) rotate(85.3036) scale(2.80114)">
<stop stop-color="#868686"/>
<stop offset="1" stop-color="#D1D1D1"/>
</radialGradient>
<radialGradient id="paint23_radial_1011_7583" cx="0" cy="0" r="1" gradientUnits="userSpaceOnUse" gradientTransform="translate(1.46144 1.46144) rotate(85.3036) scale(2.80114)">
<stop stop-color="#868686"/>
<stop offset="1" stop-color="#D1D1D1"/>
</radialGradient>
<radialGradient id="paint24_radial_1011_7583" cx="0" cy="0" r="1" gradientUnits="userSpaceOnUse" gradientTransform="translate(1.46144 1.46144) rotate(85.3036) scale(2.80114)">
<stop stop-color="#868686"/>
<stop offset="1" stop-color="#D1D1D1"/>
</radialGradient>
</defs>
</svg>
