<svg width="16" height="18" viewBox="0 0 16 18" fill="none" xmlns="http://www.w3.org/2000/svg">
<path fill-rule="evenodd" clip-rule="evenodd" d="M11.9209 0.691756L11.9218 1.36642C14.3704 1.56072 15.9878 3.25007 15.9905 5.84078L16.0001 13.424C16.0036 16.2486 14.251 17.9865 11.4417 17.991L4.57957 18C1.78785 18.0036 0.0132924 16.2243 0.00978185 13.3916L0.000127981 5.89745C-0.00338252 3.28965 1.55703 1.6048 4.00561 1.37721L4.00473 0.70255C4.00385 0.306748 4.29347 0.00899753 4.67962 0.00899753C5.06578 0.00809798 5.35539 0.304949 5.35627 0.700751L5.35715 1.33044L10.5702 1.32324L10.5694 0.693555C10.5685 0.297753 10.8581 0.000901588 11.2443 2.03894e-06C11.6216 -0.000897511 11.92 0.295954 11.9209 0.691756ZM1.35257 6.1756L14.6398 6.15761V5.84277C14.6021 3.90874 13.6437 2.89405 11.9236 2.74292L11.9244 3.43558C11.9244 3.82238 11.6269 4.12913 11.2495 4.12913C10.8634 4.13003 10.5729 3.82418 10.5729 3.43738L10.572 2.70874L5.35893 2.71594L5.3598 3.44367C5.3598 3.83138 5.07106 4.13722 4.68491 4.13722C4.29875 4.13812 4.00826 3.83318 4.00826 3.44547L4.00738 2.75282C2.29601 2.92643 1.34906 3.94472 1.35169 5.89584L1.35257 6.1756ZM10.881 10.2637V10.2736C10.8898 10.6874 11.2233 11.0013 11.6278 10.9923C12.0228 10.9824 12.3378 10.6397 12.3291 10.2259C12.3106 9.8301 11.9938 9.50716 11.5998 9.50806C11.1961 9.51705 10.8801 9.84989 10.881 10.2637ZM11.6055 14.3028C11.2018 14.2938 10.8762 13.9529 10.8753 13.5391C10.8665 13.1253 11.1904 12.7826 11.5941 12.7727H11.6028C12.0153 12.7727 12.3497 13.1136 12.3497 13.5364C12.3506 13.9592 12.0171 14.3019 11.6055 14.3028ZM7.26575 10.2782C7.2833 10.692 7.61768 11.0149 8.02138 10.9969C8.41632 10.978 8.73138 10.6362 8.71383 10.2224C8.70418 9.81761 8.37945 9.50276 7.98452 9.50366C7.58082 9.52166 7.26487 9.86438 7.26575 10.2782ZM8.02334 14.2623C7.61963 14.2803 7.28613 13.9573 7.2677 13.5436C7.2677 13.1298 7.58277 12.7879 7.98647 12.769C8.38141 12.7681 8.70701 13.083 8.71578 13.4869C8.73421 13.9016 8.41827 14.2434 8.02334 14.2623ZM3.64954 10.3099C3.66709 10.7237 4.00147 11.0475 4.40517 11.0287C4.8001 11.0107 5.11517 10.6679 5.09674 10.2541C5.08797 9.84935 4.76324 9.5345 4.36743 9.5354C3.96373 9.55339 3.64866 9.89612 3.64954 10.3099ZM4.4081 14.2667C4.0044 14.2856 3.6709 13.9617 3.65247 13.548C3.65159 13.1342 3.96754 12.7914 4.37124 12.7734C4.76617 12.7725 5.09177 13.0874 5.10055 13.4922C5.11898 13.906 4.80391 14.2487 4.4081 14.2667Z" fill="#D2D2D2"/>
</svg>
