<svg width="18" height="19" viewBox="0 0 18 19" fill="none" xmlns="http://www.w3.org/2000/svg">
<path d="M12.4897 0.790283C15.4423 0.790283 17.4194 2.86319 17.4194 5.94641V13.0631C17.4194 16.1367 15.4423 18.2096 12.4897 18.2096H4.93839C1.98581 18.2096 0 16.1367 0 13.0631V5.94641C0 2.86319 1.98581 0.790283 4.93839 0.790283H12.4897ZM12.3503 6.88706C12.0542 6.59093 11.5665 6.59093 11.2703 6.88706L7.67323 10.4842L6.14903 8.95996C5.8529 8.66383 5.36516 8.66383 5.06903 8.95996C4.7729 9.25609 4.7729 9.73512 5.06903 10.04L7.14193 12.1042C7.29 12.2522 7.48161 12.3219 7.67323 12.3219C7.87355 12.3219 8.06516 12.2522 8.21323 12.1042L12.3503 7.96706C12.6465 7.67093 12.6465 7.1919 12.3503 6.88706Z" fill="#3D9AFF"/>
</svg>
