<svg width="64" height="60" viewBox="0 0 64 60" fill="none" xmlns="http://www.w3.org/2000/svg">
<path d="M4.89456 46.3374C5.43454 43.4494 8.20271 41.5449 11.0774 42.0834C13.9522 42.6219 15.8448 45.3996 15.3049 48.2875C14.7649 51.1755 11.9967 53.08 9.122 52.5415C6.24727 52.003 4.35458 49.2253 4.89456 46.3374Z" fill="#8E4DD5"/>
<path d="M46.998 47.2716C47.7651 45.7617 49.6048 45.1606 51.1071 45.929C52.6095 46.6974 53.2056 48.5443 52.4385 50.0542C51.6715 51.5641 49.8318 52.1652 48.3294 51.3968C46.8271 50.6284 46.231 48.7815 46.998 47.2716Z" fill="white"/>
<path d="M8.1539 0.0556778L8.95159 3.99677L6.69569 7.31584L10.6188 6.51888L13.9257 8.78857L13.128 4.84749L15.3839 1.52841L11.4611 2.32519L8.1539 0.0556778Z" fill="#3897FF"/>
<path d="M45.8259 22.7226L42.2527 29.3359L56.8012 27.6697L60.0328 20.6986L45.8259 22.7226Z" fill="#00A98F"/>
</svg>
