<svg width="375" height="116" viewBox="0 0 375 116" fill="none" xmlns="http://www.w3.org/2000/svg">
<path d="M325.213 67.6699C325.08 68.5687 324.247 69.19 323.353 69.0577C322.458 68.9254 321.84 68.0894 321.973 67.1906C322.105 66.2918 322.938 65.6705 323.833 65.8029C324.728 65.9352 325.345 66.7711 325.213 67.6699Z" fill="#3897FF"/>
<path d="M292.814 67.9625C292.611 69.3371 291.337 70.2874 289.969 70.085C288.6 69.8825 287.655 68.6041 287.858 67.2295C288.061 65.8548 289.335 64.9046 290.703 65.107C292.072 65.3094 293.016 66.5878 292.814 67.9625Z" fill="#8E4DD5"/>
<path d="M355.084 63.0904C354.915 64.2353 353.854 65.0268 352.714 64.8582C351.575 64.6896 350.788 63.6248 350.957 62.4799C351.126 61.3349 352.187 60.5434 353.326 60.712C354.466 60.8806 355.253 61.9454 355.084 63.0904Z" fill="#00A98F"/>
<path d="M374.899 46.9913C374.73 48.1362 373.669 48.9277 372.529 48.7591C371.389 48.5905 370.602 47.5257 370.771 46.3807C370.94 45.2358 372.001 44.4443 373.141 44.6129C374.281 44.7815 375.067 45.8463 374.899 46.9913Z" fill="#FFCC00"/>
<path d="M79.0031 68.3048C78.8756 69.1692 78.0746 69.7668 77.2142 69.6395C76.3537 69.5122 75.7596 68.7083 75.8872 67.8439C76.0148 66.9795 76.8157 66.382 77.6761 66.5093C78.5366 66.6366 79.1307 67.4405 79.0031 68.3048Z" fill="#3897FF"/>
<path d="M182.232 69.1528C182.096 70.0737 181.243 70.7104 180.326 70.5748C179.409 70.4392 178.776 69.5826 178.912 68.6617C179.048 67.7407 179.901 67.1041 180.818 67.2397C181.735 67.3753 182.368 68.2318 182.232 69.1528Z" fill="#00A98F"/>
<path d="M227.962 69.0332L228.412 67.1851L230.046 66.2174L228.206 65.7698L227.246 64.1328L226.795 65.9809L225.162 66.9486L227.002 67.3963L227.962 69.0332Z" fill="#8E4DD5"/>
<path d="M366.25 74.4361L367.819 71.2459L360.973 72.297L359.572 75.6501L366.25 74.4361Z" fill="#00A98F"/>
<path d="M131.983 68.8717L133.188 66.4226L127.933 67.2295L126.857 69.8036L131.983 68.8717Z" fill="#FFCC00"/>
<path d="M262.446 66.4086L262.397 62.8538L256.774 66.8962L257.046 70.5199L262.446 66.4086Z" fill="#FFCC00"/>
<path d="M32.1596 67.4643L32.0598 65.6386L29.2317 67.8432L29.4487 69.6993L32.1596 67.4643Z" fill="#FFCC00"/>
</svg>
