<svg width="583" height="162" viewBox="0 0 583 162" fill="none" xmlns="http://www.w3.org/2000/svg">
<path d="M512.865 94.9458C512.68 96.2022 511.516 97.0708 510.265 96.8858C509.014 96.7008 508.151 95.5322 508.336 94.2758C508.522 93.0193 509.686 92.1507 510.937 92.3357C512.187 92.5207 513.051 93.6893 512.865 94.9458Z" fill="#3897FF"/>
<path d="M467.573 95.3545C467.289 97.2762 465.509 98.6046 463.596 98.3216C461.683 98.0387 460.362 96.2515 460.646 94.3298C460.929 92.4081 462.71 91.0797 464.623 91.3627C466.536 91.6457 467.856 93.4328 467.573 95.3545Z" fill="#8E4DD5"/>
<path d="M554.624 88.5436C554.388 90.1442 552.905 91.2506 551.312 91.0149C549.718 90.7793 548.618 89.2907 548.855 87.6901C549.091 86.0895 550.574 84.9831 552.167 85.2187C553.76 85.4544 554.861 86.943 554.624 88.5436Z" fill="#00A98F"/>
<path d="M582.324 66.038C582.087 67.6385 580.604 68.745 579.011 68.5093C577.418 68.2736 576.318 66.7851 576.554 65.1845C576.79 63.5839 578.273 62.4774 579.866 62.7131C581.46 62.9488 582.56 64.4374 582.324 66.038Z" fill="#FFCC00"/>
<path d="M168.679 95.833C168.5 97.0414 167.381 97.8767 166.178 97.6988C164.975 97.5209 164.144 96.397 164.323 95.1887C164.501 93.9803 165.621 93.145 166.823 93.3229C168.026 93.5008 168.857 94.6246 168.679 95.833Z" fill="#3897FF"/>
<path d="M312.985 97.0184C312.795 98.3058 311.603 99.1958 310.321 99.0062C309.039 98.8167 308.154 97.6193 308.344 96.3319C308.534 95.0444 309.727 94.1544 311.009 94.344C312.291 94.5336 313.175 95.7309 312.985 97.0184Z" fill="#00A98F"/>
<path d="M3.5663 98.0144C3.29991 98.5926 2.61748 98.8449 2.04206 98.5779C1.46663 98.3109 1.21611 97.6257 1.4825 97.0475C1.74889 96.4692 2.43132 96.2169 3.00674 96.4839C3.58217 96.7509 3.83269 97.4362 3.5663 98.0144Z" fill="#00A98F"/>
<path d="M376.914 96.8512L377.545 94.2677L379.828 92.9149L377.256 92.2891L375.914 90.0007L375.284 92.5843L373 93.937L375.572 94.5629L376.914 96.8512Z" fill="#8E4DD5"/>
<path d="M570.234 104.404L572.427 99.9447L562.857 101.414L560.899 106.102L570.234 104.404Z" fill="#00A98F"/>
<path d="M242.743 96.6254L244.427 93.2018L237.08 94.3298L235.577 97.9282L242.743 96.6254Z" fill="#FFCC00"/>
<path d="M425.122 93.1821L425.053 88.2128L417.192 93.8637L417.573 98.9295L425.122 93.1821Z" fill="#FFCC00"/>
<path d="M103.193 94.6583L103.053 92.1061L99.1 95.188L99.4034 97.7827L103.193 94.6583Z" fill="#FFCC00"/>
</svg>
