<svg width="22" height="44" viewBox="0 0 22 44" fill="none" xmlns="http://www.w3.org/2000/svg">
<path d="M21.6673 28.6595C21.6673 31.0975 20.9446 33.1594 19.4991 34.845C18.0795 36.5005 16.1565 37.569 13.7302 38.0506V40.6242C13.7302 41.4369 13.5108 42.084 13.072 42.5656C12.659 43.0773 12.1041 43.3332 11.4072 43.3332C10.7361 43.3332 10.1811 43.0773 9.74233 42.5656C9.30353 42.084 9.08414 41.4369 9.08414 40.6242V38.1861C7.66449 38.0356 6.28357 37.6894 4.94137 37.1476C3.62497 36.6058 2.46345 35.9135 1.45679 35.0707C1.0438 34.7697 0.746971 34.4386 0.566289 34.0774C0.411419 33.6861 0.333984 33.2045 0.333984 32.6326C0.333984 31.8801 0.527572 31.2179 0.914747 30.646C1.32773 30.0741 1.79234 29.7882 2.30858 29.7882C2.799 29.7882 3.40557 30.029 4.1283 30.5106C5.31563 31.3233 6.43844 31.9253 7.49672 32.3166C8.58081 32.6778 9.70362 32.8584 10.8651 32.8584C12.4138 32.8584 13.6012 32.5273 14.4271 31.8651C15.2531 31.1728 15.6661 30.2096 15.6661 28.9755C15.6661 28.223 15.4209 27.606 14.9305 27.1244C14.4659 26.6428 13.8851 26.2665 13.1882 25.9956C12.4913 25.7247 11.4846 25.3786 10.1682 24.9572C8.25816 24.3853 6.68365 23.8134 5.44469 23.2415C4.20573 22.6696 3.13455 21.7666 2.23114 20.5325C1.35354 19.2984 0.914747 17.6429 0.914747 15.566C0.914747 13.1279 1.65038 11.0359 3.12164 9.29014C4.61872 7.54434 6.5675 6.43064 8.96798 5.94905V3.3755C8.96798 2.5628 9.18738 1.91565 9.62618 1.43405C10.065 0.922354 10.6199 0.666504 11.291 0.666504C11.9879 0.666504 12.5429 0.922354 12.9559 1.43405C13.3947 1.91565 13.6141 2.5628 13.6141 3.3755V5.85874C15.9371 6.21994 18.1182 7.24334 20.1573 8.92894C20.5445 9.22994 20.8155 9.57609 20.9704 9.96739C21.1511 10.3587 21.2414 10.8252 21.2414 11.367C21.2414 12.1195 21.0349 12.7817 20.6219 13.3536C20.2348 13.9255 19.7831 14.2115 19.2668 14.2115C18.9829 14.2115 18.7119 14.1663 18.4538 14.076C18.2215 13.9857 17.8859 13.7901 17.4471 13.4891C16.3888 12.7065 15.4338 12.1195 14.582 11.7282C13.756 11.3369 12.7365 11.1413 11.5233 11.1413C10.1295 11.1413 9.0067 11.5025 8.15492 12.2249C7.32894 12.9473 6.91596 13.9105 6.91596 15.1145C6.91596 15.9573 7.16117 16.6496 7.65159 17.1914C8.14201 17.7031 8.76149 18.1094 9.51003 18.4104C10.2586 18.7114 11.3039 19.0576 12.6461 19.4489C14.5304 19.9907 16.0662 20.5475 17.2535 21.1194C18.4667 21.6612 19.4991 22.5492 20.3509 23.7833C21.2285 24.9873 21.6673 26.6127 21.6673 28.6595Z" fill="white"/>
</svg>
