<svg width="167" height="83" viewBox="0 0 167 83" fill="none" xmlns="http://www.w3.org/2000/svg">
<g opacity="0.5">
<rect y="8.12439" width="11.489" height="11.489" rx="3.0096" transform="rotate(-45 0 8.12439)" fill="url(#paint0_radial_1361_13503)" fill-opacity="0.2"/>
<rect x="21.3975" y="8.12402" width="11.489" height="11.489" rx="3.0096" transform="rotate(-45 21.3975 8.12402)" fill="url(#paint1_radial_1361_13503)" fill-opacity="0.2"/>
<rect x="42.792" y="8.12402" width="11.489" height="11.489" rx="3.0096" transform="rotate(-45 42.792 8.12402)" fill="url(#paint2_radial_1361_13503)" fill-opacity="0.2"/>
<rect x="64.1875" y="8.12402" width="11.489" height="11.489" rx="3.0096" transform="rotate(-45 64.1875 8.12402)" fill="url(#paint3_radial_1361_13503)" fill-opacity="0.2"/>
<rect x="85.5869" y="8.12439" width="11.489" height="11.489" rx="3.0096" transform="rotate(-45 85.5869 8.12439)" fill="url(#paint4_radial_1361_13503)" fill-opacity="0.2"/>
<rect x="106.98" y="8.12402" width="11.489" height="11.489" rx="3.0096" transform="rotate(-45 106.98 8.12402)" fill="url(#paint5_radial_1361_13503)" fill-opacity="0.2"/>
<rect x="128.377" y="8.12402" width="11.489" height="11.489" rx="3.0096" transform="rotate(-45 128.377 8.12402)" fill="url(#paint6_radial_1361_13503)" fill-opacity="0.2"/>
<rect x="149.773" y="8.12402" width="11.489" height="11.489" rx="3.0096" transform="rotate(-45 149.773 8.12402)" fill="url(#paint7_radial_1361_13503)" fill-opacity="0.2"/>
</g>
<g opacity="0.5">
<rect y="51.8789" width="11.489" height="11.489" rx="3.0096" transform="rotate(-45 0 51.8789)" fill="url(#paint8_radial_1361_13503)" fill-opacity="0.2"/>
<rect x="21.3975" y="51.8789" width="11.489" height="11.489" rx="3.0096" transform="rotate(-45 21.3975 51.8789)" fill="url(#paint9_radial_1361_13503)" fill-opacity="0.2"/>
<rect x="42.792" y="51.8789" width="11.489" height="11.489" rx="3.0096" transform="rotate(-45 42.792 51.8789)" fill="url(#paint10_radial_1361_13503)" fill-opacity="0.2"/>
<rect x="64.1875" y="51.8789" width="11.489" height="11.489" rx="3.0096" transform="rotate(-45 64.1875 51.8789)" fill="url(#paint11_radial_1361_13503)" fill-opacity="0.2"/>
<rect x="85.5869" y="51.8789" width="11.489" height="11.489" rx="3.0096" transform="rotate(-45 85.5869 51.8789)" fill="url(#paint12_radial_1361_13503)" fill-opacity="0.2"/>
<rect x="106.98" y="51.8789" width="11.489" height="11.489" rx="3.0096" transform="rotate(-45 106.98 51.8789)" fill="url(#paint13_radial_1361_13503)" fill-opacity="0.2"/>
<rect x="128.377" y="51.8789" width="11.489" height="11.489" rx="3.0096" transform="rotate(-45 128.377 51.8789)" fill="url(#paint14_radial_1361_13503)" fill-opacity="0.2"/>
<rect x="149.773" y="51.8789" width="11.489" height="11.489" rx="3.0096" transform="rotate(-45 149.773 51.8789)" fill="url(#paint15_radial_1361_13503)" fill-opacity="0.2"/>
</g>
<g opacity="0.5">
<rect y="30.0016" width="11.489" height="11.489" rx="3.0096" transform="rotate(-45 0 30.0016)" fill="url(#paint16_radial_1361_13503)" fill-opacity="0.2"/>
<rect x="21.3975" y="30.0016" width="11.489" height="11.489" rx="3.0096" transform="rotate(-45 21.3975 30.0016)" fill="url(#paint17_radial_1361_13503)" fill-opacity="0.2"/>
<rect x="42.792" y="30.0016" width="11.489" height="11.489" rx="3.0096" transform="rotate(-45 42.792 30.0016)" fill="url(#paint18_radial_1361_13503)" fill-opacity="0.2"/>
<rect x="64.1875" y="30.0016" width="11.489" height="11.489" rx="3.0096" transform="rotate(-45 64.1875 30.0016)" fill="url(#paint19_radial_1361_13503)" fill-opacity="0.2"/>
<rect x="85.5869" y="30.0016" width="11.489" height="11.489" rx="3.0096" transform="rotate(-45 85.5869 30.0016)" fill="url(#paint20_radial_1361_13503)" fill-opacity="0.2"/>
<rect x="106.98" y="30.0016" width="11.489" height="11.489" rx="3.0096" transform="rotate(-45 106.98 30.0016)" fill="url(#paint21_radial_1361_13503)" fill-opacity="0.2"/>
<rect x="128.377" y="30.0016" width="11.489" height="11.489" rx="3.0096" transform="rotate(-45 128.377 30.0016)" fill="url(#paint22_radial_1361_13503)" fill-opacity="0.2"/>
<rect x="149.773" y="30.0016" width="11.489" height="11.489" rx="3.0096" transform="rotate(-45 149.773 30.0016)" fill="url(#paint23_radial_1361_13503)" fill-opacity="0.2"/>
</g>
<g opacity="0.5">
<rect width="11.489" height="11.489" rx="3.0096" transform="matrix(0.707105 -0.707108 0.707105 0.707108 0 73.7568)" fill="url(#paint24_radial_1361_13503)" fill-opacity="0.2"/>
<rect width="11.489" height="11.489" rx="3.0096" transform="matrix(0.707105 -0.707108 0.707105 0.707108 21.3975 73.7568)" fill="url(#paint25_radial_1361_13503)" fill-opacity="0.2"/>
<rect width="11.489" height="11.489" rx="3.0096" transform="matrix(0.707105 -0.707108 0.707105 0.707108 42.792 73.7568)" fill="url(#paint26_radial_1361_13503)" fill-opacity="0.2"/>
<rect width="11.489" height="11.489" rx="3.0096" transform="matrix(0.707105 -0.707108 0.707105 0.707108 64.1875 73.7568)" fill="url(#paint27_radial_1361_13503)" fill-opacity="0.2"/>
<rect width="11.489" height="11.489" rx="3.0096" transform="matrix(0.707105 -0.707108 0.707105 0.707108 85.5869 73.7568)" fill="url(#paint28_radial_1361_13503)" fill-opacity="0.2"/>
<rect width="11.489" height="11.489" rx="3.0096" transform="matrix(0.707105 -0.707108 0.707105 0.707108 106.98 73.7568)" fill="url(#paint29_radial_1361_13503)" fill-opacity="0.2"/>
<rect width="11.489" height="11.489" rx="3.0096" transform="matrix(0.707105 -0.707108 0.707105 0.707108 128.377 73.7568)" fill="url(#paint30_radial_1361_13503)" fill-opacity="0.2"/>
<rect width="11.489" height="11.489" rx="3.0096" transform="matrix(0.707105 -0.707108 0.707105 0.707108 149.773 73.7568)" fill="url(#paint31_radial_1361_13503)" fill-opacity="0.2"/>
</g>
<defs>
<radialGradient id="paint0_radial_1361_13503" cx="0" cy="0" r="1" gradientUnits="userSpaceOnUse" gradientTransform="translate(5.74451 13.8689) rotate(85.3036) scale(11.0105)">
<stop stop-color="white"/>
<stop offset="1" stop-color="#FAFAFA"/>
</radialGradient>
<radialGradient id="paint1_radial_1361_13503" cx="0" cy="0" r="1" gradientUnits="userSpaceOnUse" gradientTransform="translate(27.142 13.8685) rotate(85.3036) scale(11.0105)">
<stop stop-color="white"/>
<stop offset="1" stop-color="#FAFAFA"/>
</radialGradient>
<radialGradient id="paint2_radial_1361_13503" cx="0" cy="0" r="1" gradientUnits="userSpaceOnUse" gradientTransform="translate(48.5365 13.8685) rotate(85.3036) scale(11.0105)">
<stop stop-color="white"/>
<stop offset="1" stop-color="#FAFAFA"/>
</radialGradient>
<radialGradient id="paint3_radial_1361_13503" cx="0" cy="0" r="1" gradientUnits="userSpaceOnUse" gradientTransform="translate(69.932 13.8685) rotate(85.3036) scale(11.0105)">
<stop stop-color="white"/>
<stop offset="1" stop-color="#FAFAFA"/>
</radialGradient>
<radialGradient id="paint4_radial_1361_13503" cx="0" cy="0" r="1" gradientUnits="userSpaceOnUse" gradientTransform="translate(91.3314 13.8689) rotate(85.3036) scale(11.0105)">
<stop stop-color="white"/>
<stop offset="1" stop-color="#FAFAFA"/>
</radialGradient>
<radialGradient id="paint5_radial_1361_13503" cx="0" cy="0" r="1" gradientUnits="userSpaceOnUse" gradientTransform="translate(112.725 13.8685) rotate(85.3036) scale(11.0105)">
<stop stop-color="white"/>
<stop offset="1" stop-color="#FAFAFA"/>
</radialGradient>
<radialGradient id="paint6_radial_1361_13503" cx="0" cy="0" r="1" gradientUnits="userSpaceOnUse" gradientTransform="translate(134.121 13.8685) rotate(85.3036) scale(11.0105)">
<stop stop-color="white"/>
<stop offset="1" stop-color="#FAFAFA"/>
</radialGradient>
<radialGradient id="paint7_radial_1361_13503" cx="0" cy="0" r="1" gradientUnits="userSpaceOnUse" gradientTransform="translate(155.518 13.8685) rotate(85.3036) scale(11.0105)">
<stop stop-color="white"/>
<stop offset="1" stop-color="#FAFAFA"/>
</radialGradient>
<radialGradient id="paint8_radial_1361_13503" cx="0" cy="0" r="1" gradientUnits="userSpaceOnUse" gradientTransform="translate(5.74451 57.6234) rotate(85.3036) scale(11.0105)">
<stop stop-color="white"/>
<stop offset="1" stop-color="#FAFAFA"/>
</radialGradient>
<radialGradient id="paint9_radial_1361_13503" cx="0" cy="0" r="1" gradientUnits="userSpaceOnUse" gradientTransform="translate(27.142 57.6234) rotate(85.3036) scale(11.0105)">
<stop stop-color="white"/>
<stop offset="1" stop-color="#FAFAFA"/>
</radialGradient>
<radialGradient id="paint10_radial_1361_13503" cx="0" cy="0" r="1" gradientUnits="userSpaceOnUse" gradientTransform="translate(48.5365 57.6234) rotate(85.3036) scale(11.0105)">
<stop stop-color="white"/>
<stop offset="1" stop-color="#FAFAFA"/>
</radialGradient>
<radialGradient id="paint11_radial_1361_13503" cx="0" cy="0" r="1" gradientUnits="userSpaceOnUse" gradientTransform="translate(69.932 57.6234) rotate(85.3036) scale(11.0105)">
<stop stop-color="white"/>
<stop offset="1" stop-color="#FAFAFA"/>
</radialGradient>
<radialGradient id="paint12_radial_1361_13503" cx="0" cy="0" r="1" gradientUnits="userSpaceOnUse" gradientTransform="translate(91.3314 57.6234) rotate(85.3036) scale(11.0105)">
<stop stop-color="white"/>
<stop offset="1" stop-color="#FAFAFA"/>
</radialGradient>
<radialGradient id="paint13_radial_1361_13503" cx="0" cy="0" r="1" gradientUnits="userSpaceOnUse" gradientTransform="translate(112.725 57.6234) rotate(85.3036) scale(11.0105)">
<stop stop-color="white"/>
<stop offset="1" stop-color="#FAFAFA"/>
</radialGradient>
<radialGradient id="paint14_radial_1361_13503" cx="0" cy="0" r="1" gradientUnits="userSpaceOnUse" gradientTransform="translate(134.121 57.6234) rotate(85.3036) scale(11.0105)">
<stop stop-color="white"/>
<stop offset="1" stop-color="#FAFAFA"/>
</radialGradient>
<radialGradient id="paint15_radial_1361_13503" cx="0" cy="0" r="1" gradientUnits="userSpaceOnUse" gradientTransform="translate(155.518 57.6234) rotate(85.3036) scale(11.0105)">
<stop stop-color="white"/>
<stop offset="1" stop-color="#FAFAFA"/>
</radialGradient>
<radialGradient id="paint16_radial_1361_13503" cx="0" cy="0" r="1" gradientUnits="userSpaceOnUse" gradientTransform="translate(5.74451 35.7461) rotate(85.3036) scale(11.0105)">
<stop stop-color="white"/>
<stop offset="1" stop-color="#FAFAFA"/>
</radialGradient>
<radialGradient id="paint17_radial_1361_13503" cx="0" cy="0" r="1" gradientUnits="userSpaceOnUse" gradientTransform="translate(27.142 35.7461) rotate(85.3036) scale(11.0105)">
<stop stop-color="white"/>
<stop offset="1" stop-color="#FAFAFA"/>
</radialGradient>
<radialGradient id="paint18_radial_1361_13503" cx="0" cy="0" r="1" gradientUnits="userSpaceOnUse" gradientTransform="translate(48.5365 35.7461) rotate(85.3036) scale(11.0105)">
<stop stop-color="white"/>
<stop offset="1" stop-color="#FAFAFA"/>
</radialGradient>
<radialGradient id="paint19_radial_1361_13503" cx="0" cy="0" r="1" gradientUnits="userSpaceOnUse" gradientTransform="translate(69.932 35.7461) rotate(85.3036) scale(11.0105)">
<stop stop-color="white"/>
<stop offset="1" stop-color="#FAFAFA"/>
</radialGradient>
<radialGradient id="paint20_radial_1361_13503" cx="0" cy="0" r="1" gradientUnits="userSpaceOnUse" gradientTransform="translate(91.3314 35.7461) rotate(85.3036) scale(11.0105)">
<stop stop-color="white"/>
<stop offset="1" stop-color="#FAFAFA"/>
</radialGradient>
<radialGradient id="paint21_radial_1361_13503" cx="0" cy="0" r="1" gradientUnits="userSpaceOnUse" gradientTransform="translate(112.725 35.7461) rotate(85.3036) scale(11.0105)">
<stop stop-color="white"/>
<stop offset="1" stop-color="#FAFAFA"/>
</radialGradient>
<radialGradient id="paint22_radial_1361_13503" cx="0" cy="0" r="1" gradientUnits="userSpaceOnUse" gradientTransform="translate(134.121 35.7461) rotate(85.3036) scale(11.0105)">
<stop stop-color="white"/>
<stop offset="1" stop-color="#FAFAFA"/>
</radialGradient>
<radialGradient id="paint23_radial_1361_13503" cx="0" cy="0" r="1" gradientUnits="userSpaceOnUse" gradientTransform="translate(155.518 35.7461) rotate(85.3036) scale(11.0105)">
<stop stop-color="white"/>
<stop offset="1" stop-color="#FAFAFA"/>
</radialGradient>
<radialGradient id="paint24_radial_1361_13503" cx="0" cy="0" r="1" gradientUnits="userSpaceOnUse" gradientTransform="translate(5.74451 5.74451) rotate(85.3036) scale(11.0105)">
<stop stop-color="white"/>
<stop offset="1" stop-color="#FAFAFA"/>
</radialGradient>
<radialGradient id="paint25_radial_1361_13503" cx="0" cy="0" r="1" gradientUnits="userSpaceOnUse" gradientTransform="translate(5.74451 5.74451) rotate(85.3036) scale(11.0105)">
<stop stop-color="white"/>
<stop offset="1" stop-color="#FAFAFA"/>
</radialGradient>
<radialGradient id="paint26_radial_1361_13503" cx="0" cy="0" r="1" gradientUnits="userSpaceOnUse" gradientTransform="translate(5.74451 5.74451) rotate(85.3036) scale(11.0105)">
<stop stop-color="white"/>
<stop offset="1" stop-color="#FAFAFA"/>
</radialGradient>
<radialGradient id="paint27_radial_1361_13503" cx="0" cy="0" r="1" gradientUnits="userSpaceOnUse" gradientTransform="translate(5.74451 5.74451) rotate(85.3036) scale(11.0105)">
<stop stop-color="white"/>
<stop offset="1" stop-color="#FAFAFA"/>
</radialGradient>
<radialGradient id="paint28_radial_1361_13503" cx="0" cy="0" r="1" gradientUnits="userSpaceOnUse" gradientTransform="translate(5.74451 5.74451) rotate(85.3036) scale(11.0105)">
<stop stop-color="white"/>
<stop offset="1" stop-color="#FAFAFA"/>
</radialGradient>
<radialGradient id="paint29_radial_1361_13503" cx="0" cy="0" r="1" gradientUnits="userSpaceOnUse" gradientTransform="translate(5.74451 5.74451) rotate(85.3036) scale(11.0105)">
<stop stop-color="white"/>
<stop offset="1" stop-color="#FAFAFA"/>
</radialGradient>
<radialGradient id="paint30_radial_1361_13503" cx="0" cy="0" r="1" gradientUnits="userSpaceOnUse" gradientTransform="translate(5.74451 5.74451) rotate(85.3036) scale(11.0105)">
<stop stop-color="white"/>
<stop offset="1" stop-color="#FAFAFA"/>
</radialGradient>
<radialGradient id="paint31_radial_1361_13503" cx="0" cy="0" r="1" gradientUnits="userSpaceOnUse" gradientTransform="translate(5.74451 5.74451) rotate(85.3036) scale(11.0105)">
<stop stop-color="white"/>
<stop offset="1" stop-color="#FAFAFA"/>
</radialGradient>
</defs>
</svg>
