<svg width="148" height="119" viewBox="0 0 148 119" fill="none" xmlns="http://www.w3.org/2000/svg">
<g opacity="0.5">
<rect y="7.65222" width="10.8216" height="10.8216" rx="1.68778" transform="rotate(-45 0 7.65222)" fill="url(#paint0_radial_1361_13442)" fill-opacity="0.2"/>
<rect x="20.1543" y="7.65198" width="10.8216" height="10.8216" rx="1.68778" transform="rotate(-45 20.1543 7.65198)" fill="url(#paint1_radial_1361_13442)" fill-opacity="0.2"/>
<rect x="40.3066" y="7.65198" width="10.8216" height="10.8216" rx="1.68778" transform="rotate(-45 40.3066 7.65198)" fill="url(#paint2_radial_1361_13442)" fill-opacity="0.2"/>
<rect x="60.459" y="7.65198" width="10.8216" height="10.8216" rx="1.68778" transform="rotate(-45 60.459 7.65198)" fill="url(#paint3_radial_1361_13442)" fill-opacity="0.2"/>
<rect x="80.6152" y="7.65222" width="10.8216" height="10.8216" rx="1.68778" transform="rotate(-45 80.6152 7.65222)" fill="url(#paint4_radial_1361_13442)" fill-opacity="0.2"/>
<rect x="100.767" y="7.65198" width="10.8216" height="10.8216" rx="1.68778" transform="rotate(-45 100.767 7.65198)" fill="url(#paint5_radial_1361_13442)" fill-opacity="0.2"/>
<rect x="120.92" y="7.65198" width="10.8216" height="10.8216" rx="1.68778" transform="rotate(-45 120.92 7.65198)" fill="url(#paint6_radial_1361_13442)" fill-opacity="0.2"/>
<rect x="141.072" y="7.65198" width="10.8216" height="10.8216" rx="1.68778" transform="rotate(-45 141.072 7.65198)" fill="url(#paint7_radial_1361_13442)" fill-opacity="0.2"/>
</g>
<g opacity="0.5">
<rect y="48.8654" width="10.8216" height="10.8216" rx="1.68778" transform="rotate(-45 0 48.8654)" fill="url(#paint8_radial_1361_13442)" fill-opacity="0.2"/>
<rect x="20.1543" y="48.8654" width="10.8216" height="10.8216" rx="1.68778" transform="rotate(-45 20.1543 48.8654)" fill="url(#paint9_radial_1361_13442)" fill-opacity="0.2"/>
<rect x="40.3066" y="48.8654" width="10.8216" height="10.8216" rx="1.68778" transform="rotate(-45 40.3066 48.8654)" fill="url(#paint10_radial_1361_13442)" fill-opacity="0.2"/>
<rect x="60.459" y="48.8654" width="10.8216" height="10.8216" rx="1.68778" transform="rotate(-45 60.459 48.8654)" fill="url(#paint11_radial_1361_13442)" fill-opacity="0.2"/>
<rect x="80.6152" y="48.8654" width="10.8216" height="10.8216" rx="1.68778" transform="rotate(-45 80.6152 48.8654)" fill="url(#paint12_radial_1361_13442)" fill-opacity="0.2"/>
<rect x="100.767" y="48.8654" width="10.8216" height="10.8216" rx="1.68778" transform="rotate(-45 100.767 48.8654)" fill="url(#paint13_radial_1361_13442)" fill-opacity="0.2"/>
<rect x="120.92" y="48.8654" width="10.8216" height="10.8216" rx="1.68778" transform="rotate(-45 120.92 48.8654)" fill="url(#paint14_radial_1361_13442)" fill-opacity="0.2"/>
<rect x="141.072" y="48.8654" width="10.8216" height="10.8216" rx="1.68778" transform="rotate(-45 141.072 48.8654)" fill="url(#paint15_radial_1361_13442)" fill-opacity="0.2"/>
</g>
<g opacity="0.5">
<rect y="90.0784" width="10.8216" height="10.8216" rx="1.68778" transform="rotate(-45 0 90.0784)" fill="url(#paint16_radial_1361_13442)" fill-opacity="0.2"/>
<rect x="20.1543" y="90.0784" width="10.8216" height="10.8216" rx="1.68778" transform="rotate(-45 20.1543 90.0784)" fill="url(#paint17_radial_1361_13442)" fill-opacity="0.2"/>
<rect x="40.3066" y="90.0784" width="10.8216" height="10.8216" rx="1.68778" transform="rotate(-45 40.3066 90.0784)" fill="url(#paint18_radial_1361_13442)" fill-opacity="0.2"/>
<rect x="60.459" y="90.0784" width="10.8216" height="10.8216" rx="1.68778" transform="rotate(-45 60.459 90.0784)" fill="url(#paint19_radial_1361_13442)" fill-opacity="0.2"/>
<rect x="80.6152" y="90.0784" width="10.8216" height="10.8216" rx="1.68778" transform="rotate(-45 80.6152 90.0784)" fill="url(#paint20_radial_1361_13442)" fill-opacity="0.2"/>
<rect x="100.765" y="90.0784" width="10.8216" height="10.8216" rx="1.68778" transform="rotate(-45 100.765 90.0784)" fill="url(#paint21_radial_1361_13442)" fill-opacity="0.2"/>
<rect x="120.92" y="90.0784" width="10.8216" height="10.8216" rx="1.68778" transform="rotate(-45 120.92 90.0784)" fill="url(#paint22_radial_1361_13442)" fill-opacity="0.2"/>
<rect x="141.072" y="90.0784" width="10.8216" height="10.8216" rx="1.68778" transform="rotate(-45 141.072 90.0784)" fill="url(#paint23_radial_1361_13442)" fill-opacity="0.2"/>
</g>
<g opacity="0.5">
<rect y="28.2585" width="10.8216" height="10.8216" rx="1.68778" transform="rotate(-45 0 28.2585)" fill="url(#paint24_radial_1361_13442)" fill-opacity="0.2"/>
<rect x="20.1543" y="28.2585" width="10.8216" height="10.8216" rx="1.68778" transform="rotate(-45 20.1543 28.2585)" fill="url(#paint25_radial_1361_13442)" fill-opacity="0.2"/>
<rect x="40.3066" y="28.2585" width="10.8216" height="10.8216" rx="1.68778" transform="rotate(-45 40.3066 28.2585)" fill="url(#paint26_radial_1361_13442)" fill-opacity="0.2"/>
<rect x="60.459" y="28.2585" width="10.8216" height="10.8216" rx="1.68778" transform="rotate(-45 60.459 28.2585)" fill="url(#paint27_radial_1361_13442)" fill-opacity="0.2"/>
<rect x="80.6152" y="28.2585" width="10.8216" height="10.8216" rx="1.68778" transform="rotate(-45 80.6152 28.2585)" fill="url(#paint28_radial_1361_13442)" fill-opacity="0.2"/>
<rect x="100.765" y="28.2585" width="10.8216" height="10.8216" rx="1.68778" transform="rotate(-45 100.765 28.2585)" fill="url(#paint29_radial_1361_13442)" fill-opacity="0.2"/>
<rect x="120.92" y="28.2585" width="10.8216" height="10.8216" rx="1.68778" transform="rotate(-45 120.92 28.2585)" fill="url(#paint30_radial_1361_13442)" fill-opacity="0.2"/>
<rect x="141.072" y="28.2585" width="10.8216" height="10.8216" rx="1.68778" transform="rotate(-45 141.072 28.2585)" fill="url(#paint31_radial_1361_13442)" fill-opacity="0.2"/>
</g>
<g opacity="0.5">
<rect width="10.8216" height="10.8216" rx="1.68778" transform="matrix(0.707105 -0.707108 0.707105 0.707108 0 69.472)" fill="url(#paint32_radial_1361_13442)" fill-opacity="0.2"/>
<rect width="10.8216" height="10.8216" rx="1.68778" transform="matrix(0.707105 -0.707108 0.707105 0.707108 20.1543 69.472)" fill="url(#paint33_radial_1361_13442)" fill-opacity="0.2"/>
<rect width="10.8216" height="10.8216" rx="1.68778" transform="matrix(0.707105 -0.707108 0.707105 0.707108 40.3066 69.472)" fill="url(#paint34_radial_1361_13442)" fill-opacity="0.2"/>
<rect width="10.8216" height="10.8216" rx="1.68778" transform="matrix(0.707105 -0.707108 0.707105 0.707108 60.459 69.472)" fill="url(#paint35_radial_1361_13442)" fill-opacity="0.2"/>
<rect width="10.8216" height="10.8216" rx="1.68778" transform="matrix(0.707105 -0.707108 0.707105 0.707108 80.6152 69.472)" fill="url(#paint36_radial_1361_13442)" fill-opacity="0.2"/>
<rect width="10.8216" height="10.8216" rx="1.68778" transform="matrix(0.707105 -0.707108 0.707105 0.707108 100.765 69.472)" fill="url(#paint37_radial_1361_13442)" fill-opacity="0.2"/>
<rect width="10.8216" height="10.8216" rx="1.68778" transform="matrix(0.707105 -0.707108 0.707105 0.707108 120.92 69.472)" fill="url(#paint38_radial_1361_13442)" fill-opacity="0.2"/>
<rect width="10.8216" height="10.8216" rx="1.68778" transform="matrix(0.707105 -0.707108 0.707105 0.707108 141.072 69.472)" fill="url(#paint39_radial_1361_13442)" fill-opacity="0.2"/>
</g>
<g opacity="0.5">
<rect y="110.685" width="10.8216" height="10.8216" rx="1.68778" transform="rotate(-45 0 110.685)" fill="url(#paint40_radial_1361_13442)" fill-opacity="0.2"/>
<rect x="20.1543" y="110.685" width="10.8216" height="10.8216" rx="1.68778" transform="rotate(-45 20.1543 110.685)" fill="url(#paint41_radial_1361_13442)" fill-opacity="0.2"/>
<rect x="40.3066" y="110.685" width="10.8216" height="10.8216" rx="1.68778" transform="rotate(-45 40.3066 110.685)" fill="url(#paint42_radial_1361_13442)" fill-opacity="0.2"/>
<rect x="60.459" y="110.685" width="10.8216" height="10.8216" rx="1.68778" transform="rotate(-45 60.459 110.685)" fill="url(#paint43_radial_1361_13442)" fill-opacity="0.2"/>
<rect x="80.6152" y="110.685" width="10.8216" height="10.8216" rx="1.68778" transform="rotate(-45 80.6152 110.685)" fill="url(#paint44_radial_1361_13442)" fill-opacity="0.2"/>
<rect x="100.767" y="110.685" width="10.8216" height="10.8216" rx="1.68778" transform="rotate(-45 100.767 110.685)" fill="url(#paint45_radial_1361_13442)" fill-opacity="0.2"/>
<rect x="120.92" y="110.685" width="10.8216" height="10.8216" rx="1.68778" transform="rotate(-45 120.92 110.685)" fill="url(#paint46_radial_1361_13442)" fill-opacity="0.2"/>
<rect x="141.072" y="110.685" width="10.8216" height="10.8216" rx="1.68778" transform="rotate(-45 141.072 110.685)" fill="url(#paint47_radial_1361_13442)" fill-opacity="0.2"/>
</g>
<defs>
<radialGradient id="paint0_radial_1361_13442" cx="0" cy="0" r="1" gradientUnits="userSpaceOnUse" gradientTransform="translate(5.41081 13.063) rotate(85.3036) scale(10.3709)">
<stop stop-color="white"/>
<stop offset="1" stop-color="#FAFAFA"/>
</radialGradient>
<radialGradient id="paint1_radial_1361_13442" cx="0" cy="0" r="1" gradientUnits="userSpaceOnUse" gradientTransform="translate(25.5651 13.0628) rotate(85.3036) scale(10.3709)">
<stop stop-color="white"/>
<stop offset="1" stop-color="#FAFAFA"/>
</radialGradient>
<radialGradient id="paint2_radial_1361_13442" cx="0" cy="0" r="1" gradientUnits="userSpaceOnUse" gradientTransform="translate(45.7174 13.0628) rotate(85.3036) scale(10.3709)">
<stop stop-color="white"/>
<stop offset="1" stop-color="#FAFAFA"/>
</radialGradient>
<radialGradient id="paint3_radial_1361_13442" cx="0" cy="0" r="1" gradientUnits="userSpaceOnUse" gradientTransform="translate(65.8698 13.0628) rotate(85.3036) scale(10.3709)">
<stop stop-color="white"/>
<stop offset="1" stop-color="#FAFAFA"/>
</radialGradient>
<radialGradient id="paint4_radial_1361_13442" cx="0" cy="0" r="1" gradientUnits="userSpaceOnUse" gradientTransform="translate(86.026 13.063) rotate(85.3036) scale(10.3709)">
<stop stop-color="white"/>
<stop offset="1" stop-color="#FAFAFA"/>
</radialGradient>
<radialGradient id="paint5_radial_1361_13442" cx="0" cy="0" r="1" gradientUnits="userSpaceOnUse" gradientTransform="translate(106.177 13.0628) rotate(85.3036) scale(10.3709)">
<stop stop-color="white"/>
<stop offset="1" stop-color="#FAFAFA"/>
</radialGradient>
<radialGradient id="paint6_radial_1361_13442" cx="0" cy="0" r="1" gradientUnits="userSpaceOnUse" gradientTransform="translate(126.331 13.0628) rotate(85.3036) scale(10.3709)">
<stop stop-color="white"/>
<stop offset="1" stop-color="#FAFAFA"/>
</radialGradient>
<radialGradient id="paint7_radial_1361_13442" cx="0" cy="0" r="1" gradientUnits="userSpaceOnUse" gradientTransform="translate(146.483 13.0628) rotate(85.3036) scale(10.3709)">
<stop stop-color="white"/>
<stop offset="1" stop-color="#FAFAFA"/>
</radialGradient>
<radialGradient id="paint8_radial_1361_13442" cx="0" cy="0" r="1" gradientUnits="userSpaceOnUse" gradientTransform="translate(5.41081 54.2762) rotate(85.3036) scale(10.3709)">
<stop stop-color="white"/>
<stop offset="1" stop-color="#FAFAFA"/>
</radialGradient>
<radialGradient id="paint9_radial_1361_13442" cx="0" cy="0" r="1" gradientUnits="userSpaceOnUse" gradientTransform="translate(25.5651 54.2762) rotate(85.3036) scale(10.3709)">
<stop stop-color="white"/>
<stop offset="1" stop-color="#FAFAFA"/>
</radialGradient>
<radialGradient id="paint10_radial_1361_13442" cx="0" cy="0" r="1" gradientUnits="userSpaceOnUse" gradientTransform="translate(45.7174 54.2762) rotate(85.3036) scale(10.3709)">
<stop stop-color="white"/>
<stop offset="1" stop-color="#FAFAFA"/>
</radialGradient>
<radialGradient id="paint11_radial_1361_13442" cx="0" cy="0" r="1" gradientUnits="userSpaceOnUse" gradientTransform="translate(65.8698 54.2762) rotate(85.3036) scale(10.3709)">
<stop stop-color="white"/>
<stop offset="1" stop-color="#FAFAFA"/>
</radialGradient>
<radialGradient id="paint12_radial_1361_13442" cx="0" cy="0" r="1" gradientUnits="userSpaceOnUse" gradientTransform="translate(86.026 54.2762) rotate(85.3036) scale(10.3709)">
<stop stop-color="white"/>
<stop offset="1" stop-color="#FAFAFA"/>
</radialGradient>
<radialGradient id="paint13_radial_1361_13442" cx="0" cy="0" r="1" gradientUnits="userSpaceOnUse" gradientTransform="translate(106.177 54.2762) rotate(85.3036) scale(10.3709)">
<stop stop-color="white"/>
<stop offset="1" stop-color="#FAFAFA"/>
</radialGradient>
<radialGradient id="paint14_radial_1361_13442" cx="0" cy="0" r="1" gradientUnits="userSpaceOnUse" gradientTransform="translate(126.331 54.2762) rotate(85.3036) scale(10.3709)">
<stop stop-color="white"/>
<stop offset="1" stop-color="#FAFAFA"/>
</radialGradient>
<radialGradient id="paint15_radial_1361_13442" cx="0" cy="0" r="1" gradientUnits="userSpaceOnUse" gradientTransform="translate(146.483 54.2762) rotate(85.3036) scale(10.3709)">
<stop stop-color="white"/>
<stop offset="1" stop-color="#FAFAFA"/>
</radialGradient>
<radialGradient id="paint16_radial_1361_13442" cx="0" cy="0" r="1" gradientUnits="userSpaceOnUse" gradientTransform="translate(5.41081 95.4892) rotate(85.3036) scale(10.3709)">
<stop stop-color="white"/>
<stop offset="1" stop-color="#FAFAFA"/>
</radialGradient>
<radialGradient id="paint17_radial_1361_13442" cx="0" cy="0" r="1" gradientUnits="userSpaceOnUse" gradientTransform="translate(25.5651 95.4892) rotate(85.3036) scale(10.3709)">
<stop stop-color="white"/>
<stop offset="1" stop-color="#FAFAFA"/>
</radialGradient>
<radialGradient id="paint18_radial_1361_13442" cx="0" cy="0" r="1" gradientUnits="userSpaceOnUse" gradientTransform="translate(45.7174 95.4892) rotate(85.3036) scale(10.3709)">
<stop stop-color="white"/>
<stop offset="1" stop-color="#FAFAFA"/>
</radialGradient>
<radialGradient id="paint19_radial_1361_13442" cx="0" cy="0" r="1" gradientUnits="userSpaceOnUse" gradientTransform="translate(65.8698 95.4892) rotate(85.3036) scale(10.3709)">
<stop stop-color="white"/>
<stop offset="1" stop-color="#FAFAFA"/>
</radialGradient>
<radialGradient id="paint20_radial_1361_13442" cx="0" cy="0" r="1" gradientUnits="userSpaceOnUse" gradientTransform="translate(86.026 95.4892) rotate(85.3036) scale(10.3709)">
<stop stop-color="white"/>
<stop offset="1" stop-color="#FAFAFA"/>
</radialGradient>
<radialGradient id="paint21_radial_1361_13442" cx="0" cy="0" r="1" gradientUnits="userSpaceOnUse" gradientTransform="translate(106.175 95.4892) rotate(85.3036) scale(10.3709)">
<stop stop-color="white"/>
<stop offset="1" stop-color="#FAFAFA"/>
</radialGradient>
<radialGradient id="paint22_radial_1361_13442" cx="0" cy="0" r="1" gradientUnits="userSpaceOnUse" gradientTransform="translate(126.331 95.4892) rotate(85.3036) scale(10.3709)">
<stop stop-color="white"/>
<stop offset="1" stop-color="#FAFAFA"/>
</radialGradient>
<radialGradient id="paint23_radial_1361_13442" cx="0" cy="0" r="1" gradientUnits="userSpaceOnUse" gradientTransform="translate(146.483 95.4892) rotate(85.3036) scale(10.3709)">
<stop stop-color="white"/>
<stop offset="1" stop-color="#FAFAFA"/>
</radialGradient>
<radialGradient id="paint24_radial_1361_13442" cx="0" cy="0" r="1" gradientUnits="userSpaceOnUse" gradientTransform="translate(5.41081 33.6693) rotate(85.3036) scale(10.3709)">
<stop stop-color="white"/>
<stop offset="1" stop-color="#FAFAFA"/>
</radialGradient>
<radialGradient id="paint25_radial_1361_13442" cx="0" cy="0" r="1" gradientUnits="userSpaceOnUse" gradientTransform="translate(25.5651 33.6693) rotate(85.3036) scale(10.3709)">
<stop stop-color="white"/>
<stop offset="1" stop-color="#FAFAFA"/>
</radialGradient>
<radialGradient id="paint26_radial_1361_13442" cx="0" cy="0" r="1" gradientUnits="userSpaceOnUse" gradientTransform="translate(45.7174 33.6693) rotate(85.3036) scale(10.3709)">
<stop stop-color="white"/>
<stop offset="1" stop-color="#FAFAFA"/>
</radialGradient>
<radialGradient id="paint27_radial_1361_13442" cx="0" cy="0" r="1" gradientUnits="userSpaceOnUse" gradientTransform="translate(65.8698 33.6693) rotate(85.3036) scale(10.3709)">
<stop stop-color="white"/>
<stop offset="1" stop-color="#FAFAFA"/>
</radialGradient>
<radialGradient id="paint28_radial_1361_13442" cx="0" cy="0" r="1" gradientUnits="userSpaceOnUse" gradientTransform="translate(86.026 33.6693) rotate(85.3036) scale(10.3709)">
<stop stop-color="white"/>
<stop offset="1" stop-color="#FAFAFA"/>
</radialGradient>
<radialGradient id="paint29_radial_1361_13442" cx="0" cy="0" r="1" gradientUnits="userSpaceOnUse" gradientTransform="translate(106.175 33.6693) rotate(85.3036) scale(10.3709)">
<stop stop-color="white"/>
<stop offset="1" stop-color="#FAFAFA"/>
</radialGradient>
<radialGradient id="paint30_radial_1361_13442" cx="0" cy="0" r="1" gradientUnits="userSpaceOnUse" gradientTransform="translate(126.331 33.6693) rotate(85.3036) scale(10.3709)">
<stop stop-color="white"/>
<stop offset="1" stop-color="#FAFAFA"/>
</radialGradient>
<radialGradient id="paint31_radial_1361_13442" cx="0" cy="0" r="1" gradientUnits="userSpaceOnUse" gradientTransform="translate(146.483 33.6693) rotate(85.3036) scale(10.3709)">
<stop stop-color="white"/>
<stop offset="1" stop-color="#FAFAFA"/>
</radialGradient>
<radialGradient id="paint32_radial_1361_13442" cx="0" cy="0" r="1" gradientUnits="userSpaceOnUse" gradientTransform="translate(5.41081 5.4108) rotate(85.3036) scale(10.3709)">
<stop stop-color="white"/>
<stop offset="1" stop-color="#FAFAFA"/>
</radialGradient>
<radialGradient id="paint33_radial_1361_13442" cx="0" cy="0" r="1" gradientUnits="userSpaceOnUse" gradientTransform="translate(5.41081 5.4108) rotate(85.3036) scale(10.3709)">
<stop stop-color="white"/>
<stop offset="1" stop-color="#FAFAFA"/>
</radialGradient>
<radialGradient id="paint34_radial_1361_13442" cx="0" cy="0" r="1" gradientUnits="userSpaceOnUse" gradientTransform="translate(5.41081 5.4108) rotate(85.3036) scale(10.3709)">
<stop stop-color="white"/>
<stop offset="1" stop-color="#FAFAFA"/>
</radialGradient>
<radialGradient id="paint35_radial_1361_13442" cx="0" cy="0" r="1" gradientUnits="userSpaceOnUse" gradientTransform="translate(5.41081 5.4108) rotate(85.3036) scale(10.3709)">
<stop stop-color="white"/>
<stop offset="1" stop-color="#FAFAFA"/>
</radialGradient>
<radialGradient id="paint36_radial_1361_13442" cx="0" cy="0" r="1" gradientUnits="userSpaceOnUse" gradientTransform="translate(5.41081 5.4108) rotate(85.3036) scale(10.3709)">
<stop stop-color="white"/>
<stop offset="1" stop-color="#FAFAFA"/>
</radialGradient>
<radialGradient id="paint37_radial_1361_13442" cx="0" cy="0" r="1" gradientUnits="userSpaceOnUse" gradientTransform="translate(5.41081 5.4108) rotate(85.3036) scale(10.3709)">
<stop stop-color="white"/>
<stop offset="1" stop-color="#FAFAFA"/>
</radialGradient>
<radialGradient id="paint38_radial_1361_13442" cx="0" cy="0" r="1" gradientUnits="userSpaceOnUse" gradientTransform="translate(5.41081 5.4108) rotate(85.3036) scale(10.3709)">
<stop stop-color="white"/>
<stop offset="1" stop-color="#FAFAFA"/>
</radialGradient>
<radialGradient id="paint39_radial_1361_13442" cx="0" cy="0" r="1" gradientUnits="userSpaceOnUse" gradientTransform="translate(5.41081 5.4108) rotate(85.3036) scale(10.3709)">
<stop stop-color="white"/>
<stop offset="1" stop-color="#FAFAFA"/>
</radialGradient>
<radialGradient id="paint40_radial_1361_13442" cx="0" cy="0" r="1" gradientUnits="userSpaceOnUse" gradientTransform="translate(5.41081 116.096) rotate(85.3036) scale(10.3709)">
<stop stop-color="white"/>
<stop offset="1" stop-color="#FAFAFA"/>
</radialGradient>
<radialGradient id="paint41_radial_1361_13442" cx="0" cy="0" r="1" gradientUnits="userSpaceOnUse" gradientTransform="translate(25.5651 116.096) rotate(85.3036) scale(10.3709)">
<stop stop-color="white"/>
<stop offset="1" stop-color="#FAFAFA"/>
</radialGradient>
<radialGradient id="paint42_radial_1361_13442" cx="0" cy="0" r="1" gradientUnits="userSpaceOnUse" gradientTransform="translate(45.7174 116.096) rotate(85.3036) scale(10.3709)">
<stop stop-color="white"/>
<stop offset="1" stop-color="#FAFAFA"/>
</radialGradient>
<radialGradient id="paint43_radial_1361_13442" cx="0" cy="0" r="1" gradientUnits="userSpaceOnUse" gradientTransform="translate(65.8698 116.096) rotate(85.3036) scale(10.3709)">
<stop stop-color="white"/>
<stop offset="1" stop-color="#FAFAFA"/>
</radialGradient>
<radialGradient id="paint44_radial_1361_13442" cx="0" cy="0" r="1" gradientUnits="userSpaceOnUse" gradientTransform="translate(86.026 116.096) rotate(85.3036) scale(10.3709)">
<stop stop-color="white"/>
<stop offset="1" stop-color="#FAFAFA"/>
</radialGradient>
<radialGradient id="paint45_radial_1361_13442" cx="0" cy="0" r="1" gradientUnits="userSpaceOnUse" gradientTransform="translate(106.177 116.096) rotate(85.3036) scale(10.3709)">
<stop stop-color="white"/>
<stop offset="1" stop-color="#FAFAFA"/>
</radialGradient>
<radialGradient id="paint46_radial_1361_13442" cx="0" cy="0" r="1" gradientUnits="userSpaceOnUse" gradientTransform="translate(126.331 116.096) rotate(85.3036) scale(10.3709)">
<stop stop-color="white"/>
<stop offset="1" stop-color="#FAFAFA"/>
</radialGradient>
<radialGradient id="paint47_radial_1361_13442" cx="0" cy="0" r="1" gradientUnits="userSpaceOnUse" gradientTransform="translate(146.483 116.096) rotate(85.3036) scale(10.3709)">
<stop stop-color="white"/>
<stop offset="1" stop-color="#FAFAFA"/>
</radialGradient>
</defs>
</svg>
