<svg width="18" height="19" viewBox="0 0 18 19" fill="none" xmlns="http://www.w3.org/2000/svg">
<path d="M13.1911 0.162598C16.2801 0.162598 18.0001 1.76592 18.0001 4.51319V13.8179C18.0001 16.6102 16.2801 18.1775 13.1911 18.1775H4.81012C1.77012 18.1775 0.00012207 16.6102 0.00012207 13.8179V4.51319C0.00012207 1.76592 1.77012 0.162598 4.81012 0.162598H13.1911ZM5.08012 12.5388C4.78012 12.5118 4.49012 12.6379 4.33012 12.8721C4.17012 13.0973 4.17012 13.3945 4.33012 13.6287C4.49012 13.8539 4.78012 13.989 5.08012 13.953H12.9201C13.3191 13.917 13.6201 13.6098 13.6201 13.2504C13.6201 12.8811 13.3191 12.5749 12.9201 12.5388H5.08012ZM12.9201 8.43053H5.08012C4.64912 8.43053 4.30012 8.74669 4.30012 9.13401C4.30012 9.52133 4.64912 9.83659 5.08012 9.83659H12.9201C13.3501 9.83659 13.7001 9.52133 13.7001 9.13401C13.7001 8.74669 13.3501 8.43053 12.9201 8.43053ZM8.06912 4.35106H5.08012V4.36007C4.64912 4.36007 4.30012 4.67533 4.30012 5.06265C4.30012 5.44997 4.64912 5.76523 5.08012 5.76523H8.06912C8.50012 5.76523 8.85012 5.44997 8.85012 5.05274C8.85012 4.66632 8.50012 4.35106 8.06912 4.35106Z" fill="#D2D2D2"/>
</svg>
