<svg width="14" height="17" viewBox="0 0 14 17" fill="none" xmlns="http://www.w3.org/2000/svg">
<path fill-rule="evenodd" clip-rule="evenodd" d="M7.45542 9.9908H8.86601C9.20031 9.9908 9.47754 9.72657 9.47754 9.39829C9.47754 9.062 9.20031 8.79777 8.86601 8.79777H7.45542V7.41258C7.45542 7.0843 7.18635 6.82007 6.85205 6.82007C6.51775 6.82007 6.24052 7.0843 6.24052 7.41258V8.79777H4.83809C4.50379 8.79777 4.22656 9.062 4.22656 9.39829C4.22656 9.72657 4.50379 9.9908 4.83809 9.9908H6.24052V11.376C6.24052 11.7043 6.51775 11.9685 6.85205 11.9685C7.18635 11.9685 7.45542 11.7043 7.45542 11.376V9.9908ZM13.0431 6.22526C13.2348 6.22311 13.4435 6.22077 13.6331 6.22077C13.8369 6.22077 14 6.3809 14 6.58107V13.0184C14 15.0041 12.3611 16.6134 10.3308 16.6134H3.84857C1.7286 16.6134 0 14.924 0 12.8423V4.2111C0 2.22545 1.64706 0.600098 3.67734 0.600098H8.03145C8.24345 0.600098 8.40652 0.768237 8.40652 0.968404V3.54655C8.40652 5.01176 9.63774 6.21276 11.1299 6.22077C11.4784 6.22077 11.7857 6.2233 12.0546 6.22552C12.2638 6.22724 12.4497 6.22877 12.6139 6.22877C12.7299 6.22877 12.8804 6.22709 13.0431 6.22526ZM13.267 5.05669C12.5968 5.05909 11.8067 5.05669 11.2384 5.05109C10.3366 5.05109 9.59375 4.32169 9.59375 3.43617V1.32566C9.59375 0.980577 10.0202 0.809237 10.264 1.05824C10.7047 1.50819 11.3101 2.12648 11.9129 2.74216C12.5158 3.35788 13.1162 3.971 13.5467 4.41056C13.7848 4.65316 13.6103 5.05589 13.267 5.05669Z" fill="#B3B4B5"/>
</svg>
