<svg width="207" height="138" viewBox="0 0 207 138" fill="none" xmlns="http://www.w3.org/2000/svg">
<rect x="-1" y="-9.83124" width="14.3808" height="14.3808" rx="2" transform="rotate(-45 -1 -9.83124)" fill="url(#paint0_radial_3864_4288)" fill-opacity="0.3"/>
<rect x="25.7832" y="-9.83124" width="14.3808" height="14.3808" rx="2" transform="rotate(-45 25.7832 -9.83124)" fill="url(#paint1_radial_3864_4288)" fill-opacity="0.3"/>
<rect x="52.5625" y="-9.83124" width="14.3808" height="14.3808" rx="2" transform="rotate(-45 52.5625 -9.83124)" fill="url(#paint2_radial_3864_4288)" fill-opacity="0.3"/>
<rect x="79.3438" y="-9.83124" width="14.3808" height="14.3808" rx="2" transform="rotate(-45 79.3438 -9.83124)" fill="url(#paint3_radial_3864_4288)" fill-opacity="0.3"/>
<rect x="106.129" y="-9.83124" width="14.3808" height="14.3808" rx="2" transform="rotate(-45 106.129 -9.83124)" fill="url(#paint4_radial_3864_4288)" fill-opacity="0.3"/>
<rect x="132.908" y="-9.83124" width="14.3808" height="14.3808" rx="2" transform="rotate(-45 132.908 -9.83124)" fill="url(#paint5_radial_3864_4288)" fill-opacity="0.3"/>
<rect x="159.689" y="-9.83124" width="14.3808" height="14.3808" rx="2" transform="rotate(-45 159.689 -9.83124)" fill="url(#paint6_radial_3864_4288)" fill-opacity="0.3"/>
<rect x="186.471" y="-9.83124" width="14.3808" height="14.3808" rx="2" transform="rotate(-45 186.471 -9.83124)" fill="url(#paint7_radial_3864_4288)" fill-opacity="0.3"/>
<rect x="-1" y="44.9368" width="14.3808" height="14.3808" rx="2" transform="rotate(-45 -1 44.9368)" fill="url(#paint8_radial_3864_4288)" fill-opacity="0.3"/>
<rect x="25.7832" y="44.9363" width="14.3808" height="14.3808" rx="2" transform="rotate(-45 25.7832 44.9363)" fill="url(#paint9_radial_3864_4288)" fill-opacity="0.3"/>
<rect x="52.5625" y="44.9363" width="14.3808" height="14.3808" rx="2" transform="rotate(-45 52.5625 44.9363)" fill="url(#paint10_radial_3864_4288)" fill-opacity="0.3"/>
<rect x="79.3438" y="44.9363" width="14.3808" height="14.3808" rx="2" transform="rotate(-45 79.3438 44.9363)" fill="url(#paint11_radial_3864_4288)" fill-opacity="0.3"/>
<rect x="106.129" y="44.9368" width="14.3808" height="14.3808" rx="2" transform="rotate(-45 106.129 44.9368)" fill="url(#paint12_radial_3864_4288)" fill-opacity="0.3"/>
<rect x="132.908" y="44.9363" width="14.3808" height="14.3808" rx="2" transform="rotate(-45 132.908 44.9363)" fill="url(#paint13_radial_3864_4288)" fill-opacity="0.3"/>
<rect x="159.689" y="44.9363" width="14.3808" height="14.3808" rx="2" transform="rotate(-45 159.689 44.9363)" fill="url(#paint14_radial_3864_4288)" fill-opacity="0.3"/>
<rect x="186.471" y="44.9363" width="14.3808" height="14.3808" rx="2" transform="rotate(-45 186.471 44.9363)" fill="url(#paint15_radial_3864_4288)" fill-opacity="0.3"/>
<rect x="-1" y="99.7048" width="14.3808" height="14.3808" rx="2" transform="rotate(-45 -1 99.7048)" fill="url(#paint16_radial_3864_4288)" fill-opacity="0.3"/>
<rect x="25.7832" y="99.7048" width="14.3808" height="14.3808" rx="2" transform="rotate(-45 25.7832 99.7048)" fill="url(#paint17_radial_3864_4288)" fill-opacity="0.3"/>
<rect x="52.5625" y="99.7048" width="14.3808" height="14.3808" rx="2" transform="rotate(-45 52.5625 99.7048)" fill="url(#paint18_radial_3864_4288)" fill-opacity="0.3"/>
<rect x="79.3438" y="99.7048" width="14.3808" height="14.3808" rx="2" transform="rotate(-45 79.3438 99.7048)" fill="url(#paint19_radial_3864_4288)" fill-opacity="0.3"/>
<rect x="106.129" y="99.7048" width="14.3808" height="14.3808" rx="2" transform="rotate(-45 106.129 99.7048)" fill="url(#paint20_radial_3864_4288)" fill-opacity="0.3"/>
<rect x="132.906" y="99.7048" width="14.3808" height="14.3808" rx="2" transform="rotate(-45 132.906 99.7048)" fill="url(#paint21_radial_3864_4288)" fill-opacity="0.3"/>
<rect x="159.689" y="99.7048" width="14.3808" height="14.3808" rx="2" transform="rotate(-45 159.689 99.7048)" fill="url(#paint22_radial_3864_4288)" fill-opacity="0.3"/>
<rect x="186.471" y="99.7048" width="14.3808" height="14.3808" rx="2" transform="rotate(-45 186.471 99.7048)" fill="url(#paint23_radial_3864_4288)" fill-opacity="0.3"/>
<rect x="-1" y="17.553" width="14.3808" height="14.3808" rx="2" transform="rotate(-45 -1 17.553)" fill="url(#paint24_radial_3864_4288)" fill-opacity="0.3"/>
<rect x="25.7832" y="17.5526" width="14.3808" height="14.3808" rx="2" transform="rotate(-45 25.7832 17.5526)" fill="url(#paint25_radial_3864_4288)" fill-opacity="0.3"/>
<rect x="52.5625" y="17.5526" width="14.3808" height="14.3808" rx="2" transform="rotate(-45 52.5625 17.5526)" fill="url(#paint26_radial_3864_4288)" fill-opacity="0.3"/>
<rect x="79.3438" y="17.5526" width="14.3808" height="14.3808" rx="2" transform="rotate(-45 79.3438 17.5526)" fill="url(#paint27_radial_3864_4288)" fill-opacity="0.3"/>
<rect x="106.129" y="17.553" width="14.3808" height="14.3808" rx="2" transform="rotate(-45 106.129 17.553)" fill="url(#paint28_radial_3864_4288)" fill-opacity="0.3"/>
<rect x="132.906" y="17.5526" width="14.3808" height="14.3808" rx="2" transform="rotate(-45 132.906 17.5526)" fill="url(#paint29_radial_3864_4288)" fill-opacity="0.3"/>
<rect x="159.689" y="17.553" width="14.3808" height="14.3808" rx="2" transform="rotate(-45 159.689 17.553)" fill="url(#paint30_radial_3864_4288)" fill-opacity="0.3"/>
<rect x="186.471" y="17.5526" width="14.3808" height="14.3808" rx="2" transform="rotate(-45 186.471 17.5526)" fill="url(#paint31_radial_3864_4288)" fill-opacity="0.3"/>
<rect width="14.3808" height="14.3808" rx="2" transform="matrix(0.707105 -0.707108 0.707105 0.707108 -1 72.3212)" fill="url(#paint32_radial_3864_4288)" fill-opacity="0.3"/>
<rect width="14.3808" height="14.3808" rx="2" transform="matrix(0.707105 -0.707108 0.707105 0.707108 25.7832 72.3212)" fill="url(#paint33_radial_3864_4288)" fill-opacity="0.3"/>
<rect width="14.3808" height="14.3808" rx="2" transform="matrix(0.707105 -0.707108 0.707105 0.707108 52.5625 72.3212)" fill="url(#paint34_radial_3864_4288)" fill-opacity="0.3"/>
<rect width="14.3808" height="14.3808" rx="2" transform="matrix(0.707105 -0.707108 0.707105 0.707108 79.3438 72.3212)" fill="url(#paint35_radial_3864_4288)" fill-opacity="0.3"/>
<rect width="14.3808" height="14.3808" rx="2" transform="matrix(0.707105 -0.707108 0.707105 0.707108 106.129 72.3212)" fill="url(#paint36_radial_3864_4288)" fill-opacity="0.3"/>
<rect width="14.3808" height="14.3808" rx="2" transform="matrix(0.707105 -0.707108 0.707105 0.707108 132.906 72.3212)" fill="url(#paint37_radial_3864_4288)" fill-opacity="0.3"/>
<rect width="14.3808" height="14.3808" rx="2" transform="matrix(0.707105 -0.707108 0.707105 0.707108 159.689 72.3212)" fill="url(#paint38_radial_3864_4288)" fill-opacity="0.3"/>
<rect width="14.3808" height="14.3808" rx="2" transform="matrix(0.707105 -0.707108 0.707105 0.707108 186.471 72.3212)" fill="url(#paint39_radial_3864_4288)" fill-opacity="0.3"/>
<rect x="-1" y="127.089" width="14.3808" height="14.3808" rx="2" transform="rotate(-45 -1 127.089)" fill="url(#paint40_radial_3864_4288)" fill-opacity="0.3"/>
<rect x="25.7832" y="127.089" width="14.3808" height="14.3808" rx="2" transform="rotate(-45 25.7832 127.089)" fill="url(#paint41_radial_3864_4288)" fill-opacity="0.3"/>
<rect x="52.5625" y="127.089" width="14.3808" height="14.3808" rx="2" transform="rotate(-45 52.5625 127.089)" fill="url(#paint42_radial_3864_4288)" fill-opacity="0.3"/>
<rect x="79.3438" y="127.089" width="14.3808" height="14.3808" rx="2" transform="rotate(-45 79.3438 127.089)" fill="url(#paint43_radial_3864_4288)" fill-opacity="0.3"/>
<rect x="106.129" y="127.089" width="14.3808" height="14.3808" rx="2" transform="rotate(-45 106.129 127.089)" fill="url(#paint44_radial_3864_4288)" fill-opacity="0.3"/>
<rect x="132.908" y="127.089" width="14.3808" height="14.3808" rx="2" transform="rotate(-45 132.908 127.089)" fill="url(#paint45_radial_3864_4288)" fill-opacity="0.3"/>
<rect x="159.689" y="127.089" width="14.3808" height="14.3808" rx="2" transform="rotate(-45 159.689 127.089)" fill="url(#paint46_radial_3864_4288)" fill-opacity="0.3"/>
<rect x="186.471" y="127.089" width="14.3808" height="14.3808" rx="2" transform="rotate(-45 186.471 127.089)" fill="url(#paint47_radial_3864_4288)" fill-opacity="0.3"/>
<defs>
<radialGradient id="paint0_radial_3864_4288" cx="0" cy="0" r="1" gradientUnits="userSpaceOnUse" gradientTransform="translate(6.1904 -2.64084) rotate(85.3036) scale(13.7819)">
<stop stop-color="#D2D2D2"/>
<stop offset="1" stop-color="#FAFAFA"/>
</radialGradient>
<radialGradient id="paint1_radial_3864_4288" cx="0" cy="0" r="1" gradientUnits="userSpaceOnUse" gradientTransform="translate(32.9736 -2.64084) rotate(85.3036) scale(13.7819)">
<stop stop-color="#D2D2D2"/>
<stop offset="1" stop-color="#FAFAFA"/>
</radialGradient>
<radialGradient id="paint2_radial_3864_4288" cx="0" cy="0" r="1" gradientUnits="userSpaceOnUse" gradientTransform="translate(59.7529 -2.64084) rotate(85.3036) scale(13.7819)">
<stop stop-color="#D2D2D2"/>
<stop offset="1" stop-color="#FAFAFA"/>
</radialGradient>
<radialGradient id="paint3_radial_3864_4288" cx="0" cy="0" r="1" gradientUnits="userSpaceOnUse" gradientTransform="translate(86.5341 -2.64084) rotate(85.3036) scale(13.7819)">
<stop stop-color="#D2D2D2"/>
<stop offset="1" stop-color="#FAFAFA"/>
</radialGradient>
<radialGradient id="paint4_radial_3864_4288" cx="0" cy="0" r="1" gradientUnits="userSpaceOnUse" gradientTransform="translate(113.319 -2.64084) rotate(85.3036) scale(13.7819)">
<stop stop-color="#D2D2D2"/>
<stop offset="1" stop-color="#FAFAFA"/>
</radialGradient>
<radialGradient id="paint5_radial_3864_4288" cx="0" cy="0" r="1" gradientUnits="userSpaceOnUse" gradientTransform="translate(140.099 -2.64084) rotate(85.3036) scale(13.7819)">
<stop stop-color="#D2D2D2"/>
<stop offset="1" stop-color="#FAFAFA"/>
</radialGradient>
<radialGradient id="paint6_radial_3864_4288" cx="0" cy="0" r="1" gradientUnits="userSpaceOnUse" gradientTransform="translate(166.88 -2.64084) rotate(85.3036) scale(13.7819)">
<stop stop-color="#D2D2D2"/>
<stop offset="1" stop-color="#FAFAFA"/>
</radialGradient>
<radialGradient id="paint7_radial_3864_4288" cx="0" cy="0" r="1" gradientUnits="userSpaceOnUse" gradientTransform="translate(193.661 -2.64084) rotate(85.3036) scale(13.7819)">
<stop stop-color="#D2D2D2"/>
<stop offset="1" stop-color="#FAFAFA"/>
</radialGradient>
<radialGradient id="paint8_radial_3864_4288" cx="0" cy="0" r="1" gradientUnits="userSpaceOnUse" gradientTransform="translate(6.1904 52.1272) rotate(85.3036) scale(13.7819)">
<stop stop-color="#D2D2D2"/>
<stop offset="1" stop-color="#FAFAFA"/>
</radialGradient>
<radialGradient id="paint9_radial_3864_4288" cx="0" cy="0" r="1" gradientUnits="userSpaceOnUse" gradientTransform="translate(32.9736 52.1267) rotate(85.3036) scale(13.7819)">
<stop stop-color="#D2D2D2"/>
<stop offset="1" stop-color="#FAFAFA"/>
</radialGradient>
<radialGradient id="paint10_radial_3864_4288" cx="0" cy="0" r="1" gradientUnits="userSpaceOnUse" gradientTransform="translate(59.7529 52.1267) rotate(85.3036) scale(13.7819)">
<stop stop-color="#D2D2D2"/>
<stop offset="1" stop-color="#FAFAFA"/>
</radialGradient>
<radialGradient id="paint11_radial_3864_4288" cx="0" cy="0" r="1" gradientUnits="userSpaceOnUse" gradientTransform="translate(86.5341 52.1267) rotate(85.3036) scale(13.7819)">
<stop stop-color="#D2D2D2"/>
<stop offset="1" stop-color="#FAFAFA"/>
</radialGradient>
<radialGradient id="paint12_radial_3864_4288" cx="0" cy="0" r="1" gradientUnits="userSpaceOnUse" gradientTransform="translate(113.319 52.1272) rotate(85.3036) scale(13.7819)">
<stop stop-color="#D2D2D2"/>
<stop offset="1" stop-color="#FAFAFA"/>
</radialGradient>
<radialGradient id="paint13_radial_3864_4288" cx="0" cy="0" r="1" gradientUnits="userSpaceOnUse" gradientTransform="translate(140.099 52.1267) rotate(85.3036) scale(13.7819)">
<stop stop-color="#D2D2D2"/>
<stop offset="1" stop-color="#FAFAFA"/>
</radialGradient>
<radialGradient id="paint14_radial_3864_4288" cx="0" cy="0" r="1" gradientUnits="userSpaceOnUse" gradientTransform="translate(166.88 52.1267) rotate(85.3036) scale(13.7819)">
<stop stop-color="#D2D2D2"/>
<stop offset="1" stop-color="#FAFAFA"/>
</radialGradient>
<radialGradient id="paint15_radial_3864_4288" cx="0" cy="0" r="1" gradientUnits="userSpaceOnUse" gradientTransform="translate(193.661 52.1267) rotate(85.3036) scale(13.7819)">
<stop stop-color="#D2D2D2"/>
<stop offset="1" stop-color="#FAFAFA"/>
</radialGradient>
<radialGradient id="paint16_radial_3864_4288" cx="0" cy="0" r="1" gradientUnits="userSpaceOnUse" gradientTransform="translate(6.1904 106.895) rotate(85.3036) scale(13.7819)">
<stop stop-color="#D2D2D2"/>
<stop offset="1" stop-color="#FAFAFA"/>
</radialGradient>
<radialGradient id="paint17_radial_3864_4288" cx="0" cy="0" r="1" gradientUnits="userSpaceOnUse" gradientTransform="translate(32.9736 106.895) rotate(85.3036) scale(13.7819)">
<stop stop-color="#D2D2D2"/>
<stop offset="1" stop-color="#FAFAFA"/>
</radialGradient>
<radialGradient id="paint18_radial_3864_4288" cx="0" cy="0" r="1" gradientUnits="userSpaceOnUse" gradientTransform="translate(59.7529 106.895) rotate(85.3036) scale(13.7819)">
<stop stop-color="#D2D2D2"/>
<stop offset="1" stop-color="#FAFAFA"/>
</radialGradient>
<radialGradient id="paint19_radial_3864_4288" cx="0" cy="0" r="1" gradientUnits="userSpaceOnUse" gradientTransform="translate(86.5341 106.895) rotate(85.3036) scale(13.7819)">
<stop stop-color="#D2D2D2"/>
<stop offset="1" stop-color="#FAFAFA"/>
</radialGradient>
<radialGradient id="paint20_radial_3864_4288" cx="0" cy="0" r="1" gradientUnits="userSpaceOnUse" gradientTransform="translate(113.319 106.895) rotate(85.3036) scale(13.7819)">
<stop stop-color="#D2D2D2"/>
<stop offset="1" stop-color="#FAFAFA"/>
</radialGradient>
<radialGradient id="paint21_radial_3864_4288" cx="0" cy="0" r="1" gradientUnits="userSpaceOnUse" gradientTransform="translate(140.097 106.895) rotate(85.3036) scale(13.7819)">
<stop stop-color="#D2D2D2"/>
<stop offset="1" stop-color="#FAFAFA"/>
</radialGradient>
<radialGradient id="paint22_radial_3864_4288" cx="0" cy="0" r="1" gradientUnits="userSpaceOnUse" gradientTransform="translate(166.88 106.895) rotate(85.3036) scale(13.7819)">
<stop stop-color="#D2D2D2"/>
<stop offset="1" stop-color="#FAFAFA"/>
</radialGradient>
<radialGradient id="paint23_radial_3864_4288" cx="0" cy="0" r="1" gradientUnits="userSpaceOnUse" gradientTransform="translate(193.661 106.895) rotate(85.3036) scale(13.7819)">
<stop stop-color="#D2D2D2"/>
<stop offset="1" stop-color="#FAFAFA"/>
</radialGradient>
<radialGradient id="paint24_radial_3864_4288" cx="0" cy="0" r="1" gradientUnits="userSpaceOnUse" gradientTransform="translate(6.1904 24.7434) rotate(85.3036) scale(13.7819)">
<stop stop-color="#D2D2D2"/>
<stop offset="1" stop-color="#FAFAFA"/>
</radialGradient>
<radialGradient id="paint25_radial_3864_4288" cx="0" cy="0" r="1" gradientUnits="userSpaceOnUse" gradientTransform="translate(32.9736 24.7429) rotate(85.3036) scale(13.7819)">
<stop stop-color="#D2D2D2"/>
<stop offset="1" stop-color="#FAFAFA"/>
</radialGradient>
<radialGradient id="paint26_radial_3864_4288" cx="0" cy="0" r="1" gradientUnits="userSpaceOnUse" gradientTransform="translate(59.7529 24.7429) rotate(85.3036) scale(13.7819)">
<stop stop-color="#D2D2D2"/>
<stop offset="1" stop-color="#FAFAFA"/>
</radialGradient>
<radialGradient id="paint27_radial_3864_4288" cx="0" cy="0" r="1" gradientUnits="userSpaceOnUse" gradientTransform="translate(86.5341 24.7429) rotate(85.3036) scale(13.7819)">
<stop stop-color="#D2D2D2"/>
<stop offset="1" stop-color="#FAFAFA"/>
</radialGradient>
<radialGradient id="paint28_radial_3864_4288" cx="0" cy="0" r="1" gradientUnits="userSpaceOnUse" gradientTransform="translate(113.319 24.7434) rotate(85.3036) scale(13.7819)">
<stop stop-color="#D2D2D2"/>
<stop offset="1" stop-color="#FAFAFA"/>
</radialGradient>
<radialGradient id="paint29_radial_3864_4288" cx="0" cy="0" r="1" gradientUnits="userSpaceOnUse" gradientTransform="translate(140.097 24.7429) rotate(85.3036) scale(13.7819)">
<stop stop-color="#D2D2D2"/>
<stop offset="1" stop-color="#FAFAFA"/>
</radialGradient>
<radialGradient id="paint30_radial_3864_4288" cx="0" cy="0" r="1" gradientUnits="userSpaceOnUse" gradientTransform="translate(166.88 24.7434) rotate(85.3036) scale(13.7819)">
<stop stop-color="#D2D2D2"/>
<stop offset="1" stop-color="#FAFAFA"/>
</radialGradient>
<radialGradient id="paint31_radial_3864_4288" cx="0" cy="0" r="1" gradientUnits="userSpaceOnUse" gradientTransform="translate(193.661 24.7429) rotate(85.3036) scale(13.7819)">
<stop stop-color="#D2D2D2"/>
<stop offset="1" stop-color="#FAFAFA"/>
</radialGradient>
<radialGradient id="paint32_radial_3864_4288" cx="0" cy="0" r="1" gradientUnits="userSpaceOnUse" gradientTransform="translate(7.1904 7.1904) rotate(85.3036) scale(13.7819)">
<stop stop-color="#D2D2D2"/>
<stop offset="1" stop-color="#FAFAFA"/>
</radialGradient>
<radialGradient id="paint33_radial_3864_4288" cx="0" cy="0" r="1" gradientUnits="userSpaceOnUse" gradientTransform="translate(7.1904 7.1904) rotate(85.3036) scale(13.7819)">
<stop stop-color="#D2D2D2"/>
<stop offset="1" stop-color="#FAFAFA"/>
</radialGradient>
<radialGradient id="paint34_radial_3864_4288" cx="0" cy="0" r="1" gradientUnits="userSpaceOnUse" gradientTransform="translate(7.1904 7.1904) rotate(85.3036) scale(13.7819)">
<stop stop-color="#D2D2D2"/>
<stop offset="1" stop-color="#FAFAFA"/>
</radialGradient>
<radialGradient id="paint35_radial_3864_4288" cx="0" cy="0" r="1" gradientUnits="userSpaceOnUse" gradientTransform="translate(7.1904 7.1904) rotate(85.3036) scale(13.7819)">
<stop stop-color="#D2D2D2"/>
<stop offset="1" stop-color="#FAFAFA"/>
</radialGradient>
<radialGradient id="paint36_radial_3864_4288" cx="0" cy="0" r="1" gradientUnits="userSpaceOnUse" gradientTransform="translate(7.1904 7.1904) rotate(85.3036) scale(13.7819)">
<stop stop-color="#D2D2D2"/>
<stop offset="1" stop-color="#FAFAFA"/>
</radialGradient>
<radialGradient id="paint37_radial_3864_4288" cx="0" cy="0" r="1" gradientUnits="userSpaceOnUse" gradientTransform="translate(7.1904 7.1904) rotate(85.3036) scale(13.7819)">
<stop stop-color="#D2D2D2"/>
<stop offset="1" stop-color="#FAFAFA"/>
</radialGradient>
<radialGradient id="paint38_radial_3864_4288" cx="0" cy="0" r="1" gradientUnits="userSpaceOnUse" gradientTransform="translate(7.1904 7.1904) rotate(85.3036) scale(13.7819)">
<stop stop-color="#D2D2D2"/>
<stop offset="1" stop-color="#FAFAFA"/>
</radialGradient>
<radialGradient id="paint39_radial_3864_4288" cx="0" cy="0" r="1" gradientUnits="userSpaceOnUse" gradientTransform="translate(7.1904 7.1904) rotate(85.3036) scale(13.7819)">
<stop stop-color="#D2D2D2"/>
<stop offset="1" stop-color="#FAFAFA"/>
</radialGradient>
<radialGradient id="paint40_radial_3864_4288" cx="0" cy="0" r="1" gradientUnits="userSpaceOnUse" gradientTransform="translate(6.1904 134.28) rotate(85.3036) scale(13.7819)">
<stop stop-color="#D2D2D2"/>
<stop offset="1" stop-color="#FAFAFA"/>
</radialGradient>
<radialGradient id="paint41_radial_3864_4288" cx="0" cy="0" r="1" gradientUnits="userSpaceOnUse" gradientTransform="translate(32.9736 134.279) rotate(85.3036) scale(13.7819)">
<stop stop-color="#D2D2D2"/>
<stop offset="1" stop-color="#FAFAFA"/>
</radialGradient>
<radialGradient id="paint42_radial_3864_4288" cx="0" cy="0" r="1" gradientUnits="userSpaceOnUse" gradientTransform="translate(59.7529 134.279) rotate(85.3036) scale(13.7819)">
<stop stop-color="#D2D2D2"/>
<stop offset="1" stop-color="#FAFAFA"/>
</radialGradient>
<radialGradient id="paint43_radial_3864_4288" cx="0" cy="0" r="1" gradientUnits="userSpaceOnUse" gradientTransform="translate(86.5341 134.279) rotate(85.3036) scale(13.7819)">
<stop stop-color="#D2D2D2"/>
<stop offset="1" stop-color="#FAFAFA"/>
</radialGradient>
<radialGradient id="paint44_radial_3864_4288" cx="0" cy="0" r="1" gradientUnits="userSpaceOnUse" gradientTransform="translate(113.319 134.28) rotate(85.3036) scale(13.7819)">
<stop stop-color="#D2D2D2"/>
<stop offset="1" stop-color="#FAFAFA"/>
</radialGradient>
<radialGradient id="paint45_radial_3864_4288" cx="0" cy="0" r="1" gradientUnits="userSpaceOnUse" gradientTransform="translate(140.099 134.279) rotate(85.3036) scale(13.7819)">
<stop stop-color="#D2D2D2"/>
<stop offset="1" stop-color="#FAFAFA"/>
</radialGradient>
<radialGradient id="paint46_radial_3864_4288" cx="0" cy="0" r="1" gradientUnits="userSpaceOnUse" gradientTransform="translate(166.88 134.279) rotate(85.3036) scale(13.7819)">
<stop stop-color="#D2D2D2"/>
<stop offset="1" stop-color="#FAFAFA"/>
</radialGradient>
<radialGradient id="paint47_radial_3864_4288" cx="0" cy="0" r="1" gradientUnits="userSpaceOnUse" gradientTransform="translate(193.661 134.279) rotate(85.3036) scale(13.7819)">
<stop stop-color="#D2D2D2"/>
<stop offset="1" stop-color="#FAFAFA"/>
</radialGradient>
</defs>
</svg>
