<svg width="85" height="88" viewBox="0 0 85 88" fill="none" xmlns="http://www.w3.org/2000/svg">
<path d="M56.1831 62.0875C57.9312 63.4122 60.4221 63.069 61.7468 61.3209C63.0715 59.5729 62.7283 57.082 60.9803 55.7574C59.2322 54.4327 56.7413 54.7759 55.4166 56.5239C54.0919 58.272 54.4351 60.7628 56.1831 62.0875Z" fill="#8E4DD5"/>
<path d="M68.6373 37.2909L65.1942 31.3141L58.509 29.6156L64.4858 26.1725L66.1843 19.4873L69.6277 25.4637L76.3126 27.1626L70.3358 30.6057L68.6373 37.2909Z" fill="#FFCC00"/>
<path d="M10.6226 61.9618L7.17934 55.9853L0.494361 54.2865L6.47122 50.8432L8.16968 44.1582L11.613 50.1347L18.2979 51.8335L12.3216 55.2767L10.6226 61.9618Z" fill="#00A98F"/>
</svg>
