<svg width="81" height="76" viewBox="0 0 81 76" fill="none" xmlns="http://www.w3.org/2000/svg">
<path d="M25.2484 54.5654C23.2226 53.3761 20.6163 54.0542 19.4271 56.08C18.2378 58.1058 18.916 60.7121 20.9417 61.9014C22.9675 63.0906 25.5738 62.4125 26.7631 60.3867C27.9523 58.3609 27.2742 55.7546 25.2484 54.5654Z" fill="#3897FF"/>
<path d="M73.2179 31.9998L73.6366 39.3755L79.2162 44.2175L71.8404 44.6363L66.9984 50.2158L66.5793 42.8403L61.0001 37.9981L68.3758 37.5793L73.2179 31.9998Z" fill="#FFCC00"/>
<path d="M29.8897 14.9884L34.3034 20.9125L41.6274 21.8791L35.7029 26.2928L34.7367 33.6167L30.323 27.6927L22.9991 26.726L28.9229 22.3125L29.8897 14.9884Z" fill="#8E4DD5"/>
</svg>
