<svg width="73" height="69" viewBox="0 0 73 69" fill="none" xmlns="http://www.w3.org/2000/svg">
<path d="M27.0952 20.3484C24.9581 19.3733 22.4352 20.3155 21.4601 22.4526C20.4851 24.5898 21.4272 27.1127 23.5644 28.0877C25.7016 29.0627 28.2245 28.1206 29.1995 25.9834C30.1745 23.8463 29.2324 21.3234 27.0952 20.3484Z" fill="#3897FF"/>
<path d="M27.9592 49.124L29.1329 56.4177L35.18 60.6614L27.8863 61.8351L23.6426 67.8822L22.4685 60.5887L16.4218 56.3448L23.7155 55.1711L27.9592 49.124Z" fill="#FFCC00"/>
<path d="M53.3991 17.8068L58.3975 23.2465L65.782 23.4562L60.342 28.4547L60.1327 35.8391L55.1342 30.3995L47.7497 30.1898L53.1892 25.1915L53.3991 17.8068Z" fill="#00A98F"/>
</svg>
