<svg width="89" height="63" viewBox="0 0 89 63" fill="none" xmlns="http://www.w3.org/2000/svg">
<path d="M84.0981 21.0136C86.1552 20.2528 87.2059 17.9684 86.4451 15.9113C85.6842 13.8543 83.3998 12.8035 81.3428 13.5644C79.2857 14.3252 78.235 16.6096 78.9958 18.6667C79.7567 20.7237 82.041 21.7745 84.0981 21.0136Z" fill="#3897FF"/>
<path d="M8.26814 24.1588C9.42682 23.7302 10.0187 22.4435 9.59012 21.2848C9.16155 20.1261 7.87482 19.5342 6.71614 19.9628C5.55746 20.3914 4.96559 21.6781 5.39416 22.8368C5.82274 23.9955 7.10946 24.5873 8.26814 24.1588Z" fill="#00A98F"/>
<path d="M50.9933 24.4505L45.4157 20.3927L38.618 21.5622L42.6758 15.9845L41.5063 9.1868L47.0841 13.2443L53.8817 12.0752L49.8238 17.6528L50.9933 24.4505Z" fill="#FFCC00"/>
<path d="M46.9455 51.1055L40.0551 50.7928L35.0267 55.514L35.3396 48.6234L30.6182 43.5952L37.5085 43.908L42.5369 39.1867L42.2243 46.0769L46.9455 51.1055Z" fill="#8E4DD5"/>
</svg>
