<svg width="722" height="316" viewBox="0 0 722 316" fill="none" xmlns="http://www.w3.org/2000/svg">
<rect width="3" height="3" rx="1" transform="matrix(0.895337 0.445389 -0.446684 0.894692 290.549 137.382)" fill="url(#paint0_radial_3029_13669)"/>
<rect width="3" height="3" rx="1" transform="matrix(0.895337 0.445389 -0.446684 0.894692 295.34 144)" fill="url(#paint1_radial_3029_13669)"/>
<rect width="3" height="3" rx="1" transform="matrix(0.895337 0.445389 -0.446684 0.894692 285.775 129.81)" fill="url(#paint2_radial_3029_13669)"/>
<rect width="3" height="3" rx="1" transform="matrix(0.895337 0.445389 -0.446684 0.894692 280.843 122.344)" fill="url(#paint3_radial_3029_13669)"/>
<rect width="3" height="3" rx="1" transform="matrix(0.895337 0.445389 -0.446684 0.894692 275.705 115.026)" fill="url(#paint4_radial_3029_13669)"/>
<rect width="3" height="3" rx="1" transform="matrix(0.895337 0.445389 -0.446684 0.894692 270.293 107.918)" fill="url(#paint5_radial_3029_13669)"/>
<rect width="3" height="3" rx="1" transform="matrix(0.895337 0.445389 -0.446684 0.894692 264.509 101.128)" fill="url(#paint6_radial_3029_13669)"/>
<rect width="3" height="3" rx="1" transform="matrix(0.895337 0.445389 -0.446684 0.894692 258.207 94.8579)" fill="url(#paint7_radial_3029_13669)"/>
<rect width="3" height="3" rx="1" transform="matrix(0.895337 0.445389 -0.446684 0.894692 251.173 89.5352)" fill="url(#paint8_radial_3029_13669)"/>
<rect width="3" height="3" rx="1" transform="matrix(0.895337 0.445389 -0.446684 0.894692 243.011 86.0928)" fill="url(#paint9_radial_3029_13669)"/>
<rect width="3" height="3" rx="1" transform="matrix(0.895337 0.445389 -0.446684 0.894692 234.085 86.6133)" fill="url(#paint10_radial_3029_13669)"/>
<rect width="3" height="3" rx="1" transform="matrix(0.895337 0.445389 -0.446684 0.894692 226.753 91.3726)" fill="url(#paint11_radial_3029_13669)"/>
<rect width="3" height="3" rx="1" transform="matrix(0.895337 0.445389 -0.446684 0.894692 221.285 98.1709)" fill="url(#paint12_radial_3029_13669)"/>
<rect width="3" height="3" rx="1" transform="matrix(0.895337 0.445389 -0.446684 0.894692 217.34 104)" fill="url(#paint13_radial_3029_13669)"/>
<rect width="3" height="3" rx="1" transform="matrix(0.895337 0.445389 -0.446684 0.894692 213.521 110.51)" fill="url(#paint14_radial_3029_13669)"/>
<rect width="3" height="3" rx="1" transform="matrix(0.895337 0.445389 -0.446684 0.894692 207.598 117.18)" fill="url(#paint15_radial_3029_13669)"/>
<rect width="3" height="3" rx="1" transform="matrix(0.895337 0.445389 -0.446684 0.894692 200.559 122.691)" fill="url(#paint16_radial_3029_13669)"/>
<rect width="3" height="3" rx="1" transform="matrix(0.895337 0.445389 -0.446684 0.894692 192.52 126.643)" fill="url(#paint17_radial_3029_13669)"/>
<rect width="3" height="3" rx="1" transform="matrix(0.895337 0.445389 -0.446684 0.894692 183.828 128.81)" fill="url(#paint18_radial_3029_13669)"/>
<rect width="3" height="3" rx="1" transform="matrix(0.895337 0.445389 -0.446684 0.894692 174.889 129.281)" fill="url(#paint19_radial_3029_13669)"/>
<rect width="3" height="3" rx="1" transform="matrix(0.895337 0.445389 -0.446684 0.894692 165.992 128.337)" fill="url(#paint20_radial_3029_13669)"/>
<rect width="3" height="3" rx="1" transform="matrix(0.895337 0.445389 -0.446684 0.894692 157.282 126.29)" fill="url(#paint21_radial_3029_13669)"/>
<rect width="3" height="3" rx="1" transform="matrix(0.895337 0.445389 -0.446684 0.894692 148.813 123.397)" fill="url(#paint22_radial_3029_13669)"/>
<rect width="3" height="3" rx="1" transform="matrix(0.895337 0.445389 -0.446684 0.894692 140.594 119.853)" fill="url(#paint23_radial_3029_13669)"/>
<rect width="3" height="3" rx="1" transform="matrix(0.895337 0.445389 -0.446684 0.894692 132.61 115.799)" fill="url(#paint24_radial_3029_13669)"/>
<rect width="3" height="3" rx="1" transform="matrix(0.895337 0.445389 -0.446684 0.894692 124.845 111.338)" fill="url(#paint25_radial_3029_13669)"/>
<rect width="3" height="3" rx="1" transform="matrix(0.895337 0.445389 -0.446684 0.894692 117.279 106.545)" fill="url(#paint26_radial_3029_13669)"/>
<rect width="3" height="3" rx="1" transform="matrix(0.895337 0.445389 -0.446684 0.894692 109.892 101.478)" fill="url(#paint27_radial_3029_13669)"/>
<rect width="3" height="3" rx="1" transform="matrix(0.895337 0.445389 -0.446684 0.894692 102.669 96.1787)" fill="url(#paint28_radial_3029_13669)"/>
<rect width="3" height="3" rx="1" transform="matrix(0.895337 0.445389 -0.446684 0.894692 95.5947 90.6816)" fill="url(#paint29_radial_3029_13669)"/>
<rect width="3" height="3" rx="1" transform="matrix(0.895337 0.445389 -0.446684 0.894692 88.6566 85.0137)" fill="url(#paint30_radial_3029_13669)"/>
<rect width="3" height="3" rx="1" transform="matrix(0.895337 0.445389 -0.446684 0.894692 81.8438 79.1953)" fill="url(#paint31_radial_3029_13669)"/>
<rect width="3" height="3" rx="1" transform="matrix(0.895337 0.445389 -0.446684 0.894692 75.142 73.2393)" fill="url(#paint32_radial_3029_13669)"/>
<rect width="3" height="3" rx="1" transform="matrix(0.895337 0.445389 -0.446684 0.894692 68.4703 67.0913)" fill="url(#paint33_radial_3029_13669)"/>
<rect width="3" height="3" rx="1" transform="matrix(0.895337 0.445389 -0.446684 0.894692 62.1803 61.1025)" fill="url(#paint34_radial_3029_13669)"/>
<rect width="3" height="3" rx="1" transform="matrix(0.895337 0.445389 -0.446684 0.894692 41.3402 41)" fill="url(#paint35_radial_3029_13669)"/>
<rect width="3" height="3" rx="1" transform="matrix(0.895337 0.445389 -0.446684 0.894692 48.3402 48)" fill="url(#paint36_radial_3029_13669)"/>
<rect width="3" height="3" rx="1" transform="matrix(0.895337 0.445389 -0.446684 0.894692 34.3402 34)" fill="url(#paint37_radial_3029_13669)"/>
<rect width="3" height="3" rx="1" transform="matrix(0.895337 0.445389 -0.446684 0.894692 28.3402 27)" fill="url(#paint38_radial_3029_13669)"/>
<rect width="3" height="3" rx="1" transform="matrix(0.895337 0.445389 -0.446684 0.894692 22.3402 20)" fill="url(#paint39_radial_3029_13669)"/>
<rect width="3" height="3" rx="1" transform="matrix(0.895337 0.445389 -0.446684 0.894692 16.3402 13)" fill="url(#paint40_radial_3029_13669)"/>
<rect width="3" height="3" rx="1" transform="matrix(0.895337 0.445389 -0.446684 0.894692 55.7332 54.7754)" fill="url(#paint41_radial_3029_13669)"/>
<rect width="3" height="3" rx="1" transform="matrix(0.895337 0.445389 -0.446684 0.894692 9.34021 7)" fill="url(#paint42_radial_3029_13669)"/>
<rect width="3" height="3" rx="1" transform="matrix(0.895337 0.445389 -0.446684 0.894692 1.34009 2)" fill="url(#paint43_radial_3029_13669)"/>
<defs>
<radialGradient id="paint0_radial_3029_13669" cx="0" cy="0" r="1" gradientUnits="userSpaceOnUse" gradientTransform="translate(1.5 1.5) rotate(85.3036) scale(2.87506)">
<stop stop-color="white"/>
<stop offset="1" stop-color="#FAFAFA"/>
</radialGradient>
<radialGradient id="paint1_radial_3029_13669" cx="0" cy="0" r="1" gradientUnits="userSpaceOnUse" gradientTransform="translate(1.5 1.5) rotate(85.3036) scale(2.87506)">
<stop stop-color="white"/>
<stop offset="1" stop-color="#FAFAFA"/>
</radialGradient>
<radialGradient id="paint2_radial_3029_13669" cx="0" cy="0" r="1" gradientUnits="userSpaceOnUse" gradientTransform="translate(1.5 1.5) rotate(85.3036) scale(2.87506)">
<stop stop-color="white"/>
<stop offset="1" stop-color="#FAFAFA"/>
</radialGradient>
<radialGradient id="paint3_radial_3029_13669" cx="0" cy="0" r="1" gradientUnits="userSpaceOnUse" gradientTransform="translate(1.5 1.5) rotate(85.3036) scale(2.87506)">
<stop stop-color="white"/>
<stop offset="1" stop-color="#FAFAFA"/>
</radialGradient>
<radialGradient id="paint4_radial_3029_13669" cx="0" cy="0" r="1" gradientUnits="userSpaceOnUse" gradientTransform="translate(1.5 1.5) rotate(85.3036) scale(2.87506)">
<stop stop-color="white"/>
<stop offset="1" stop-color="#FAFAFA"/>
</radialGradient>
<radialGradient id="paint5_radial_3029_13669" cx="0" cy="0" r="1" gradientUnits="userSpaceOnUse" gradientTransform="translate(1.5 1.5) rotate(85.3036) scale(2.87506)">
<stop stop-color="white"/>
<stop offset="1" stop-color="#FAFAFA"/>
</radialGradient>
<radialGradient id="paint6_radial_3029_13669" cx="0" cy="0" r="1" gradientUnits="userSpaceOnUse" gradientTransform="translate(1.5 1.5) rotate(85.3036) scale(2.87506)">
<stop stop-color="white"/>
<stop offset="1" stop-color="#FAFAFA"/>
</radialGradient>
<radialGradient id="paint7_radial_3029_13669" cx="0" cy="0" r="1" gradientUnits="userSpaceOnUse" gradientTransform="translate(1.5 1.5) rotate(85.3036) scale(2.87506)">
<stop stop-color="white"/>
<stop offset="1" stop-color="#FAFAFA"/>
</radialGradient>
<radialGradient id="paint8_radial_3029_13669" cx="0" cy="0" r="1" gradientUnits="userSpaceOnUse" gradientTransform="translate(1.5 1.5) rotate(85.3036) scale(2.87506)">
<stop stop-color="white"/>
<stop offset="1" stop-color="#FAFAFA"/>
</radialGradient>
<radialGradient id="paint9_radial_3029_13669" cx="0" cy="0" r="1" gradientUnits="userSpaceOnUse" gradientTransform="translate(1.5 1.5) rotate(85.3036) scale(2.87506)">
<stop stop-color="white"/>
<stop offset="1" stop-color="#FAFAFA"/>
</radialGradient>
<radialGradient id="paint10_radial_3029_13669" cx="0" cy="0" r="1" gradientUnits="userSpaceOnUse" gradientTransform="translate(1.5 1.5) rotate(85.3036) scale(2.87506)">
<stop stop-color="white"/>
<stop offset="1" stop-color="#FAFAFA"/>
</radialGradient>
<radialGradient id="paint11_radial_3029_13669" cx="0" cy="0" r="1" gradientUnits="userSpaceOnUse" gradientTransform="translate(1.5 1.5) rotate(85.3036) scale(2.87506)">
<stop stop-color="white"/>
<stop offset="1" stop-color="#FAFAFA"/>
</radialGradient>
<radialGradient id="paint12_radial_3029_13669" cx="0" cy="0" r="1" gradientUnits="userSpaceOnUse" gradientTransform="translate(1.5 1.5) rotate(85.3036) scale(2.87506)">
<stop stop-color="white"/>
<stop offset="1" stop-color="#FAFAFA"/>
</radialGradient>
<radialGradient id="paint13_radial_3029_13669" cx="0" cy="0" r="1" gradientUnits="userSpaceOnUse" gradientTransform="translate(1.5 1.5) rotate(85.3036) scale(2.87506)">
<stop stop-color="white"/>
<stop offset="1" stop-color="#FAFAFA"/>
</radialGradient>
<radialGradient id="paint14_radial_3029_13669" cx="0" cy="0" r="1" gradientUnits="userSpaceOnUse" gradientTransform="translate(1.5 1.5) rotate(85.3036) scale(2.87506)">
<stop stop-color="white"/>
<stop offset="1" stop-color="#FAFAFA"/>
</radialGradient>
<radialGradient id="paint15_radial_3029_13669" cx="0" cy="0" r="1" gradientUnits="userSpaceOnUse" gradientTransform="translate(1.5 1.5) rotate(85.3036) scale(2.87506)">
<stop stop-color="white"/>
<stop offset="1" stop-color="#FAFAFA"/>
</radialGradient>
<radialGradient id="paint16_radial_3029_13669" cx="0" cy="0" r="1" gradientUnits="userSpaceOnUse" gradientTransform="translate(1.5 1.5) rotate(85.3036) scale(2.87506)">
<stop stop-color="white"/>
<stop offset="1" stop-color="#FAFAFA"/>
</radialGradient>
<radialGradient id="paint17_radial_3029_13669" cx="0" cy="0" r="1" gradientUnits="userSpaceOnUse" gradientTransform="translate(1.5 1.5) rotate(85.3036) scale(2.87506)">
<stop stop-color="white"/>
<stop offset="1" stop-color="#FAFAFA"/>
</radialGradient>
<radialGradient id="paint18_radial_3029_13669" cx="0" cy="0" r="1" gradientUnits="userSpaceOnUse" gradientTransform="translate(1.5 1.5) rotate(85.3036) scale(2.87506)">
<stop stop-color="white"/>
<stop offset="1" stop-color="#FAFAFA"/>
</radialGradient>
<radialGradient id="paint19_radial_3029_13669" cx="0" cy="0" r="1" gradientUnits="userSpaceOnUse" gradientTransform="translate(1.5 1.5) rotate(85.3036) scale(2.87506)">
<stop stop-color="white"/>
<stop offset="1" stop-color="#FAFAFA"/>
</radialGradient>
<radialGradient id="paint20_radial_3029_13669" cx="0" cy="0" r="1" gradientUnits="userSpaceOnUse" gradientTransform="translate(1.5 1.5) rotate(85.3036) scale(2.87506)">
<stop stop-color="white"/>
<stop offset="1" stop-color="#FAFAFA"/>
</radialGradient>
<radialGradient id="paint21_radial_3029_13669" cx="0" cy="0" r="1" gradientUnits="userSpaceOnUse" gradientTransform="translate(1.5 1.5) rotate(85.3036) scale(2.87506)">
<stop stop-color="white"/>
<stop offset="1" stop-color="#FAFAFA"/>
</radialGradient>
<radialGradient id="paint22_radial_3029_13669" cx="0" cy="0" r="1" gradientUnits="userSpaceOnUse" gradientTransform="translate(1.5 1.5) rotate(85.3036) scale(2.87506)">
<stop stop-color="white"/>
<stop offset="1" stop-color="#FAFAFA"/>
</radialGradient>
<radialGradient id="paint23_radial_3029_13669" cx="0" cy="0" r="1" gradientUnits="userSpaceOnUse" gradientTransform="translate(1.5 1.5) rotate(85.3036) scale(2.87506)">
<stop stop-color="white"/>
<stop offset="1" stop-color="#FAFAFA"/>
</radialGradient>
<radialGradient id="paint24_radial_3029_13669" cx="0" cy="0" r="1" gradientUnits="userSpaceOnUse" gradientTransform="translate(1.5 1.5) rotate(85.3036) scale(2.87506)">
<stop stop-color="white"/>
<stop offset="1" stop-color="#FAFAFA"/>
</radialGradient>
<radialGradient id="paint25_radial_3029_13669" cx="0" cy="0" r="1" gradientUnits="userSpaceOnUse" gradientTransform="translate(1.5 1.5) rotate(85.3036) scale(2.87506)">
<stop stop-color="white"/>
<stop offset="1" stop-color="#FAFAFA"/>
</radialGradient>
<radialGradient id="paint26_radial_3029_13669" cx="0" cy="0" r="1" gradientUnits="userSpaceOnUse" gradientTransform="translate(1.5 1.5) rotate(85.3036) scale(2.87506)">
<stop stop-color="white"/>
<stop offset="1" stop-color="#FAFAFA"/>
</radialGradient>
<radialGradient id="paint27_radial_3029_13669" cx="0" cy="0" r="1" gradientUnits="userSpaceOnUse" gradientTransform="translate(1.5 1.5) rotate(85.3036) scale(2.87506)">
<stop stop-color="white"/>
<stop offset="1" stop-color="#FAFAFA"/>
</radialGradient>
<radialGradient id="paint28_radial_3029_13669" cx="0" cy="0" r="1" gradientUnits="userSpaceOnUse" gradientTransform="translate(1.5 1.5) rotate(85.3036) scale(2.87506)">
<stop stop-color="white"/>
<stop offset="1" stop-color="#FAFAFA"/>
</radialGradient>
<radialGradient id="paint29_radial_3029_13669" cx="0" cy="0" r="1" gradientUnits="userSpaceOnUse" gradientTransform="translate(1.5 1.5) rotate(85.3036) scale(2.87506)">
<stop stop-color="white"/>
<stop offset="1" stop-color="#FAFAFA"/>
</radialGradient>
<radialGradient id="paint30_radial_3029_13669" cx="0" cy="0" r="1" gradientUnits="userSpaceOnUse" gradientTransform="translate(1.5 1.5) rotate(85.3036) scale(2.87506)">
<stop stop-color="white"/>
<stop offset="1" stop-color="#FAFAFA"/>
</radialGradient>
<radialGradient id="paint31_radial_3029_13669" cx="0" cy="0" r="1" gradientUnits="userSpaceOnUse" gradientTransform="translate(1.5 1.5) rotate(85.3036) scale(2.87506)">
<stop stop-color="white"/>
<stop offset="1" stop-color="#FAFAFA"/>
</radialGradient>
<radialGradient id="paint32_radial_3029_13669" cx="0" cy="0" r="1" gradientUnits="userSpaceOnUse" gradientTransform="translate(1.5 1.5) rotate(85.3036) scale(2.87506)">
<stop stop-color="white"/>
<stop offset="1" stop-color="#FAFAFA"/>
</radialGradient>
<radialGradient id="paint33_radial_3029_13669" cx="0" cy="0" r="1" gradientUnits="userSpaceOnUse" gradientTransform="translate(1.5 1.5) rotate(85.3036) scale(2.87506)">
<stop stop-color="white"/>
<stop offset="1" stop-color="#FAFAFA"/>
</radialGradient>
<radialGradient id="paint34_radial_3029_13669" cx="0" cy="0" r="1" gradientUnits="userSpaceOnUse" gradientTransform="translate(1.5 1.5) rotate(85.3036) scale(2.87506)">
<stop stop-color="white"/>
<stop offset="1" stop-color="#FAFAFA"/>
</radialGradient>
<radialGradient id="paint35_radial_3029_13669" cx="0" cy="0" r="1" gradientUnits="userSpaceOnUse" gradientTransform="translate(1.5 1.5) rotate(85.3036) scale(2.87506)">
<stop stop-color="white"/>
<stop offset="1" stop-color="#FAFAFA"/>
</radialGradient>
<radialGradient id="paint36_radial_3029_13669" cx="0" cy="0" r="1" gradientUnits="userSpaceOnUse" gradientTransform="translate(1.5 1.5) rotate(85.3036) scale(2.87506)">
<stop stop-color="white"/>
<stop offset="1" stop-color="#FAFAFA"/>
</radialGradient>
<radialGradient id="paint37_radial_3029_13669" cx="0" cy="0" r="1" gradientUnits="userSpaceOnUse" gradientTransform="translate(1.5 1.5) rotate(85.3036) scale(2.87506)">
<stop stop-color="white"/>
<stop offset="1" stop-color="#FAFAFA"/>
</radialGradient>
<radialGradient id="paint38_radial_3029_13669" cx="0" cy="0" r="1" gradientUnits="userSpaceOnUse" gradientTransform="translate(1.5 1.5) rotate(85.3036) scale(2.87506)">
<stop stop-color="white"/>
<stop offset="1" stop-color="#FAFAFA"/>
</radialGradient>
<radialGradient id="paint39_radial_3029_13669" cx="0" cy="0" r="1" gradientUnits="userSpaceOnUse" gradientTransform="translate(1.5 1.5) rotate(85.3036) scale(2.87506)">
<stop stop-color="white"/>
<stop offset="1" stop-color="#FAFAFA"/>
</radialGradient>
<radialGradient id="paint40_radial_3029_13669" cx="0" cy="0" r="1" gradientUnits="userSpaceOnUse" gradientTransform="translate(1.5 1.5) rotate(85.3036) scale(2.87506)">
<stop stop-color="white"/>
<stop offset="1" stop-color="#FAFAFA"/>
</radialGradient>
<radialGradient id="paint41_radial_3029_13669" cx="0" cy="0" r="1" gradientUnits="userSpaceOnUse" gradientTransform="translate(1.5 1.5) rotate(85.3036) scale(2.87506)">
<stop stop-color="white"/>
<stop offset="1" stop-color="#FAFAFA"/>
</radialGradient>
<radialGradient id="paint42_radial_3029_13669" cx="0" cy="0" r="1" gradientUnits="userSpaceOnUse" gradientTransform="translate(1.5 1.5) rotate(85.3036) scale(2.87506)">
<stop stop-color="white"/>
<stop offset="1" stop-color="#FAFAFA"/>
</radialGradient>
<radialGradient id="paint43_radial_3029_13669" cx="0" cy="0" r="1" gradientUnits="userSpaceOnUse" gradientTransform="translate(1.5 1.5) rotate(85.3036) scale(2.87506)">
<stop stop-color="white"/>
<stop offset="1" stop-color="#FAFAFA"/>
</radialGradient>
</defs>
</svg>
