<svg width="97" height="103" viewBox="0 0 97 103" fill="none" xmlns="http://www.w3.org/2000/svg">
<rect width="3" height="3" rx="1" transform="matrix(0.884092 0.467313 0.466033 -0.884767 12.1006 26.9076)" fill="url(#paint0_radial_1011_8163)" fill-opacity="0.8"/>
<rect width="3" height="3" rx="1" transform="matrix(0.884092 0.467313 0.466033 -0.884767 10.5151 34.1326)" fill="url(#paint1_radial_1011_8163)" fill-opacity="0.8"/>
<rect width="3" height="3" rx="1" transform="matrix(0.884092 0.467313 0.466033 -0.884767 9.91162 41.5046)" fill="url(#paint2_radial_1011_8163)" fill-opacity="0.8"/>
<rect width="3" height="3" rx="1" transform="matrix(0.884092 0.467313 0.466033 -0.884767 11.0374 48.8152)" fill="url(#paint3_radial_1011_8163)" fill-opacity="0.8"/>
<rect width="3" height="3" rx="1" transform="matrix(0.884092 0.467313 0.466033 -0.884767 14.894 54.6836)" fill="url(#paint4_radial_1011_8163)" fill-opacity="0.8"/>
<rect width="3" height="3" rx="1" transform="matrix(0.884092 0.467313 0.466033 -0.884767 21.3086 58.6338)" fill="url(#paint5_radial_1011_8163)" fill-opacity="0.8"/>
<rect width="3" height="3" rx="1" transform="matrix(0.884092 0.467313 0.466033 -0.884767 28.6174 59.7732)" fill="url(#paint6_radial_1011_8163)" fill-opacity="0.8"/>
<rect width="3" height="3" rx="1" transform="matrix(0.884092 0.467313 0.466033 -0.884767 35.8372 58.165)" fill="url(#paint7_radial_1011_8163)" fill-opacity="0.8"/>
<rect width="3" height="3" rx="1" transform="matrix(0.884092 0.467313 0.466033 -0.884767 42.582 55.1279)" fill="url(#paint8_radial_1011_8163)" fill-opacity="0.8"/>
<rect width="3" height="3" rx="1" transform="matrix(0.884092 0.467313 0.466033 -0.884767 49.135 51.6974)" fill="url(#paint9_radial_1011_8163)" fill-opacity="0.8"/>
<rect width="3" height="3" rx="1" transform="matrix(0.884092 0.467313 0.466033 -0.884767 55.8733 48.6456)" fill="url(#paint10_radial_1011_8163)" fill-opacity="0.8"/>
<rect width="3" height="3" rx="1" transform="matrix(0.884092 0.467313 0.466033 -0.884767 63.0713 46.9421)" fill="url(#paint11_radial_1011_8163)" fill-opacity="0.8"/>
<rect width="3" height="3" rx="1" transform="matrix(0.884092 0.467313 0.466033 -0.884767 70.4185 47.7983)" fill="url(#paint12_radial_1011_8163)" fill-opacity="0.8"/>
<rect width="3" height="3" rx="1" transform="matrix(0.884092 0.467313 0.466033 -0.884767 76.9229 51.3208)" fill="url(#paint13_radial_1011_8163)" fill-opacity="0.8"/>
<rect width="3" height="3" rx="1" transform="matrix(0.884092 0.467313 0.466033 -0.884767 82.623 56.6931)" fill="url(#paint14_radial_1011_8163)" fill-opacity="0.8"/>
<rect width="3" height="3" rx="1" transform="matrix(0.884092 0.467313 0.466033 -0.884767 87.207 62.4988)" fill="url(#paint15_radial_1011_8163)" fill-opacity="0.8"/>
<rect width="3" height="3" rx="1" transform="matrix(0.884092 0.467313 0.466033 -0.884767 91.0933 68.7927)" fill="url(#paint16_radial_1011_8163)" fill-opacity="0.8"/>
<defs>
<radialGradient id="paint0_radial_1011_8163" cx="0" cy="0" r="1" gradientUnits="userSpaceOnUse" gradientTransform="translate(1.5 1.5) rotate(85.3036) scale(2.87506)">
<stop stop-color="white"/>
<stop offset="1" stop-color="#FAFAFA"/>
</radialGradient>
<radialGradient id="paint1_radial_1011_8163" cx="0" cy="0" r="1" gradientUnits="userSpaceOnUse" gradientTransform="translate(1.5 1.5) rotate(85.3036) scale(2.87506)">
<stop stop-color="white"/>
<stop offset="1" stop-color="#FAFAFA"/>
</radialGradient>
<radialGradient id="paint2_radial_1011_8163" cx="0" cy="0" r="1" gradientUnits="userSpaceOnUse" gradientTransform="translate(1.5 1.5) rotate(85.3036) scale(2.87506)">
<stop stop-color="white"/>
<stop offset="1" stop-color="#FAFAFA"/>
</radialGradient>
<radialGradient id="paint3_radial_1011_8163" cx="0" cy="0" r="1" gradientUnits="userSpaceOnUse" gradientTransform="translate(1.5 1.5) rotate(85.3036) scale(2.87506)">
<stop stop-color="white"/>
<stop offset="1" stop-color="#FAFAFA"/>
</radialGradient>
<radialGradient id="paint4_radial_1011_8163" cx="0" cy="0" r="1" gradientUnits="userSpaceOnUse" gradientTransform="translate(1.5 1.5) rotate(85.3036) scale(2.87506)">
<stop stop-color="white"/>
<stop offset="1" stop-color="#FAFAFA"/>
</radialGradient>
<radialGradient id="paint5_radial_1011_8163" cx="0" cy="0" r="1" gradientUnits="userSpaceOnUse" gradientTransform="translate(1.5 1.5) rotate(85.3036) scale(2.87506)">
<stop stop-color="white"/>
<stop offset="1" stop-color="#FAFAFA"/>
</radialGradient>
<radialGradient id="paint6_radial_1011_8163" cx="0" cy="0" r="1" gradientUnits="userSpaceOnUse" gradientTransform="translate(1.5 1.5) rotate(85.3036) scale(2.87506)">
<stop stop-color="white"/>
<stop offset="1" stop-color="#FAFAFA"/>
</radialGradient>
<radialGradient id="paint7_radial_1011_8163" cx="0" cy="0" r="1" gradientUnits="userSpaceOnUse" gradientTransform="translate(1.5 1.5) rotate(85.3036) scale(2.87506)">
<stop stop-color="white"/>
<stop offset="1" stop-color="#FAFAFA"/>
</radialGradient>
<radialGradient id="paint8_radial_1011_8163" cx="0" cy="0" r="1" gradientUnits="userSpaceOnUse" gradientTransform="translate(1.5 1.5) rotate(85.3036) scale(2.87506)">
<stop stop-color="white"/>
<stop offset="1" stop-color="#FAFAFA"/>
</radialGradient>
<radialGradient id="paint9_radial_1011_8163" cx="0" cy="0" r="1" gradientUnits="userSpaceOnUse" gradientTransform="translate(1.5 1.5) rotate(85.3036) scale(2.87506)">
<stop stop-color="white"/>
<stop offset="1" stop-color="#FAFAFA"/>
</radialGradient>
<radialGradient id="paint10_radial_1011_8163" cx="0" cy="0" r="1" gradientUnits="userSpaceOnUse" gradientTransform="translate(1.5 1.5) rotate(85.3036) scale(2.87506)">
<stop stop-color="white"/>
<stop offset="1" stop-color="#FAFAFA"/>
</radialGradient>
<radialGradient id="paint11_radial_1011_8163" cx="0" cy="0" r="1" gradientUnits="userSpaceOnUse" gradientTransform="translate(1.5 1.5) rotate(85.3036) scale(2.87506)">
<stop stop-color="white"/>
<stop offset="1" stop-color="#FAFAFA"/>
</radialGradient>
<radialGradient id="paint12_radial_1011_8163" cx="0" cy="0" r="1" gradientUnits="userSpaceOnUse" gradientTransform="translate(1.5 1.5) rotate(85.3036) scale(2.87506)">
<stop stop-color="white"/>
<stop offset="1" stop-color="#FAFAFA"/>
</radialGradient>
<radialGradient id="paint13_radial_1011_8163" cx="0" cy="0" r="1" gradientUnits="userSpaceOnUse" gradientTransform="translate(1.5 1.5) rotate(85.3036) scale(2.87506)">
<stop stop-color="white"/>
<stop offset="1" stop-color="#FAFAFA"/>
</radialGradient>
<radialGradient id="paint14_radial_1011_8163" cx="0" cy="0" r="1" gradientUnits="userSpaceOnUse" gradientTransform="translate(1.5 1.5) rotate(85.3036) scale(2.87506)">
<stop stop-color="white"/>
<stop offset="1" stop-color="#FAFAFA"/>
</radialGradient>
<radialGradient id="paint15_radial_1011_8163" cx="0" cy="0" r="1" gradientUnits="userSpaceOnUse" gradientTransform="translate(1.5 1.5) rotate(85.3036) scale(2.87506)">
<stop stop-color="white"/>
<stop offset="1" stop-color="#FAFAFA"/>
</radialGradient>
<radialGradient id="paint16_radial_1011_8163" cx="0" cy="0" r="1" gradientUnits="userSpaceOnUse" gradientTransform="translate(1.5 1.5) rotate(85.3036) scale(2.87506)">
<stop stop-color="white"/>
<stop offset="1" stop-color="#FAFAFA"/>
</radialGradient>
</defs>
</svg>
