<svg width="80" height="73" viewBox="0 0 80 73" fill="none" xmlns="http://www.w3.org/2000/svg">
<path d="M27.0234 61.0957C25.0629 59.8016 22.4246 60.3417 21.1304 62.3022C19.8363 64.2626 20.3765 66.901 22.337 68.1951C24.2974 69.4892 26.9357 68.9491 28.2299 66.9886C29.524 65.0282 28.9838 62.3898 27.0234 61.0957Z" fill="#3897FF"/>
<path d="M31.8649 14.1203L31.8952 21.5078L37.2125 26.6365L29.8249 26.6669L24.6962 31.9841L24.6655 24.5968L19.3486 19.4679L26.7362 19.4375L31.8649 14.1203Z" fill="#FFCC00"/>
<path d="M63.1587 26.3123L67.2548 32.4602L74.5178 33.8106L68.3695 37.9067L67.0195 45.1697L62.9235 39.0218L55.6605 37.6714L61.8082 33.5754L63.1587 26.3123Z" fill="#00A98F"/>
</svg>
