<svg width="73" height="67" viewBox="0 0 73 67" fill="none" xmlns="http://www.w3.org/2000/svg">
<path d="M25.2512 53.5839C23.2254 52.3947 20.6191 53.0728 19.4299 55.0986C18.2406 57.1244 18.9188 59.7307 20.9445 60.9199C22.9703 62.1092 25.5766 61.431 26.7659 59.4052C27.9551 57.3795 27.277 54.7732 25.2512 53.5839Z" fill="#3897FF"/>
<path d="M29.2177 15.0005L29.6365 22.3762L35.216 27.2183L27.8403 27.637L22.9983 33.2166L22.5792 25.841L17 20.9988L24.3757 20.5801L29.2177 15.0005Z" fill="#FFCC00"/>
<path d="M56.9331 23.9557L61.3467 29.8797L68.6707 30.8464L62.7463 35.26L61.78 42.584L57.3664 36.6599L50.0424 35.6933L55.9663 31.2798L56.9331 23.9557Z" fill="#00A98F"/>
</svg>
