<svg width="58" height="48" viewBox="0 0 58 48" fill="none" xmlns="http://www.w3.org/2000/svg">
<path d="M28.5544 0C12.8925 0 0.0168181 10.7525 0.0168181 23.9796C0.0168181 29.2951 2.08617 34.4074 5.81898 38.5461L0.503613 44.6322C-0.023906 45.2409 -0.145402 46.0929 0.178903 46.8231C0.544201 47.5537 1.2338 47.9999 2.04544 47.9999H30.583C42.1467 47.9999 57.0919 38.3025 57.0919 23.9794C57.0921 10.7524 44.2161 0 28.5544 0Z" fill="white"/>
<path d="M28.5543 0C28.5514 0 28.5487 0 28.5459 0V48H30.583C42.1468 48 57.092 38.3027 57.092 23.9794C57.092 10.7524 44.216 0 28.5543 0Z" fill="#DADADA"/>
<path d="M16.3824 27.7122C14.1456 27.7122 12.3248 25.8915 12.3248 23.6547C12.3248 21.4178 14.1455 19.5972 16.3824 19.5972C18.6192 19.5972 20.4399 21.4178 20.4399 23.6547C20.4399 25.8915 18.6191 27.7122 16.3824 27.7122Z" fill="#FF474D"/>
<path d="M28.5547 19.5972C26.3231 19.5972 24.4972 21.423 24.4972 23.6547C24.4972 25.8864 26.323 27.7122 28.5547 27.7122C30.7864 27.7122 32.6122 25.8864 32.6122 23.6547C32.6122 21.423 30.7861 19.5972 28.5547 19.5972Z" fill="#FF474D"/>
<path d="M40.8631 27.712C38.6264 27.712 36.8055 25.8913 36.8055 23.6544C36.8055 21.4176 38.6262 19.5969 40.8631 19.5969C43.0999 19.5969 44.9206 21.4176 44.9206 23.6544C44.9206 25.8913 43.0998 27.712 40.8631 27.712ZM40.8631 23.6505C40.8631 23.6526 40.8631 23.6544 40.8631 23.6544V23.6505Z" fill="#D61414"/>
<path d="M32.6127 23.6548C32.6127 25.8864 30.7869 27.7123 28.5552 27.7123V19.5974C30.7866 19.5973 32.6127 21.4231 32.6127 23.6548Z" fill="#D61414"/>
</svg>
