<svg width="57" height="76" viewBox="0 0 57 76" fill="none" xmlns="http://www.w3.org/2000/svg">
<rect width="2.06229" height="2.06229" rx="0.687431" transform="matrix(0.666474 0.745528 0.744563 -0.667552 9.4834 8.94452)" fill="url(#paint0_radial_1102_22599)" fill-opacity="0.8"/>
<rect width="2.06229" height="2.06229" rx="0.687431" transform="matrix(0.666474 0.745528 0.744563 -0.667552 6.73535 13.2229)" fill="url(#paint1_radial_1102_22599)" fill-opacity="0.8"/>
<rect width="2.06229" height="2.06229" rx="0.687431" transform="matrix(0.666474 0.745528 0.744563 -0.667552 4.58496 17.8304)" fill="url(#paint2_radial_1102_22599)" fill-opacity="0.8"/>
<rect width="2.06229" height="2.06229" rx="0.687431" transform="matrix(0.666474 0.745528 0.744563 -0.667552 3.56348 22.8113)" fill="url(#paint3_radial_1102_22599)" fill-opacity="0.8"/>
<rect width="2.06229" height="2.06229" rx="0.687431" transform="matrix(0.666474 0.745528 0.744563 -0.667552 4.64551 27.5153)" fill="url(#paint4_radial_1102_22599)" fill-opacity="0.8"/>
<rect width="2.06229" height="2.06229" rx="0.687431" transform="matrix(0.666474 0.745528 0.744563 -0.667552 7.83594 31.5943)" fill="url(#paint5_radial_1102_22599)" fill-opacity="0.8"/>
<rect width="2.06229" height="2.06229" rx="0.687431" transform="matrix(0.666474 0.745528 0.744563 -0.667552 12.2744 34.0755)" fill="url(#paint6_radial_1102_22599)" fill-opacity="0.8"/>
<rect width="2.06229" height="2.06229" rx="0.687431" transform="matrix(0.666474 0.745528 0.744563 -0.667552 17.3135 34.7647)" fill="url(#paint7_radial_1102_22599)" fill-opacity="0.8"/>
<rect width="2.06229" height="2.06229" rx="0.687431" transform="matrix(0.666474 0.745528 0.744563 -0.667552 22.3857 34.4187)" fill="url(#paint8_radial_1102_22599)" fill-opacity="0.8"/>
<rect width="2.06229" height="2.06229" rx="0.687431" transform="matrix(0.666474 0.745528 0.744563 -0.667552 27.4297 33.7741)" fill="url(#paint9_radial_1102_22599)" fill-opacity="0.8"/>
<rect width="2.06229" height="2.06229" rx="0.687431" transform="matrix(0.666474 0.745528 0.744563 -0.667552 32.502 33.4172)" fill="url(#paint10_radial_1102_22599)" fill-opacity="0.8"/>
<rect width="2.06229" height="2.06229" rx="0.687431" transform="matrix(0.666474 0.745528 0.744563 -0.667552 37.5488 34.0397)" fill="url(#paint11_radial_1102_22599)" fill-opacity="0.8"/>
<rect width="2.06229" height="2.06229" rx="0.687431" transform="matrix(0.666474 0.745528 0.744563 -0.667552 42.0801 36.3475)" fill="url(#paint12_radial_1102_22599)" fill-opacity="0.8"/>
<rect width="2.06229" height="2.06229" rx="0.687431" transform="matrix(0.666474 0.745528 0.744563 -0.667552 45.4316 40.1728)" fill="url(#paint13_radial_1102_22599)" fill-opacity="0.8"/>
<rect width="2.06229" height="2.06229" rx="0.687431" transform="matrix(0.666474 0.745528 0.744563 -0.667552 47.8203 44.9975)" fill="url(#paint14_radial_1102_22599)" fill-opacity="0.8"/>
<rect width="2.06229" height="2.06229" rx="0.687431" transform="matrix(0.666474 0.745528 0.744563 -0.667552 49.3877 49.835)" fill="url(#paint15_radial_1102_22599)" fill-opacity="0.8"/>
<rect width="2.06229" height="2.06229" rx="0.687431" transform="matrix(0.666474 0.745528 0.744563 -0.667552 50.3887 54.8207)" fill="url(#paint16_radial_1102_22599)" fill-opacity="0.8"/>
<rect width="2.06229" height="2.06229" rx="0.687431" transform="matrix(0.666474 0.745528 0.744563 -0.667552 50.002 60.3821)" fill="url(#paint17_radial_1102_22599)" fill-opacity="0.8"/>
<rect width="2.06229" height="2.06229" rx="0.687431" transform="matrix(0.666474 0.745528 0.744563 -0.667552 48 65.377)" fill="url(#paint18_radial_1102_22599)" fill-opacity="0.8"/>
<defs>
<radialGradient id="paint0_radial_1102_22599" cx="0" cy="0" r="1" gradientUnits="userSpaceOnUse" gradientTransform="translate(1.03115 1.03115) rotate(85.3036) scale(1.9764)">
<stop stop-color="white"/>
<stop offset="1" stop-color="#FAFAFA"/>
</radialGradient>
<radialGradient id="paint1_radial_1102_22599" cx="0" cy="0" r="1" gradientUnits="userSpaceOnUse" gradientTransform="translate(1.03115 1.03115) rotate(85.3036) scale(1.9764)">
<stop stop-color="white"/>
<stop offset="1" stop-color="#FAFAFA"/>
</radialGradient>
<radialGradient id="paint2_radial_1102_22599" cx="0" cy="0" r="1" gradientUnits="userSpaceOnUse" gradientTransform="translate(1.03115 1.03115) rotate(85.3036) scale(1.9764)">
<stop stop-color="white"/>
<stop offset="1" stop-color="#FAFAFA"/>
</radialGradient>
<radialGradient id="paint3_radial_1102_22599" cx="0" cy="0" r="1" gradientUnits="userSpaceOnUse" gradientTransform="translate(1.03115 1.03115) rotate(85.3036) scale(1.9764)">
<stop stop-color="white"/>
<stop offset="1" stop-color="#FAFAFA"/>
</radialGradient>
<radialGradient id="paint4_radial_1102_22599" cx="0" cy="0" r="1" gradientUnits="userSpaceOnUse" gradientTransform="translate(1.03115 1.03115) rotate(85.3036) scale(1.9764)">
<stop stop-color="white"/>
<stop offset="1" stop-color="#FAFAFA"/>
</radialGradient>
<radialGradient id="paint5_radial_1102_22599" cx="0" cy="0" r="1" gradientUnits="userSpaceOnUse" gradientTransform="translate(1.03115 1.03115) rotate(85.3036) scale(1.9764)">
<stop stop-color="white"/>
<stop offset="1" stop-color="#FAFAFA"/>
</radialGradient>
<radialGradient id="paint6_radial_1102_22599" cx="0" cy="0" r="1" gradientUnits="userSpaceOnUse" gradientTransform="translate(1.03115 1.03115) rotate(85.3036) scale(1.9764)">
<stop stop-color="white"/>
<stop offset="1" stop-color="#FAFAFA"/>
</radialGradient>
<radialGradient id="paint7_radial_1102_22599" cx="0" cy="0" r="1" gradientUnits="userSpaceOnUse" gradientTransform="translate(1.03115 1.03115) rotate(85.3036) scale(1.9764)">
<stop stop-color="white"/>
<stop offset="1" stop-color="#FAFAFA"/>
</radialGradient>
<radialGradient id="paint8_radial_1102_22599" cx="0" cy="0" r="1" gradientUnits="userSpaceOnUse" gradientTransform="translate(1.03115 1.03115) rotate(85.3036) scale(1.9764)">
<stop stop-color="white"/>
<stop offset="1" stop-color="#FAFAFA"/>
</radialGradient>
<radialGradient id="paint9_radial_1102_22599" cx="0" cy="0" r="1" gradientUnits="userSpaceOnUse" gradientTransform="translate(1.03115 1.03115) rotate(85.3036) scale(1.9764)">
<stop stop-color="white"/>
<stop offset="1" stop-color="#FAFAFA"/>
</radialGradient>
<radialGradient id="paint10_radial_1102_22599" cx="0" cy="0" r="1" gradientUnits="userSpaceOnUse" gradientTransform="translate(1.03115 1.03115) rotate(85.3036) scale(1.9764)">
<stop stop-color="white"/>
<stop offset="1" stop-color="#FAFAFA"/>
</radialGradient>
<radialGradient id="paint11_radial_1102_22599" cx="0" cy="0" r="1" gradientUnits="userSpaceOnUse" gradientTransform="translate(1.03115 1.03115) rotate(85.3036) scale(1.9764)">
<stop stop-color="white"/>
<stop offset="1" stop-color="#FAFAFA"/>
</radialGradient>
<radialGradient id="paint12_radial_1102_22599" cx="0" cy="0" r="1" gradientUnits="userSpaceOnUse" gradientTransform="translate(1.03115 1.03115) rotate(85.3036) scale(1.9764)">
<stop stop-color="white"/>
<stop offset="1" stop-color="#FAFAFA"/>
</radialGradient>
<radialGradient id="paint13_radial_1102_22599" cx="0" cy="0" r="1" gradientUnits="userSpaceOnUse" gradientTransform="translate(1.03115 1.03115) rotate(85.3036) scale(1.9764)">
<stop stop-color="white"/>
<stop offset="1" stop-color="#FAFAFA"/>
</radialGradient>
<radialGradient id="paint14_radial_1102_22599" cx="0" cy="0" r="1" gradientUnits="userSpaceOnUse" gradientTransform="translate(1.03115 1.03115) rotate(85.3036) scale(1.9764)">
<stop stop-color="white"/>
<stop offset="1" stop-color="#FAFAFA"/>
</radialGradient>
<radialGradient id="paint15_radial_1102_22599" cx="0" cy="0" r="1" gradientUnits="userSpaceOnUse" gradientTransform="translate(1.03115 1.03115) rotate(85.3036) scale(1.9764)">
<stop stop-color="white"/>
<stop offset="1" stop-color="#FAFAFA"/>
</radialGradient>
<radialGradient id="paint16_radial_1102_22599" cx="0" cy="0" r="1" gradientUnits="userSpaceOnUse" gradientTransform="translate(1.03115 1.03115) rotate(85.3036) scale(1.9764)">
<stop stop-color="white"/>
<stop offset="1" stop-color="#FAFAFA"/>
</radialGradient>
<radialGradient id="paint17_radial_1102_22599" cx="0" cy="0" r="1" gradientUnits="userSpaceOnUse" gradientTransform="translate(1.03115 1.03115) rotate(85.3036) scale(1.9764)">
<stop stop-color="white"/>
<stop offset="1" stop-color="#FAFAFA"/>
</radialGradient>
<radialGradient id="paint18_radial_1102_22599" cx="0" cy="0" r="1" gradientUnits="userSpaceOnUse" gradientTransform="translate(1.03115 1.03115) rotate(85.3036) scale(1.9764)">
<stop stop-color="white"/>
<stop offset="1" stop-color="#FAFAFA"/>
</radialGradient>
</defs>
</svg>
