<svg width="72" height="159" viewBox="0 0 72 159" fill="none" xmlns="http://www.w3.org/2000/svg">
<rect width="2.06229" height="2.06229" rx="0.687431" transform="matrix(0.895337 0.445389 -0.446684 0.894692 69.3359 0)" fill="url(#paint0_radial_1102_22617)" fill-opacity="0.8"/>
<rect width="2.06229" height="2.06229" rx="0.687431" transform="matrix(0.895337 0.445389 -0.446684 0.894692 67.3867 4.35855)" fill="url(#paint1_radial_1102_22617)" fill-opacity="0.8"/>
<rect width="2.06229" height="2.06229" rx="0.687431" transform="matrix(0.895337 0.445389 -0.446684 0.894692 65.2842 8.83859)" fill="url(#paint2_radial_1102_22617)" fill-opacity="0.8"/>
<rect width="2.06229" height="2.06229" rx="0.687431" transform="matrix(0.895337 0.445389 -0.446684 0.894692 63.1104 13.2853)" fill="url(#paint3_radial_1102_22617)" fill-opacity="0.8"/>
<rect width="2.06229" height="2.06229" rx="0.687431" transform="matrix(0.895337 0.445389 -0.446684 0.894692 60.8701 17.6983)" fill="url(#paint4_radial_1102_22617)" fill-opacity="0.8"/>
<rect width="2.06229" height="2.06229" rx="0.687431" transform="matrix(0.895337 0.445389 -0.446684 0.894692 58.5605 22.0757)" fill="url(#paint5_radial_1102_22617)" fill-opacity="0.8"/>
<rect width="2.06229" height="2.06229" rx="0.687431" transform="matrix(0.895337 0.445389 -0.446684 0.894692 56.1777 26.4134)" fill="url(#paint6_radial_1102_22617)" fill-opacity="0.8"/>
<rect width="2.06229" height="2.06229" rx="0.687431" transform="matrix(0.895337 0.445389 -0.446684 0.894692 53.7158 30.7068)" fill="url(#paint7_radial_1102_22617)" fill-opacity="0.8"/>
<rect width="2.06229" height="2.06229" rx="0.687431" transform="matrix(0.895337 0.445389 -0.446684 0.894692 51.1641 34.9489)" fill="url(#paint8_radial_1102_22617)" fill-opacity="0.8"/>
<rect width="2.06229" height="2.06229" rx="0.687431" transform="matrix(0.895337 0.445389 -0.446684 0.894692 48.5195 39.1308)" fill="url(#paint9_radial_1102_22617)" fill-opacity="0.8"/>
<rect width="2.06229" height="2.06229" rx="0.687431" transform="matrix(0.895337 0.445389 -0.446684 0.894692 45.7598 43.2407)" fill="url(#paint10_radial_1102_22617)" fill-opacity="0.8"/>
<rect width="2.06229" height="2.06229" rx="0.687431" transform="matrix(0.895337 0.445389 -0.446684 0.894692 42.874 47.2612)" fill="url(#paint11_radial_1102_22617)" fill-opacity="0.8"/>
<rect width="2.06229" height="2.06229" rx="0.687431" transform="matrix(0.895337 0.445389 -0.446684 0.894692 39.8369 51.1689)" fill="url(#paint12_radial_1102_22617)" fill-opacity="0.8"/>
<rect width="2.06229" height="2.06229" rx="0.687431" transform="matrix(0.895337 0.445389 -0.446684 0.894692 36.6162 54.9276)" fill="url(#paint13_radial_1102_22617)" fill-opacity="0.8"/>
<rect width="2.06229" height="2.06229" rx="0.687431" transform="matrix(0.895337 0.445389 -0.446684 0.894692 33.1709 58.4806)" fill="url(#paint14_radial_1102_22617)" fill-opacity="0.8"/>
<rect width="2.06229" height="2.06229" rx="0.687431" transform="matrix(0.895337 0.445389 -0.446684 0.894692 29.4424 61.7345)" fill="url(#paint15_radial_1102_22617)" fill-opacity="0.8"/>
<rect width="2.06229" height="2.06229" rx="0.687431" transform="matrix(0.895337 0.445389 -0.446684 0.894692 25.3506 64.5195)" fill="url(#paint16_radial_1102_22617)" fill-opacity="0.8"/>
<rect width="2.06229" height="2.06229" rx="0.687431" transform="matrix(0.895337 0.445389 -0.446684 0.894692 20.8223 66.5177)" fill="url(#paint17_radial_1102_22617)" fill-opacity="0.8"/>
<rect width="2.06229" height="2.06229" rx="0.687431" transform="matrix(0.895337 0.445389 -0.446684 0.894692 15.918 67.1768)" fill="url(#paint18_radial_1102_22617)" fill-opacity="0.8"/>
<rect width="2.06229" height="2.06229" rx="0.687431" transform="matrix(0.895337 0.445389 -0.446684 0.894692 11.1143 65.9829)" fill="url(#paint19_radial_1102_22617)" fill-opacity="0.8"/>
<rect width="2.06229" height="2.06229" rx="0.687431" transform="matrix(0.895337 0.445389 -0.446684 0.894692 7.03125 63.1866)" fill="url(#paint20_radial_1102_22617)" fill-opacity="0.8"/>
<rect width="2.06229" height="2.06229" rx="0.687431" transform="matrix(0.895337 0.445389 -0.446684 0.894692 3.84668 59.5332)" fill="url(#paint21_radial_1102_22617)" fill-opacity="0.8"/>
<rect width="2.06229" height="2.06229" rx="0.687431" transform="matrix(0.895337 0.445389 -0.446684 0.894692 1.73438 55.0575)" fill="url(#paint22_radial_1102_22617)" fill-opacity="0.8"/>
<rect width="2.06229" height="2.06229" rx="0.687431" transform="matrix(0.895337 0.445389 -0.446684 0.894692 0.920898 50.1754)" fill="url(#paint23_radial_1102_22617)" fill-opacity="0.8"/>
<rect width="2.06229" height="2.06229" rx="0.687431" transform="matrix(0.895337 0.445389 -0.446684 0.894692 1.29297 45.2402)" fill="url(#paint24_radial_1102_22617)" fill-opacity="0.8"/>
<rect width="2.06229" height="2.06229" rx="0.687431" transform="matrix(0.895337 0.445389 -0.446684 0.894692 2.7373 40.5064)" fill="url(#paint25_radial_1102_22617)" fill-opacity="0.8"/>
<rect width="2.06229" height="2.06229" rx="0.687431" transform="matrix(0.895337 0.445389 -0.446684 0.894692 5.19043 36.2076)" fill="url(#paint26_radial_1102_22617)" fill-opacity="0.8"/>
<rect width="2.06229" height="2.06229" rx="0.687431" transform="matrix(0.895337 0.445389 -0.446684 0.894692 8.61328 32.6332)" fill="url(#paint27_radial_1102_22617)" fill-opacity="0.8"/>
<rect width="2.06229" height="2.06229" rx="0.687431" transform="matrix(0.895337 0.445389 -0.446684 0.894692 12.8984 30.1544)" fill="url(#paint28_radial_1102_22617)" fill-opacity="0.8"/>
<rect width="2.06229" height="2.06229" rx="0.687431" transform="matrix(0.895337 0.445389 -0.446684 0.894692 16.6328 29.2846)" fill="url(#paint29_radial_1102_22617)" fill-opacity="0.8"/>
<rect width="2.06229" height="2.06229" rx="0.687431" transform="matrix(0.895337 0.445389 -0.446684 0.894692 20.8174 28.9076)" fill="url(#paint30_radial_1102_22617)" fill-opacity="0.8"/>
<rect width="2.06229" height="2.06229" rx="0.687431" transform="matrix(0.895337 0.445389 -0.446684 0.894692 25.665 29.911)" fill="url(#paint31_radial_1102_22617)" fill-opacity="0.8"/>
<rect width="2.06229" height="2.06229" rx="0.687431" transform="matrix(0.895337 0.445389 -0.446684 0.894692 30.0791 32.1468)" fill="url(#paint32_radial_1102_22617)" fill-opacity="0.8"/>
<rect width="2.06229" height="2.06229" rx="0.687431" transform="matrix(0.895337 0.445389 -0.446684 0.894692 33.9326 35.2527)" fill="url(#paint33_radial_1102_22617)" fill-opacity="0.8"/>
<rect width="2.06229" height="2.06229" rx="0.687431" transform="matrix(0.895337 0.445389 -0.446684 0.894692 37.2637 38.913)" fill="url(#paint34_radial_1102_22617)" fill-opacity="0.8"/>
<rect width="2.06229" height="2.06229" rx="0.687431" transform="matrix(0.895337 0.445389 -0.446684 0.894692 40.1621 42.9248)" fill="url(#paint35_radial_1102_22617)" fill-opacity="0.8"/>
<rect width="2.06229" height="2.06229" rx="0.687431" transform="matrix(0.895337 0.445389 -0.446684 0.894692 42.7109 47.1678)" fill="url(#paint36_radial_1102_22617)" fill-opacity="0.8"/>
<rect width="2.06229" height="2.06229" rx="0.687431" transform="matrix(0.895337 0.445389 -0.446684 0.894692 44.9736 51.5694)" fill="url(#paint37_radial_1102_22617)" fill-opacity="0.8"/>
<rect width="2.06229" height="2.06229" rx="0.687431" transform="matrix(0.895337 0.445389 -0.446684 0.894692 47 56.0854)" fill="url(#paint38_radial_1102_22617)" fill-opacity="0.8"/>
<rect width="2.06229" height="2.06229" rx="0.687431" transform="matrix(0.895337 0.445389 -0.446684 0.894692 48.8242 60.6856)" fill="url(#paint39_radial_1102_22617)" fill-opacity="0.8"/>
<rect width="2.06229" height="2.06229" rx="0.687431" transform="matrix(0.895337 0.445389 -0.446684 0.894692 50.4756 65.3515)" fill="url(#paint40_radial_1102_22617)" fill-opacity="0.8"/>
<rect width="2.06229" height="2.06229" rx="0.687431" transform="matrix(0.895337 0.445389 -0.446684 0.894692 51.9727 70.0693)" fill="url(#paint41_radial_1102_22617)" fill-opacity="0.8"/>
<rect width="2.06229" height="2.06229" rx="0.687431" transform="matrix(0.895337 0.445389 -0.446684 0.894692 53.3369 75.8669)" fill="url(#paint42_radial_1102_22617)" fill-opacity="0.8"/>
<rect width="2.06229" height="2.06229" rx="0.687431" transform="matrix(0.895337 0.445389 -0.446684 0.894692 54.9209 81)" fill="url(#paint43_radial_1102_22617)" fill-opacity="0.8"/>
<rect width="2.06229" height="2.06229" rx="0.687431" transform="matrix(0.895337 0.445389 -0.446684 0.894692 55.9209 86)" fill="url(#paint44_radial_1102_22617)" fill-opacity="0.8"/>
<rect width="2.06229" height="2.06229" rx="0.687431" transform="matrix(0.895337 0.445389 -0.446684 0.894692 56.9209 91)" fill="url(#paint45_radial_1102_22617)" fill-opacity="0.8"/>
<rect width="2.06229" height="2.06229" rx="0.687431" transform="matrix(0.895337 0.445389 -0.446684 0.894692 57.9209 96)" fill="url(#paint46_radial_1102_22617)" fill-opacity="0.8"/>
<rect width="2.06229" height="2.06229" rx="0.687431" transform="matrix(0.895337 0.445389 -0.446684 0.894692 58.9209 101)" fill="url(#paint47_radial_1102_22617)" fill-opacity="0.8"/>
<rect width="2.06229" height="2.06229" rx="0.687431" transform="matrix(0.895337 0.445389 -0.446684 0.894692 59.9209 106)" fill="url(#paint48_radial_1102_22617)" fill-opacity="0.8"/>
<rect width="2.06229" height="2.06229" rx="0.687431" transform="matrix(0.895337 0.445389 -0.446684 0.894692 60.9209 111)" fill="url(#paint49_radial_1102_22617)" fill-opacity="0.8"/>
<rect width="2.06229" height="2.06229" rx="0.687431" transform="matrix(0.895337 0.445389 -0.446684 0.894692 61.9209 116)" fill="url(#paint50_radial_1102_22617)" fill-opacity="0.8"/>
<rect width="2.06229" height="2.06229" rx="0.687431" transform="matrix(0.895337 0.445389 -0.446684 0.894692 62.9209 121)" fill="url(#paint51_radial_1102_22617)" fill-opacity="0.8"/>
<rect width="2.06229" height="2.06229" rx="0.687431" transform="matrix(0.895337 0.445389 -0.446684 0.894692 63.9209 126)" fill="url(#paint52_radial_1102_22617)" fill-opacity="0.8"/>
<rect width="2.06229" height="2.06229" rx="0.687431" transform="matrix(0.895337 0.445389 -0.446684 0.894692 64.9209 131)" fill="url(#paint53_radial_1102_22617)" fill-opacity="0.8"/>
<rect width="2.06229" height="2.06229" rx="0.687431" transform="matrix(0.895337 0.445389 -0.446684 0.894692 65.9209 136)" fill="url(#paint54_radial_1102_22617)" fill-opacity="0.8"/>
<rect width="2.06229" height="2.06229" rx="0.687431" transform="matrix(0.895337 0.445389 -0.446684 0.894692 66.9209 141)" fill="url(#paint55_radial_1102_22617)" fill-opacity="0.8"/>
<rect width="2.06229" height="2.06229" rx="0.687431" transform="matrix(0.895337 0.445389 -0.446684 0.894692 67.9209 146)" fill="url(#paint56_radial_1102_22617)" fill-opacity="0.8"/>
<rect width="2.06229" height="2.06229" rx="0.687431" transform="matrix(0.895337 0.445389 -0.446684 0.894692 68.9209 151)" fill="url(#paint57_radial_1102_22617)" fill-opacity="0.8"/>
<rect width="2.06229" height="2.06229" rx="0.687431" transform="matrix(0.895337 0.445389 -0.446684 0.894692 69.9209 156)" fill="url(#paint58_radial_1102_22617)" fill-opacity="0.8"/>
<defs>
<radialGradient id="paint0_radial_1102_22617" cx="0" cy="0" r="1" gradientUnits="userSpaceOnUse" gradientTransform="translate(1.03115 1.03115) rotate(85.3036) scale(1.9764)">
<stop stop-color="white"/>
<stop offset="1" stop-color="#FAFAFA"/>
</radialGradient>
<radialGradient id="paint1_radial_1102_22617" cx="0" cy="0" r="1" gradientUnits="userSpaceOnUse" gradientTransform="translate(1.03115 1.03115) rotate(85.3036) scale(1.9764)">
<stop stop-color="white"/>
<stop offset="1" stop-color="#FAFAFA"/>
</radialGradient>
<radialGradient id="paint2_radial_1102_22617" cx="0" cy="0" r="1" gradientUnits="userSpaceOnUse" gradientTransform="translate(1.03115 1.03115) rotate(85.3036) scale(1.9764)">
<stop stop-color="white"/>
<stop offset="1" stop-color="#FAFAFA"/>
</radialGradient>
<radialGradient id="paint3_radial_1102_22617" cx="0" cy="0" r="1" gradientUnits="userSpaceOnUse" gradientTransform="translate(1.03115 1.03115) rotate(85.3036) scale(1.9764)">
<stop stop-color="white"/>
<stop offset="1" stop-color="#FAFAFA"/>
</radialGradient>
<radialGradient id="paint4_radial_1102_22617" cx="0" cy="0" r="1" gradientUnits="userSpaceOnUse" gradientTransform="translate(1.03115 1.03115) rotate(85.3036) scale(1.9764)">
<stop stop-color="white"/>
<stop offset="1" stop-color="#FAFAFA"/>
</radialGradient>
<radialGradient id="paint5_radial_1102_22617" cx="0" cy="0" r="1" gradientUnits="userSpaceOnUse" gradientTransform="translate(1.03115 1.03115) rotate(85.3036) scale(1.9764)">
<stop stop-color="white"/>
<stop offset="1" stop-color="#FAFAFA"/>
</radialGradient>
<radialGradient id="paint6_radial_1102_22617" cx="0" cy="0" r="1" gradientUnits="userSpaceOnUse" gradientTransform="translate(1.03115 1.03115) rotate(85.3036) scale(1.9764)">
<stop stop-color="white"/>
<stop offset="1" stop-color="#FAFAFA"/>
</radialGradient>
<radialGradient id="paint7_radial_1102_22617" cx="0" cy="0" r="1" gradientUnits="userSpaceOnUse" gradientTransform="translate(1.03115 1.03115) rotate(85.3036) scale(1.9764)">
<stop stop-color="white"/>
<stop offset="1" stop-color="#FAFAFA"/>
</radialGradient>
<radialGradient id="paint8_radial_1102_22617" cx="0" cy="0" r="1" gradientUnits="userSpaceOnUse" gradientTransform="translate(1.03115 1.03115) rotate(85.3036) scale(1.9764)">
<stop stop-color="white"/>
<stop offset="1" stop-color="#FAFAFA"/>
</radialGradient>
<radialGradient id="paint9_radial_1102_22617" cx="0" cy="0" r="1" gradientUnits="userSpaceOnUse" gradientTransform="translate(1.03115 1.03115) rotate(85.3036) scale(1.9764)">
<stop stop-color="white"/>
<stop offset="1" stop-color="#FAFAFA"/>
</radialGradient>
<radialGradient id="paint10_radial_1102_22617" cx="0" cy="0" r="1" gradientUnits="userSpaceOnUse" gradientTransform="translate(1.03115 1.03115) rotate(85.3036) scale(1.9764)">
<stop stop-color="white"/>
<stop offset="1" stop-color="#FAFAFA"/>
</radialGradient>
<radialGradient id="paint11_radial_1102_22617" cx="0" cy="0" r="1" gradientUnits="userSpaceOnUse" gradientTransform="translate(1.03115 1.03115) rotate(85.3036) scale(1.9764)">
<stop stop-color="white"/>
<stop offset="1" stop-color="#FAFAFA"/>
</radialGradient>
<radialGradient id="paint12_radial_1102_22617" cx="0" cy="0" r="1" gradientUnits="userSpaceOnUse" gradientTransform="translate(1.03115 1.03115) rotate(85.3036) scale(1.9764)">
<stop stop-color="white"/>
<stop offset="1" stop-color="#FAFAFA"/>
</radialGradient>
<radialGradient id="paint13_radial_1102_22617" cx="0" cy="0" r="1" gradientUnits="userSpaceOnUse" gradientTransform="translate(1.03115 1.03115) rotate(85.3036) scale(1.9764)">
<stop stop-color="white"/>
<stop offset="1" stop-color="#FAFAFA"/>
</radialGradient>
<radialGradient id="paint14_radial_1102_22617" cx="0" cy="0" r="1" gradientUnits="userSpaceOnUse" gradientTransform="translate(1.03115 1.03115) rotate(85.3036) scale(1.9764)">
<stop stop-color="white"/>
<stop offset="1" stop-color="#FAFAFA"/>
</radialGradient>
<radialGradient id="paint15_radial_1102_22617" cx="0" cy="0" r="1" gradientUnits="userSpaceOnUse" gradientTransform="translate(1.03115 1.03115) rotate(85.3036) scale(1.9764)">
<stop stop-color="white"/>
<stop offset="1" stop-color="#FAFAFA"/>
</radialGradient>
<radialGradient id="paint16_radial_1102_22617" cx="0" cy="0" r="1" gradientUnits="userSpaceOnUse" gradientTransform="translate(1.03115 1.03115) rotate(85.3036) scale(1.9764)">
<stop stop-color="white"/>
<stop offset="1" stop-color="#FAFAFA"/>
</radialGradient>
<radialGradient id="paint17_radial_1102_22617" cx="0" cy="0" r="1" gradientUnits="userSpaceOnUse" gradientTransform="translate(1.03115 1.03115) rotate(85.3036) scale(1.9764)">
<stop stop-color="white"/>
<stop offset="1" stop-color="#FAFAFA"/>
</radialGradient>
<radialGradient id="paint18_radial_1102_22617" cx="0" cy="0" r="1" gradientUnits="userSpaceOnUse" gradientTransform="translate(1.03115 1.03115) rotate(85.3036) scale(1.9764)">
<stop stop-color="white"/>
<stop offset="1" stop-color="#FAFAFA"/>
</radialGradient>
<radialGradient id="paint19_radial_1102_22617" cx="0" cy="0" r="1" gradientUnits="userSpaceOnUse" gradientTransform="translate(1.03115 1.03115) rotate(85.3036) scale(1.9764)">
<stop stop-color="white"/>
<stop offset="1" stop-color="#FAFAFA"/>
</radialGradient>
<radialGradient id="paint20_radial_1102_22617" cx="0" cy="0" r="1" gradientUnits="userSpaceOnUse" gradientTransform="translate(1.03115 1.03115) rotate(85.3036) scale(1.9764)">
<stop stop-color="white"/>
<stop offset="1" stop-color="#FAFAFA"/>
</radialGradient>
<radialGradient id="paint21_radial_1102_22617" cx="0" cy="0" r="1" gradientUnits="userSpaceOnUse" gradientTransform="translate(1.03115 1.03115) rotate(85.3036) scale(1.9764)">
<stop stop-color="white"/>
<stop offset="1" stop-color="#FAFAFA"/>
</radialGradient>
<radialGradient id="paint22_radial_1102_22617" cx="0" cy="0" r="1" gradientUnits="userSpaceOnUse" gradientTransform="translate(1.03115 1.03115) rotate(85.3036) scale(1.9764)">
<stop stop-color="white"/>
<stop offset="1" stop-color="#FAFAFA"/>
</radialGradient>
<radialGradient id="paint23_radial_1102_22617" cx="0" cy="0" r="1" gradientUnits="userSpaceOnUse" gradientTransform="translate(1.03115 1.03115) rotate(85.3036) scale(1.9764)">
<stop stop-color="white"/>
<stop offset="1" stop-color="#FAFAFA"/>
</radialGradient>
<radialGradient id="paint24_radial_1102_22617" cx="0" cy="0" r="1" gradientUnits="userSpaceOnUse" gradientTransform="translate(1.03115 1.03115) rotate(85.3036) scale(1.9764)">
<stop stop-color="white"/>
<stop offset="1" stop-color="#FAFAFA"/>
</radialGradient>
<radialGradient id="paint25_radial_1102_22617" cx="0" cy="0" r="1" gradientUnits="userSpaceOnUse" gradientTransform="translate(1.03115 1.03115) rotate(85.3036) scale(1.9764)">
<stop stop-color="white"/>
<stop offset="1" stop-color="#FAFAFA"/>
</radialGradient>
<radialGradient id="paint26_radial_1102_22617" cx="0" cy="0" r="1" gradientUnits="userSpaceOnUse" gradientTransform="translate(1.03115 1.03115) rotate(85.3036) scale(1.9764)">
<stop stop-color="white"/>
<stop offset="1" stop-color="#FAFAFA"/>
</radialGradient>
<radialGradient id="paint27_radial_1102_22617" cx="0" cy="0" r="1" gradientUnits="userSpaceOnUse" gradientTransform="translate(1.03115 1.03115) rotate(85.3036) scale(1.9764)">
<stop stop-color="white"/>
<stop offset="1" stop-color="#FAFAFA"/>
</radialGradient>
<radialGradient id="paint28_radial_1102_22617" cx="0" cy="0" r="1" gradientUnits="userSpaceOnUse" gradientTransform="translate(1.03115 1.03115) rotate(85.3036) scale(1.9764)">
<stop stop-color="white"/>
<stop offset="1" stop-color="#FAFAFA"/>
</radialGradient>
<radialGradient id="paint29_radial_1102_22617" cx="0" cy="0" r="1" gradientUnits="userSpaceOnUse" gradientTransform="translate(1.03115 1.03115) rotate(85.3036) scale(1.9764)">
<stop stop-color="white"/>
<stop offset="1" stop-color="#FAFAFA"/>
</radialGradient>
<radialGradient id="paint30_radial_1102_22617" cx="0" cy="0" r="1" gradientUnits="userSpaceOnUse" gradientTransform="translate(1.03115 1.03115) rotate(85.3036) scale(1.9764)">
<stop stop-color="white"/>
<stop offset="1" stop-color="#FAFAFA"/>
</radialGradient>
<radialGradient id="paint31_radial_1102_22617" cx="0" cy="0" r="1" gradientUnits="userSpaceOnUse" gradientTransform="translate(1.03115 1.03115) rotate(85.3036) scale(1.9764)">
<stop stop-color="white"/>
<stop offset="1" stop-color="#FAFAFA"/>
</radialGradient>
<radialGradient id="paint32_radial_1102_22617" cx="0" cy="0" r="1" gradientUnits="userSpaceOnUse" gradientTransform="translate(1.03115 1.03115) rotate(85.3036) scale(1.9764)">
<stop stop-color="white"/>
<stop offset="1" stop-color="#FAFAFA"/>
</radialGradient>
<radialGradient id="paint33_radial_1102_22617" cx="0" cy="0" r="1" gradientUnits="userSpaceOnUse" gradientTransform="translate(1.03115 1.03115) rotate(85.3036) scale(1.9764)">
<stop stop-color="white"/>
<stop offset="1" stop-color="#FAFAFA"/>
</radialGradient>
<radialGradient id="paint34_radial_1102_22617" cx="0" cy="0" r="1" gradientUnits="userSpaceOnUse" gradientTransform="translate(1.03115 1.03115) rotate(85.3036) scale(1.9764)">
<stop stop-color="white"/>
<stop offset="1" stop-color="#FAFAFA"/>
</radialGradient>
<radialGradient id="paint35_radial_1102_22617" cx="0" cy="0" r="1" gradientUnits="userSpaceOnUse" gradientTransform="translate(1.03115 1.03115) rotate(85.3036) scale(1.9764)">
<stop stop-color="white"/>
<stop offset="1" stop-color="#FAFAFA"/>
</radialGradient>
<radialGradient id="paint36_radial_1102_22617" cx="0" cy="0" r="1" gradientUnits="userSpaceOnUse" gradientTransform="translate(1.03115 1.03115) rotate(85.3036) scale(1.9764)">
<stop stop-color="white"/>
<stop offset="1" stop-color="#FAFAFA"/>
</radialGradient>
<radialGradient id="paint37_radial_1102_22617" cx="0" cy="0" r="1" gradientUnits="userSpaceOnUse" gradientTransform="translate(1.03115 1.03115) rotate(85.3036) scale(1.9764)">
<stop stop-color="white"/>
<stop offset="1" stop-color="#FAFAFA"/>
</radialGradient>
<radialGradient id="paint38_radial_1102_22617" cx="0" cy="0" r="1" gradientUnits="userSpaceOnUse" gradientTransform="translate(1.03115 1.03115) rotate(85.3036) scale(1.9764)">
<stop stop-color="white"/>
<stop offset="1" stop-color="#FAFAFA"/>
</radialGradient>
<radialGradient id="paint39_radial_1102_22617" cx="0" cy="0" r="1" gradientUnits="userSpaceOnUse" gradientTransform="translate(1.03115 1.03115) rotate(85.3036) scale(1.9764)">
<stop stop-color="white"/>
<stop offset="1" stop-color="#FAFAFA"/>
</radialGradient>
<radialGradient id="paint40_radial_1102_22617" cx="0" cy="0" r="1" gradientUnits="userSpaceOnUse" gradientTransform="translate(1.03115 1.03115) rotate(85.3036) scale(1.9764)">
<stop stop-color="white"/>
<stop offset="1" stop-color="#FAFAFA"/>
</radialGradient>
<radialGradient id="paint41_radial_1102_22617" cx="0" cy="0" r="1" gradientUnits="userSpaceOnUse" gradientTransform="translate(1.03115 1.03115) rotate(85.3036) scale(1.9764)">
<stop stop-color="white"/>
<stop offset="1" stop-color="#FAFAFA"/>
</radialGradient>
<radialGradient id="paint42_radial_1102_22617" cx="0" cy="0" r="1" gradientUnits="userSpaceOnUse" gradientTransform="translate(1.03115 1.03115) rotate(85.3036) scale(1.9764)">
<stop stop-color="white"/>
<stop offset="1" stop-color="#FAFAFA"/>
</radialGradient>
<radialGradient id="paint43_radial_1102_22617" cx="0" cy="0" r="1" gradientUnits="userSpaceOnUse" gradientTransform="translate(1.03115 1.03115) rotate(85.3036) scale(1.9764)">
<stop stop-color="white"/>
<stop offset="1" stop-color="#FAFAFA"/>
</radialGradient>
<radialGradient id="paint44_radial_1102_22617" cx="0" cy="0" r="1" gradientUnits="userSpaceOnUse" gradientTransform="translate(1.03115 1.03115) rotate(85.3036) scale(1.9764)">
<stop stop-color="white"/>
<stop offset="1" stop-color="#FAFAFA"/>
</radialGradient>
<radialGradient id="paint45_radial_1102_22617" cx="0" cy="0" r="1" gradientUnits="userSpaceOnUse" gradientTransform="translate(1.03115 1.03115) rotate(85.3036) scale(1.9764)">
<stop stop-color="white"/>
<stop offset="1" stop-color="#FAFAFA"/>
</radialGradient>
<radialGradient id="paint46_radial_1102_22617" cx="0" cy="0" r="1" gradientUnits="userSpaceOnUse" gradientTransform="translate(1.03115 1.03115) rotate(85.3036) scale(1.9764)">
<stop stop-color="white"/>
<stop offset="1" stop-color="#FAFAFA"/>
</radialGradient>
<radialGradient id="paint47_radial_1102_22617" cx="0" cy="0" r="1" gradientUnits="userSpaceOnUse" gradientTransform="translate(1.03115 1.03115) rotate(85.3036) scale(1.9764)">
<stop stop-color="white"/>
<stop offset="1" stop-color="#FAFAFA"/>
</radialGradient>
<radialGradient id="paint48_radial_1102_22617" cx="0" cy="0" r="1" gradientUnits="userSpaceOnUse" gradientTransform="translate(1.03115 1.03115) rotate(85.3036) scale(1.9764)">
<stop stop-color="white"/>
<stop offset="1" stop-color="#FAFAFA"/>
</radialGradient>
<radialGradient id="paint49_radial_1102_22617" cx="0" cy="0" r="1" gradientUnits="userSpaceOnUse" gradientTransform="translate(1.03115 1.03115) rotate(85.3036) scale(1.9764)">
<stop stop-color="white"/>
<stop offset="1" stop-color="#FAFAFA"/>
</radialGradient>
<radialGradient id="paint50_radial_1102_22617" cx="0" cy="0" r="1" gradientUnits="userSpaceOnUse" gradientTransform="translate(1.03115 1.03115) rotate(85.3036) scale(1.9764)">
<stop stop-color="white"/>
<stop offset="1" stop-color="#FAFAFA"/>
</radialGradient>
<radialGradient id="paint51_radial_1102_22617" cx="0" cy="0" r="1" gradientUnits="userSpaceOnUse" gradientTransform="translate(1.03115 1.03115) rotate(85.3036) scale(1.9764)">
<stop stop-color="white"/>
<stop offset="1" stop-color="#FAFAFA"/>
</radialGradient>
<radialGradient id="paint52_radial_1102_22617" cx="0" cy="0" r="1" gradientUnits="userSpaceOnUse" gradientTransform="translate(1.03115 1.03115) rotate(85.3036) scale(1.9764)">
<stop stop-color="white"/>
<stop offset="1" stop-color="#FAFAFA"/>
</radialGradient>
<radialGradient id="paint53_radial_1102_22617" cx="0" cy="0" r="1" gradientUnits="userSpaceOnUse" gradientTransform="translate(1.03115 1.03115) rotate(85.3036) scale(1.9764)">
<stop stop-color="white"/>
<stop offset="1" stop-color="#FAFAFA"/>
</radialGradient>
<radialGradient id="paint54_radial_1102_22617" cx="0" cy="0" r="1" gradientUnits="userSpaceOnUse" gradientTransform="translate(1.03115 1.03115) rotate(85.3036) scale(1.9764)">
<stop stop-color="white"/>
<stop offset="1" stop-color="#FAFAFA"/>
</radialGradient>
<radialGradient id="paint55_radial_1102_22617" cx="0" cy="0" r="1" gradientUnits="userSpaceOnUse" gradientTransform="translate(1.03115 1.03115) rotate(85.3036) scale(1.9764)">
<stop stop-color="white"/>
<stop offset="1" stop-color="#FAFAFA"/>
</radialGradient>
<radialGradient id="paint56_radial_1102_22617" cx="0" cy="0" r="1" gradientUnits="userSpaceOnUse" gradientTransform="translate(1.03115 1.03115) rotate(85.3036) scale(1.9764)">
<stop stop-color="white"/>
<stop offset="1" stop-color="#FAFAFA"/>
</radialGradient>
<radialGradient id="paint57_radial_1102_22617" cx="0" cy="0" r="1" gradientUnits="userSpaceOnUse" gradientTransform="translate(1.03115 1.03115) rotate(85.3036) scale(1.9764)">
<stop stop-color="white"/>
<stop offset="1" stop-color="#FAFAFA"/>
</radialGradient>
<radialGradient id="paint58_radial_1102_22617" cx="0" cy="0" r="1" gradientUnits="userSpaceOnUse" gradientTransform="translate(1.03115 1.03115) rotate(85.3036) scale(1.9764)">
<stop stop-color="white"/>
<stop offset="1" stop-color="#FAFAFA"/>
</radialGradient>
</defs>
</svg>
