<svg width="191" height="198" viewBox="0 0 191 198" fill="none" xmlns="http://www.w3.org/2000/svg">
<path d="M53.6367 132.28C51.8184 129.972 52.2072 126.634 54.5051 124.825C56.8031 123.016 60.1399 123.42 61.9582 125.728C63.7765 128.035 63.3876 131.373 61.0897 133.182C58.7918 134.992 55.4549 134.587 53.6367 132.28Z" fill="#8E4DD5"/>
<path d="M87.4585 138.238C86.5995 137.148 86.7832 135.571 87.8689 134.716C88.9546 133.861 90.5312 134.052 91.3903 135.142C92.2494 136.233 92.0657 137.81 90.9799 138.664C89.8942 139.519 88.3176 139.328 87.4585 138.238Z" fill="#8E4DD5"/>
<path d="M37.6875 56.0727L48.118 61.8453L51.2881 73.3344L57.0099 62.922L68.4766 59.801L58.0466 54.028L54.8759 42.5393L49.1542 52.9517L37.6875 56.0727Z" fill="#00A98F"/>
<path d="M45.2944 90.9191L50.1868 93.8294L51.8709 99.2658L54.2796 94.5128L59.4663 93.2855L54.5742 90.375L52.8899 84.9388L50.4811 89.6918L45.2944 90.9191Z" fill="#00A98F"/>
<path d="M85.2858 113.967C84.6542 112.395 85.4129 110.615 86.9804 109.99C88.5478 109.365 90.3304 110.132 90.962 111.704C91.5935 113.275 90.8348 115.056 89.2674 115.681C87.6999 116.306 85.9173 115.538 85.2858 113.967Z" fill="white"/>
<path d="M122.786 162.841C122.427 161.947 122.858 160.935 123.75 160.58C124.641 160.224 125.654 160.661 126.013 161.554C126.372 162.448 125.941 163.46 125.05 163.815C124.159 164.171 123.145 163.734 122.786 162.841Z" fill="#00A98F"/>
<path d="M64.205 22.8116L76.4718 25.4132L83.1996 36.0191L85.7444 23.7549L96.3125 17.0696L84.0462 14.4674L77.318 3.86217L74.7731 16.1263L64.205 22.8116Z" fill="#3897FF"/>
<path d="M76.7539 108.416L83.5021 112.27L85.4601 119.775L89.2924 113.054L96.8018 111.131L90.0536 107.277L88.0955 99.7725L84.2634 106.493L76.7539 108.416Z" fill="#FFCC00"/>
<path d="M107.231 152.914L109.417 156.29L108.533 160.206L111.893 158.028L115.802 158.929L113.616 155.553L114.501 151.637L111.141 153.815L107.231 152.914Z" fill="#FFCC00"/>
<path d="M126.557 171.313L128.299 174.004L127.594 177.126L130.273 175.389L133.389 176.108L131.646 173.417L132.351 170.296L129.673 172.032L126.557 171.313Z" fill="#8E4DD5"/>
<path d="M70.5311 82.2073L73.1565 89.2508L81.4804 77.203L78.3608 70.1811L70.5311 82.2073Z" fill="#00A98F"/>
<path d="M88.3683 158.696L92.9363 154.68L81.3557 151.82L76.9493 156.205L88.3683 158.696Z" fill="#3897FF"/>
<path d="M117.814 176.032L120.717 173.479L113.357 171.662L110.556 174.449L117.814 176.032Z" fill="#FFCC00"/>
</svg>
