<svg width="199" height="191" viewBox="0 0 199 191" fill="none" xmlns="http://www.w3.org/2000/svg">
<path d="M134.355 135.844C136.55 133.891 136.741 130.521 134.781 128.317C132.822 126.113 129.453 125.909 127.258 127.862C125.063 129.815 124.872 133.184 126.832 135.389C128.792 137.593 132.16 137.797 134.355 135.844Z" fill="#8E4DD5"/>
<path d="M99.895 135.619C100.932 134.697 101.022 133.105 100.096 132.063C99.1705 131.022 97.5791 130.925 96.542 131.848C95.5048 132.771 95.4147 134.363 96.3406 135.404C97.2665 136.446 98.8579 136.542 99.895 135.619Z" fill="#8E4DD5"/>
<path d="M163.256 63.3859L151.95 67.207L146.836 77.9925L142.975 66.6638L132.178 61.5048L143.483 57.6832L148.597 46.8982L152.459 58.227L163.256 63.3859Z" fill="#00A98F"/>
<path d="M149.731 96.4613L144.393 98.454L141.791 103.524L140.229 98.3896L135.313 96.2384L140.651 94.2455L143.253 89.1755L144.815 94.3101L149.731 96.4613Z" fill="#00A98F"/>
<path d="M106.226 112.017C107.121 110.577 106.678 108.68 105.236 107.778C103.795 106.877 101.9 107.313 101.005 108.753C100.11 110.192 100.553 112.09 101.995 112.991C103.437 113.892 105.331 113.456 106.226 112.017Z" fill="white"/>
<path d="M60.7329 153.555C61.2419 152.737 60.9899 151.658 60.1701 151.146C59.3504 150.633 58.2733 150.881 57.7643 151.7C57.2554 152.518 57.5073 153.597 58.3271 154.109C59.1468 154.622 60.224 154.374 60.7329 153.555Z" fill="#00A98F"/>
<path d="M142.776 25.7078L130.201 26.0619L121.723 35.3308L121.321 22.7458L112.026 14.2255L124.6 13.8708L133.079 4.60244L133.481 17.1875L142.776 25.7078Z" fill="#3897FF"/>
<path d="M115.616 108.072L108.281 110.662L105.052 117.727L102.422 110.39L95.3306 107.131L102.666 104.541L105.895 97.4752L108.524 104.812L115.616 108.072Z" fill="#FFCC00"/>
<path d="M77.8197 146.553L75.0771 149.496L75.2766 153.528L72.3306 150.766L68.3105 150.951L71.0532 148.008L70.8537 143.977L73.7996 146.738L77.8197 146.553Z" fill="#FFCC00"/>
<path d="M55.5448 161.25L53.3587 163.595L53.5177 166.809L51.1696 164.608L47.9653 164.755L50.1514 162.409L49.9924 159.196L52.3405 161.397L55.5448 161.25Z" fill="#8E4DD5"/>
<path d="M126.285 83.2854L122.476 89.7742L116.324 76.3582L120.618 69.98L126.285 83.2854Z" fill="#00A98F"/>
<path d="M95.4701 155.68L91.6466 150.884L103.587 150.151L107.187 155.282L95.4701 155.68Z" fill="#3897FF"/>
<path d="M63.3746 167.496L60.9444 164.447L68.5339 163.981L70.8221 167.243L63.3746 167.496Z" fill="#FFCC00"/>
</svg>
