<svg width="142" height="161" viewBox="0 0 142 161" fill="none" xmlns="http://www.w3.org/2000/svg">
<path d="M113.648 114.806C115.498 113.16 115.658 110.32 114.007 108.462C112.355 106.605 109.516 106.433 107.666 108.079C105.816 109.724 105.655 112.565 107.307 114.422C108.959 116.28 111.797 116.452 113.648 114.806Z" fill="#8E4DD5"/>
<path d="M84.605 114.617C85.4791 113.839 85.5551 112.497 84.7748 111.62C83.9944 110.742 82.6532 110.661 81.779 111.438C80.9049 112.216 80.8289 113.558 81.6093 114.435C82.3897 115.313 83.7309 115.394 84.605 114.617Z" fill="#8E4DD5"/>
<path d="M138.007 53.7374L128.478 56.9579L124.168 66.0481L120.913 56.5L111.813 52.152L121.342 48.9311L125.652 39.8414L128.907 49.3894L138.007 53.7374Z" fill="#00A98F"/>
<path d="M126.607 81.6139L122.108 83.2933L119.915 87.5665L118.599 83.239L114.456 81.426L118.955 79.7463L121.148 75.4733L122.464 79.8008L126.607 81.6139Z" fill="#00A98F"/>
<path d="M89.9401 94.724C90.6946 93.5109 90.3211 91.9117 89.106 91.1521C87.8908 90.3925 86.2942 90.7601 85.5398 91.9732C84.7854 93.1864 85.1589 94.7856 86.374 95.5452C87.5891 96.3048 89.1857 95.9372 89.9401 94.724Z" fill="white"/>
<path d="M51.599 129.733C52.0279 129.044 51.8156 128.134 51.1247 127.702C50.4338 127.271 49.5259 127.48 49.097 128.169C48.668 128.859 48.8804 129.768 49.5713 130.2C50.2622 130.632 51.17 130.423 51.599 129.733Z" fill="#00A98F"/>
<path d="M120.744 21.9818L110.146 22.2802L103 30.0922L102.662 19.4854L94.8281 12.3044L105.426 12.0054L112.572 4.19392L112.91 14.8008L120.744 21.9818Z" fill="#3897FF"/>
<path d="M97.8548 91.3991L91.6728 93.5822L88.9514 99.5372L86.7349 93.3529L80.7578 90.6064L86.9398 88.4234L89.6613 82.4684L91.8778 88.6521L97.8548 91.3991Z" fill="#FFCC00"/>
<path d="M65.9998 123.832L63.6883 126.313L63.8564 129.71L61.3735 127.383L57.9854 127.539L60.2969 125.058L60.1288 121.661L62.6116 123.988L65.9998 123.832Z" fill="#FFCC00"/>
<path d="M47.226 136.218L45.3835 138.195L45.5175 140.903L43.5385 139.048L40.8379 139.173L42.6803 137.195L42.5463 134.487L44.5253 136.342L47.226 136.218Z" fill="#8E4DD5"/>
<path d="M106.846 70.509L103.636 75.9778L98.4509 64.6706L102.07 59.295L106.846 70.509Z" fill="#00A98F"/>
<path d="M80.8754 131.525L77.653 127.482L87.7166 126.864L90.7509 131.189L80.8754 131.525Z" fill="#3897FF"/>
<path d="M53.8253 141.483L51.7771 138.913L58.1737 138.52L60.1022 141.269L53.8253 141.483Z" fill="#FFCC00"/>
</svg>
