<svg width="356" height="269" viewBox="0 0 356 269" fill="none" xmlns="http://www.w3.org/2000/svg">
<g opacity="0.7">
<g opacity="0.5">
<rect y="17.3873" width="24.5893" height="24.5893" rx="5.50861" transform="rotate(-45 0 17.3873)" fill="url(#paint0_radial_1286_13259)"/>
<rect x="45.7919" y="17.3873" width="24.5893" height="24.5893" rx="5.50861" transform="rotate(-45 45.7919 17.3873)" fill="url(#paint1_radial_1286_13259)"/>
<rect x="91.584" y="17.3873" width="24.5893" height="24.5893" rx="5.50861" transform="rotate(-45 91.584 17.3873)" fill="url(#paint2_radial_1286_13259)"/>
<rect x="137.382" y="17.3873" width="24.5893" height="24.5893" rx="5.50861" transform="rotate(-45 137.382 17.3873)" fill="url(#paint3_radial_1286_13259)"/>
<rect x="183.172" y="17.3873" width="24.5893" height="24.5893" rx="5.50861" transform="rotate(-45 183.172 17.3873)" fill="url(#paint4_radial_1286_13259)"/>
<rect x="228.966" y="17.3873" width="24.5893" height="24.5893" rx="5.50861" transform="rotate(-45 228.966 17.3873)" fill="url(#paint5_radial_1286_13259)"/>
<rect x="274.762" y="17.3873" width="24.5893" height="24.5893" rx="5.50861" transform="rotate(-45 274.762 17.3873)" fill="url(#paint6_radial_1286_13259)"/>
<rect x="320.547" y="17.3873" width="24.5893" height="24.5893" rx="5.50861" transform="rotate(-45 320.547 17.3873)" fill="url(#paint7_radial_1286_13259)"/>
</g>
<g opacity="0.5">
<rect y="111.034" width="24.5893" height="24.5893" rx="5.50861" transform="rotate(-45 0 111.034)" fill="url(#paint8_radial_1286_13259)"/>
<rect x="45.7919" y="111.034" width="24.5893" height="24.5893" rx="5.50861" transform="rotate(-45 45.7919 111.034)" fill="url(#paint9_radial_1286_13259)"/>
<rect x="91.584" y="111.034" width="24.5893" height="24.5893" rx="5.50861" transform="rotate(-45 91.584 111.034)" fill="url(#paint10_radial_1286_13259)"/>
<rect x="137.382" y="111.034" width="24.5893" height="24.5893" rx="5.50861" transform="rotate(-45 137.382 111.034)" fill="url(#paint11_radial_1286_13259)"/>
<rect x="183.172" y="111.034" width="24.5893" height="24.5893" rx="5.50861" transform="rotate(-45 183.172 111.034)" fill="url(#paint12_radial_1286_13259)"/>
<rect x="228.966" y="111.034" width="24.5893" height="24.5893" rx="5.50861" transform="rotate(-45 228.966 111.034)" fill="url(#paint13_radial_1286_13259)"/>
<rect x="274.762" y="111.034" width="24.5893" height="24.5893" rx="5.50861" transform="rotate(-45 274.762 111.034)" fill="url(#paint14_radial_1286_13259)"/>
<rect x="320.547" y="111.034" width="24.5893" height="24.5893" rx="5.50861" transform="rotate(-45 320.547 111.034)" fill="url(#paint15_radial_1286_13259)"/>
</g>
<g opacity="0.5">
<rect y="204.68" width="24.5893" height="24.5893" rx="5.50861" transform="rotate(-45 0 204.68)" fill="url(#paint16_radial_1286_13259)"/>
<rect x="45.7919" y="204.68" width="24.5893" height="24.5893" rx="5.50861" transform="rotate(-45 45.7919 204.68)" fill="url(#paint17_radial_1286_13259)"/>
<rect x="91.584" y="204.68" width="24.5893" height="24.5893" rx="5.50861" transform="rotate(-45 91.584 204.68)" fill="url(#paint18_radial_1286_13259)"/>
<rect x="137.382" y="204.68" width="24.5893" height="24.5893" rx="5.50861" transform="rotate(-45 137.382 204.68)" fill="url(#paint19_radial_1286_13259)"/>
<rect x="183.172" y="204.68" width="24.5893" height="24.5893" rx="5.50861" transform="rotate(-45 183.172 204.68)" fill="url(#paint20_radial_1286_13259)"/>
<rect x="228.966" y="204.68" width="24.5893" height="24.5893" rx="5.50861" transform="rotate(-45 228.966 204.68)" fill="url(#paint21_radial_1286_13259)"/>
<rect x="274.762" y="204.68" width="24.5893" height="24.5893" rx="5.50861" transform="rotate(-45 274.762 204.68)" fill="url(#paint22_radial_1286_13259)"/>
<rect x="320.547" y="204.68" width="24.5893" height="24.5893" rx="5.50861" transform="rotate(-45 320.547 204.68)" fill="url(#paint23_radial_1286_13259)"/>
</g>
<g opacity="0.5">
<rect y="64.2102" width="24.5893" height="24.5893" rx="5.50861" transform="rotate(-45 0 64.2102)" fill="url(#paint24_radial_1286_13259)"/>
<rect x="45.7919" y="64.2102" width="24.5893" height="24.5893" rx="5.50861" transform="rotate(-45 45.7919 64.2102)" fill="url(#paint25_radial_1286_13259)"/>
<rect x="91.584" y="64.2102" width="24.5893" height="24.5893" rx="5.50861" transform="rotate(-45 91.584 64.2102)" fill="url(#paint26_radial_1286_13259)"/>
<rect x="137.382" y="64.2102" width="24.5893" height="24.5893" rx="5.50861" transform="rotate(-45 137.382 64.2102)" fill="url(#paint27_radial_1286_13259)"/>
<rect x="183.172" y="64.2102" width="24.5893" height="24.5893" rx="5.50861" transform="rotate(-45 183.172 64.2102)" fill="url(#paint28_radial_1286_13259)"/>
<rect x="228.966" y="64.2102" width="24.5893" height="24.5893" rx="5.50861" transform="rotate(-45 228.966 64.2102)" fill="url(#paint29_radial_1286_13259)"/>
<rect x="274.762" y="64.2102" width="24.5893" height="24.5893" rx="5.50861" transform="rotate(-45 274.762 64.2102)" fill="url(#paint30_radial_1286_13259)"/>
<rect x="320.547" y="64.2102" width="24.5893" height="24.5893" rx="5.50861" transform="rotate(-45 320.547 64.2102)" fill="url(#paint31_radial_1286_13259)"/>
</g>
<g opacity="0.5">
<rect y="157.858" width="24.5893" height="24.5893" rx="5.50861" transform="rotate(-45 0 157.858)" fill="url(#paint32_radial_1286_13259)"/>
<rect x="45.7919" y="157.858" width="24.5893" height="24.5893" rx="5.50861" transform="rotate(-45 45.7919 157.858)" fill="url(#paint33_radial_1286_13259)"/>
<rect x="91.584" y="157.858" width="24.5893" height="24.5893" rx="5.50861" transform="rotate(-45 91.584 157.858)" fill="url(#paint34_radial_1286_13259)"/>
<rect x="137.382" y="157.858" width="24.5893" height="24.5893" rx="5.50861" transform="rotate(-45 137.382 157.858)" fill="url(#paint35_radial_1286_13259)"/>
<rect x="183.172" y="157.858" width="24.5893" height="24.5893" rx="5.50861" transform="rotate(-45 183.172 157.858)" fill="url(#paint36_radial_1286_13259)"/>
<rect x="228.966" y="157.858" width="24.5893" height="24.5893" rx="5.50861" transform="rotate(-45 228.966 157.858)" fill="url(#paint37_radial_1286_13259)"/>
<rect x="274.762" y="157.858" width="24.5893" height="24.5893" rx="5.50861" transform="rotate(-45 274.762 157.858)" fill="url(#paint38_radial_1286_13259)"/>
<rect x="320.547" y="157.858" width="24.5893" height="24.5893" rx="5.50861" transform="rotate(-45 320.547 157.858)" fill="url(#paint39_radial_1286_13259)"/>
</g>
<g opacity="0.5">
<rect y="251.503" width="24.5893" height="24.5893" rx="5.50861" transform="rotate(-45 0 251.503)" fill="url(#paint40_radial_1286_13259)"/>
<rect x="45.7919" y="251.503" width="24.5893" height="24.5893" rx="5.50861" transform="rotate(-45 45.7919 251.503)" fill="url(#paint41_radial_1286_13259)"/>
<rect x="91.584" y="251.503" width="24.5893" height="24.5893" rx="5.50861" transform="rotate(-45 91.584 251.503)" fill="url(#paint42_radial_1286_13259)"/>
<rect x="137.382" y="251.504" width="24.5893" height="24.5893" rx="5.50861" transform="rotate(-45 137.382 251.504)" fill="url(#paint43_radial_1286_13259)"/>
<rect x="183.172" y="251.503" width="24.5893" height="24.5893" rx="5.50861" transform="rotate(-45 183.172 251.503)" fill="url(#paint44_radial_1286_13259)"/>
<rect x="228.966" y="251.503" width="24.5893" height="24.5893" rx="5.50861" transform="rotate(-45 228.966 251.503)" fill="url(#paint45_radial_1286_13259)"/>
<rect x="274.762" y="251.503" width="24.5893" height="24.5893" rx="5.50861" transform="rotate(-45 274.762 251.503)" fill="url(#paint46_radial_1286_13259)"/>
<rect x="320.547" y="251.503" width="24.5893" height="24.5893" rx="5.50861" transform="rotate(-45 320.547 251.503)" fill="url(#paint47_radial_1286_13259)"/>
</g>
</g>
<defs>
<radialGradient id="paint0_radial_1286_13259" cx="0" cy="0" r="1" gradientUnits="userSpaceOnUse" gradientTransform="translate(12.2947 29.682) rotate(85.3036) scale(23.5653)">
<stop stop-color="#F1F1F1"/>
<stop offset="1" stop-color="#FAFAFA"/>
</radialGradient>
<radialGradient id="paint1_radial_1286_13259" cx="0" cy="0" r="1" gradientUnits="userSpaceOnUse" gradientTransform="translate(58.0865 29.682) rotate(85.3036) scale(23.5653)">
<stop stop-color="#F1F1F1"/>
<stop offset="1" stop-color="#FAFAFA"/>
</radialGradient>
<radialGradient id="paint2_radial_1286_13259" cx="0" cy="0" r="1" gradientUnits="userSpaceOnUse" gradientTransform="translate(103.879 29.682) rotate(85.3036) scale(23.5653)">
<stop stop-color="#F1F1F1"/>
<stop offset="1" stop-color="#FAFAFA"/>
</radialGradient>
<radialGradient id="paint3_radial_1286_13259" cx="0" cy="0" r="1" gradientUnits="userSpaceOnUse" gradientTransform="translate(149.677 29.682) rotate(85.3036) scale(23.5653)">
<stop stop-color="#F1F1F1"/>
<stop offset="1" stop-color="#FAFAFA"/>
</radialGradient>
<radialGradient id="paint4_radial_1286_13259" cx="0" cy="0" r="1" gradientUnits="userSpaceOnUse" gradientTransform="translate(195.467 29.682) rotate(85.3036) scale(23.5653)">
<stop stop-color="#F1F1F1"/>
<stop offset="1" stop-color="#FAFAFA"/>
</radialGradient>
<radialGradient id="paint5_radial_1286_13259" cx="0" cy="0" r="1" gradientUnits="userSpaceOnUse" gradientTransform="translate(241.261 29.682) rotate(85.3036) scale(23.5653)">
<stop stop-color="#F1F1F1"/>
<stop offset="1" stop-color="#FAFAFA"/>
</radialGradient>
<radialGradient id="paint6_radial_1286_13259" cx="0" cy="0" r="1" gradientUnits="userSpaceOnUse" gradientTransform="translate(287.057 29.682) rotate(85.3036) scale(23.5653)">
<stop stop-color="#F1F1F1"/>
<stop offset="1" stop-color="#FAFAFA"/>
</radialGradient>
<radialGradient id="paint7_radial_1286_13259" cx="0" cy="0" r="1" gradientUnits="userSpaceOnUse" gradientTransform="translate(332.842 29.682) rotate(85.3036) scale(23.5653)">
<stop stop-color="#F1F1F1"/>
<stop offset="1" stop-color="#FAFAFA"/>
</radialGradient>
<radialGradient id="paint8_radial_1286_13259" cx="0" cy="0" r="1" gradientUnits="userSpaceOnUse" gradientTransform="translate(12.2947 123.329) rotate(85.3036) scale(23.5653)">
<stop stop-color="#F1F1F1"/>
<stop offset="1" stop-color="#FAFAFA"/>
</radialGradient>
<radialGradient id="paint9_radial_1286_13259" cx="0" cy="0" r="1" gradientUnits="userSpaceOnUse" gradientTransform="translate(58.0865 123.329) rotate(85.3036) scale(23.5653)">
<stop stop-color="#F1F1F1"/>
<stop offset="1" stop-color="#FAFAFA"/>
</radialGradient>
<radialGradient id="paint10_radial_1286_13259" cx="0" cy="0" r="1" gradientUnits="userSpaceOnUse" gradientTransform="translate(103.879 123.329) rotate(85.3036) scale(23.5653)">
<stop stop-color="#F1F1F1"/>
<stop offset="1" stop-color="#FAFAFA"/>
</radialGradient>
<radialGradient id="paint11_radial_1286_13259" cx="0" cy="0" r="1" gradientUnits="userSpaceOnUse" gradientTransform="translate(149.677 123.329) rotate(85.3036) scale(23.5653)">
<stop stop-color="#F1F1F1"/>
<stop offset="1" stop-color="#FAFAFA"/>
</radialGradient>
<radialGradient id="paint12_radial_1286_13259" cx="0" cy="0" r="1" gradientUnits="userSpaceOnUse" gradientTransform="translate(195.467 123.329) rotate(85.3036) scale(23.5653)">
<stop stop-color="#F1F1F1"/>
<stop offset="1" stop-color="#FAFAFA"/>
</radialGradient>
<radialGradient id="paint13_radial_1286_13259" cx="0" cy="0" r="1" gradientUnits="userSpaceOnUse" gradientTransform="translate(241.261 123.329) rotate(85.3036) scale(23.5653)">
<stop stop-color="#F1F1F1"/>
<stop offset="1" stop-color="#FAFAFA"/>
</radialGradient>
<radialGradient id="paint14_radial_1286_13259" cx="0" cy="0" r="1" gradientUnits="userSpaceOnUse" gradientTransform="translate(287.057 123.329) rotate(85.3036) scale(23.5653)">
<stop stop-color="#F1F1F1"/>
<stop offset="1" stop-color="#FAFAFA"/>
</radialGradient>
<radialGradient id="paint15_radial_1286_13259" cx="0" cy="0" r="1" gradientUnits="userSpaceOnUse" gradientTransform="translate(332.842 123.329) rotate(85.3036) scale(23.5653)">
<stop stop-color="#F1F1F1"/>
<stop offset="1" stop-color="#FAFAFA"/>
</radialGradient>
<radialGradient id="paint16_radial_1286_13259" cx="0" cy="0" r="1" gradientUnits="userSpaceOnUse" gradientTransform="translate(12.2947 216.975) rotate(85.3036) scale(23.5653)">
<stop stop-color="#F1F1F1"/>
<stop offset="1" stop-color="#FAFAFA"/>
</radialGradient>
<radialGradient id="paint17_radial_1286_13259" cx="0" cy="0" r="1" gradientUnits="userSpaceOnUse" gradientTransform="translate(58.0865 216.975) rotate(85.3036) scale(23.5653)">
<stop stop-color="#F1F1F1"/>
<stop offset="1" stop-color="#FAFAFA"/>
</radialGradient>
<radialGradient id="paint18_radial_1286_13259" cx="0" cy="0" r="1" gradientUnits="userSpaceOnUse" gradientTransform="translate(103.879 216.975) rotate(85.3036) scale(23.5653)">
<stop stop-color="#F1F1F1"/>
<stop offset="1" stop-color="#FAFAFA"/>
</radialGradient>
<radialGradient id="paint19_radial_1286_13259" cx="0" cy="0" r="1" gradientUnits="userSpaceOnUse" gradientTransform="translate(149.677 216.975) rotate(85.3036) scale(23.5653)">
<stop stop-color="#F1F1F1"/>
<stop offset="1" stop-color="#FAFAFA"/>
</radialGradient>
<radialGradient id="paint20_radial_1286_13259" cx="0" cy="0" r="1" gradientUnits="userSpaceOnUse" gradientTransform="translate(195.467 216.975) rotate(85.3036) scale(23.5653)">
<stop stop-color="#F1F1F1"/>
<stop offset="1" stop-color="#FAFAFA"/>
</radialGradient>
<radialGradient id="paint21_radial_1286_13259" cx="0" cy="0" r="1" gradientUnits="userSpaceOnUse" gradientTransform="translate(241.261 216.975) rotate(85.3036) scale(23.5653)">
<stop stop-color="#F1F1F1"/>
<stop offset="1" stop-color="#FAFAFA"/>
</radialGradient>
<radialGradient id="paint22_radial_1286_13259" cx="0" cy="0" r="1" gradientUnits="userSpaceOnUse" gradientTransform="translate(287.057 216.975) rotate(85.3036) scale(23.5653)">
<stop stop-color="#F1F1F1"/>
<stop offset="1" stop-color="#FAFAFA"/>
</radialGradient>
<radialGradient id="paint23_radial_1286_13259" cx="0" cy="0" r="1" gradientUnits="userSpaceOnUse" gradientTransform="translate(332.842 216.975) rotate(85.3036) scale(23.5653)">
<stop stop-color="#F1F1F1"/>
<stop offset="1" stop-color="#FAFAFA"/>
</radialGradient>
<radialGradient id="paint24_radial_1286_13259" cx="0" cy="0" r="1" gradientUnits="userSpaceOnUse" gradientTransform="translate(12.2947 76.5049) rotate(85.3036) scale(23.5653)">
<stop stop-color="#F1F1F1"/>
<stop offset="1" stop-color="#FAFAFA"/>
</radialGradient>
<radialGradient id="paint25_radial_1286_13259" cx="0" cy="0" r="1" gradientUnits="userSpaceOnUse" gradientTransform="translate(58.0865 76.5049) rotate(85.3036) scale(23.5653)">
<stop stop-color="#F1F1F1"/>
<stop offset="1" stop-color="#FAFAFA"/>
</radialGradient>
<radialGradient id="paint26_radial_1286_13259" cx="0" cy="0" r="1" gradientUnits="userSpaceOnUse" gradientTransform="translate(103.879 76.5049) rotate(85.3036) scale(23.5653)">
<stop stop-color="#F1F1F1"/>
<stop offset="1" stop-color="#FAFAFA"/>
</radialGradient>
<radialGradient id="paint27_radial_1286_13259" cx="0" cy="0" r="1" gradientUnits="userSpaceOnUse" gradientTransform="translate(149.677 76.5049) rotate(85.3036) scale(23.5653)">
<stop stop-color="#F1F1F1"/>
<stop offset="1" stop-color="#FAFAFA"/>
</radialGradient>
<radialGradient id="paint28_radial_1286_13259" cx="0" cy="0" r="1" gradientUnits="userSpaceOnUse" gradientTransform="translate(195.467 76.5049) rotate(85.3036) scale(23.5653)">
<stop stop-color="#F1F1F1"/>
<stop offset="1" stop-color="#FAFAFA"/>
</radialGradient>
<radialGradient id="paint29_radial_1286_13259" cx="0" cy="0" r="1" gradientUnits="userSpaceOnUse" gradientTransform="translate(241.261 76.5049) rotate(85.3036) scale(23.5653)">
<stop stop-color="#F1F1F1"/>
<stop offset="1" stop-color="#FAFAFA"/>
</radialGradient>
<radialGradient id="paint30_radial_1286_13259" cx="0" cy="0" r="1" gradientUnits="userSpaceOnUse" gradientTransform="translate(287.057 76.5049) rotate(85.3036) scale(23.5653)">
<stop stop-color="#F1F1F1"/>
<stop offset="1" stop-color="#FAFAFA"/>
</radialGradient>
<radialGradient id="paint31_radial_1286_13259" cx="0" cy="0" r="1" gradientUnits="userSpaceOnUse" gradientTransform="translate(332.842 76.5049) rotate(85.3036) scale(23.5653)">
<stop stop-color="#F1F1F1"/>
<stop offset="1" stop-color="#FAFAFA"/>
</radialGradient>
<radialGradient id="paint32_radial_1286_13259" cx="0" cy="0" r="1" gradientUnits="userSpaceOnUse" gradientTransform="translate(12.2947 170.152) rotate(85.3036) scale(23.5653)">
<stop stop-color="#F1F1F1"/>
<stop offset="1" stop-color="#FAFAFA"/>
</radialGradient>
<radialGradient id="paint33_radial_1286_13259" cx="0" cy="0" r="1" gradientUnits="userSpaceOnUse" gradientTransform="translate(58.0865 170.152) rotate(85.3036) scale(23.5653)">
<stop stop-color="#F1F1F1"/>
<stop offset="1" stop-color="#FAFAFA"/>
</radialGradient>
<radialGradient id="paint34_radial_1286_13259" cx="0" cy="0" r="1" gradientUnits="userSpaceOnUse" gradientTransform="translate(103.879 170.152) rotate(85.3036) scale(23.5653)">
<stop stop-color="#F1F1F1"/>
<stop offset="1" stop-color="#FAFAFA"/>
</radialGradient>
<radialGradient id="paint35_radial_1286_13259" cx="0" cy="0" r="1" gradientUnits="userSpaceOnUse" gradientTransform="translate(149.677 170.152) rotate(85.3036) scale(23.5653)">
<stop stop-color="#F1F1F1"/>
<stop offset="1" stop-color="#FAFAFA"/>
</radialGradient>
<radialGradient id="paint36_radial_1286_13259" cx="0" cy="0" r="1" gradientUnits="userSpaceOnUse" gradientTransform="translate(195.467 170.152) rotate(85.3036) scale(23.5653)">
<stop stop-color="#F1F1F1"/>
<stop offset="1" stop-color="#FAFAFA"/>
</radialGradient>
<radialGradient id="paint37_radial_1286_13259" cx="0" cy="0" r="1" gradientUnits="userSpaceOnUse" gradientTransform="translate(241.261 170.152) rotate(85.3036) scale(23.5653)">
<stop stop-color="#F1F1F1"/>
<stop offset="1" stop-color="#FAFAFA"/>
</radialGradient>
<radialGradient id="paint38_radial_1286_13259" cx="0" cy="0" r="1" gradientUnits="userSpaceOnUse" gradientTransform="translate(287.057 170.152) rotate(85.3036) scale(23.5653)">
<stop stop-color="#F1F1F1"/>
<stop offset="1" stop-color="#FAFAFA"/>
</radialGradient>
<radialGradient id="paint39_radial_1286_13259" cx="0" cy="0" r="1" gradientUnits="userSpaceOnUse" gradientTransform="translate(332.842 170.152) rotate(85.3036) scale(23.5653)">
<stop stop-color="#F1F1F1"/>
<stop offset="1" stop-color="#FAFAFA"/>
</radialGradient>
<radialGradient id="paint40_radial_1286_13259" cx="0" cy="0" r="1" gradientUnits="userSpaceOnUse" gradientTransform="translate(12.2947 263.798) rotate(85.3036) scale(23.5653)">
<stop stop-color="#F1F1F1"/>
<stop offset="1" stop-color="#FAFAFA"/>
</radialGradient>
<radialGradient id="paint41_radial_1286_13259" cx="0" cy="0" r="1" gradientUnits="userSpaceOnUse" gradientTransform="translate(58.0865 263.798) rotate(85.3036) scale(23.5653)">
<stop stop-color="#F1F1F1"/>
<stop offset="1" stop-color="#FAFAFA"/>
</radialGradient>
<radialGradient id="paint42_radial_1286_13259" cx="0" cy="0" r="1" gradientUnits="userSpaceOnUse" gradientTransform="translate(103.879 263.798) rotate(85.3036) scale(23.5653)">
<stop stop-color="#F1F1F1"/>
<stop offset="1" stop-color="#FAFAFA"/>
</radialGradient>
<radialGradient id="paint43_radial_1286_13259" cx="0" cy="0" r="1" gradientUnits="userSpaceOnUse" gradientTransform="translate(149.677 263.799) rotate(85.3036) scale(23.5653)">
<stop stop-color="#F1F1F1"/>
<stop offset="1" stop-color="#FAFAFA"/>
</radialGradient>
<radialGradient id="paint44_radial_1286_13259" cx="0" cy="0" r="1" gradientUnits="userSpaceOnUse" gradientTransform="translate(195.467 263.798) rotate(85.3036) scale(23.5653)">
<stop stop-color="#F1F1F1"/>
<stop offset="1" stop-color="#FAFAFA"/>
</radialGradient>
<radialGradient id="paint45_radial_1286_13259" cx="0" cy="0" r="1" gradientUnits="userSpaceOnUse" gradientTransform="translate(241.261 263.798) rotate(85.3036) scale(23.5653)">
<stop stop-color="#F1F1F1"/>
<stop offset="1" stop-color="#FAFAFA"/>
</radialGradient>
<radialGradient id="paint46_radial_1286_13259" cx="0" cy="0" r="1" gradientUnits="userSpaceOnUse" gradientTransform="translate(287.057 263.798) rotate(85.3036) scale(23.5653)">
<stop stop-color="#F1F1F1"/>
<stop offset="1" stop-color="#FAFAFA"/>
</radialGradient>
<radialGradient id="paint47_radial_1286_13259" cx="0" cy="0" r="1" gradientUnits="userSpaceOnUse" gradientTransform="translate(332.842 263.798) rotate(85.3036) scale(23.5653)">
<stop stop-color="#F1F1F1"/>
<stop offset="1" stop-color="#FAFAFA"/>
</radialGradient>
</defs>
</svg>
