<svg width="187" height="190" viewBox="0 0 187 190" fill="none" xmlns="http://www.w3.org/2000/svg">
<g opacity="0.7">
<g opacity="0.5">
<rect y="12.2859" width="17.375" height="17.375" rx="3.89242" transform="rotate(-45 0 12.2859)" fill="url(#paint0_radial_1361_13035)"/>
<rect x="32.3564" y="12.2859" width="17.375" height="17.375" rx="3.89242" transform="rotate(-45 32.3564 12.2859)" fill="url(#paint1_radial_1361_13035)"/>
<rect x="64.7139" y="12.2859" width="17.375" height="17.375" rx="3.89242" transform="rotate(-45 64.7139 12.2859)" fill="url(#paint2_radial_1361_13035)"/>
<rect x="97.0752" y="12.2859" width="17.375" height="17.375" rx="3.89242" transform="rotate(-45 97.0752 12.2859)" fill="url(#paint3_radial_1361_13035)"/>
<rect x="129.431" y="12.2859" width="17.375" height="17.375" rx="3.89242" transform="rotate(-45 129.431 12.2859)" fill="url(#paint4_radial_1361_13035)"/>
<rect x="161.788" y="12.2859" width="17.375" height="17.375" rx="3.89242" transform="rotate(-45 161.788 12.2859)" fill="url(#paint5_radial_1361_13035)"/>
</g>
<g opacity="0.5">
<rect y="78.4576" width="17.375" height="17.375" rx="3.89242" transform="rotate(-45 0 78.4576)" fill="url(#paint6_radial_1361_13035)"/>
<rect x="32.3564" y="78.4576" width="17.375" height="17.375" rx="3.89242" transform="rotate(-45 32.3564 78.4576)" fill="url(#paint7_radial_1361_13035)"/>
<rect x="64.7139" y="78.4576" width="17.375" height="17.375" rx="3.89242" transform="rotate(-45 64.7139 78.4576)" fill="url(#paint8_radial_1361_13035)"/>
<rect x="97.0752" y="78.4576" width="17.375" height="17.375" rx="3.89242" transform="rotate(-45 97.0752 78.4576)" fill="url(#paint9_radial_1361_13035)"/>
<rect x="129.431" y="78.4576" width="17.375" height="17.375" rx="3.89242" transform="rotate(-45 129.431 78.4576)" fill="url(#paint10_radial_1361_13035)"/>
<rect x="161.788" y="78.4576" width="17.375" height="17.375" rx="3.89242" transform="rotate(-45 161.788 78.4576)" fill="url(#paint11_radial_1361_13035)"/>
</g>
<g opacity="0.5">
<rect y="144.628" width="17.375" height="17.375" rx="3.89242" transform="rotate(-45 0 144.628)" fill="url(#paint12_radial_1361_13035)"/>
<rect x="32.3564" y="144.628" width="17.375" height="17.375" rx="3.89242" transform="rotate(-45 32.3564 144.628)" fill="url(#paint13_radial_1361_13035)"/>
<rect x="64.7139" y="144.628" width="17.375" height="17.375" rx="3.89242" transform="rotate(-45 64.7139 144.628)" fill="url(#paint14_radial_1361_13035)"/>
<rect x="97.0752" y="144.628" width="17.375" height="17.375" rx="3.89242" transform="rotate(-45 97.0752 144.628)" fill="url(#paint15_radial_1361_13035)"/>
<rect x="129.431" y="144.628" width="17.375" height="17.375" rx="3.89242" transform="rotate(-45 129.431 144.628)" fill="url(#paint16_radial_1361_13035)"/>
<rect x="161.788" y="144.628" width="17.375" height="17.375" rx="3.89242" transform="rotate(-45 161.788 144.628)" fill="url(#paint17_radial_1361_13035)"/>
</g>
<g opacity="0.5">
<rect y="45.3713" width="17.375" height="17.375" rx="3.89242" transform="rotate(-45 0 45.3713)" fill="url(#paint18_radial_1361_13035)"/>
<rect x="32.3564" y="45.3713" width="17.375" height="17.375" rx="3.89242" transform="rotate(-45 32.3564 45.3713)" fill="url(#paint19_radial_1361_13035)"/>
<rect x="64.7139" y="45.3713" width="17.375" height="17.375" rx="3.89242" transform="rotate(-45 64.7139 45.3713)" fill="url(#paint20_radial_1361_13035)"/>
<rect x="97.0752" y="45.3713" width="17.375" height="17.375" rx="3.89242" transform="rotate(-45 97.0752 45.3713)" fill="url(#paint21_radial_1361_13035)"/>
<rect x="129.431" y="45.3713" width="17.375" height="17.375" rx="3.89242" transform="rotate(-45 129.431 45.3713)" fill="url(#paint22_radial_1361_13035)"/>
<rect x="161.788" y="45.3713" width="17.375" height="17.375" rx="3.89242" transform="rotate(-45 161.788 45.3713)" fill="url(#paint23_radial_1361_13035)"/>
</g>
<g opacity="0.5">
<rect y="111.543" width="17.375" height="17.375" rx="3.89242" transform="rotate(-45 0 111.543)" fill="url(#paint24_radial_1361_13035)"/>
<rect x="32.3564" y="111.543" width="17.375" height="17.375" rx="3.89242" transform="rotate(-45 32.3564 111.543)" fill="url(#paint25_radial_1361_13035)"/>
<rect x="64.7139" y="111.543" width="17.375" height="17.375" rx="3.89242" transform="rotate(-45 64.7139 111.543)" fill="url(#paint26_radial_1361_13035)"/>
<rect x="97.0752" y="111.543" width="17.375" height="17.375" rx="3.89242" transform="rotate(-45 97.0752 111.543)" fill="url(#paint27_radial_1361_13035)"/>
<rect x="129.431" y="111.543" width="17.375" height="17.375" rx="3.89242" transform="rotate(-45 129.431 111.543)" fill="url(#paint28_radial_1361_13035)"/>
<rect x="161.788" y="111.543" width="17.375" height="17.375" rx="3.89242" transform="rotate(-45 161.788 111.543)" fill="url(#paint29_radial_1361_13035)"/>
</g>
<g opacity="0.5">
<rect y="177.714" width="17.375" height="17.375" rx="3.89242" transform="rotate(-45 0 177.714)" fill="url(#paint30_radial_1361_13035)"/>
<rect x="32.3564" y="177.714" width="17.375" height="17.375" rx="3.89242" transform="rotate(-45 32.3564 177.714)" fill="url(#paint31_radial_1361_13035)"/>
<rect x="64.7139" y="177.714" width="17.375" height="17.375" rx="3.89242" transform="rotate(-45 64.7139 177.714)" fill="url(#paint32_radial_1361_13035)"/>
<rect x="97.0752" y="177.714" width="17.375" height="17.375" rx="3.89242" transform="rotate(-45 97.0752 177.714)" fill="url(#paint33_radial_1361_13035)"/>
<rect x="129.431" y="177.714" width="17.375" height="17.375" rx="3.89242" transform="rotate(-45 129.431 177.714)" fill="url(#paint34_radial_1361_13035)"/>
<rect x="161.788" y="177.714" width="17.375" height="17.375" rx="3.89242" transform="rotate(-45 161.788 177.714)" fill="url(#paint35_radial_1361_13035)"/>
</g>
</g>
<defs>
<radialGradient id="paint0_radial_1361_13035" cx="0" cy="0" r="1" gradientUnits="userSpaceOnUse" gradientTransform="translate(8.68748 20.9734) rotate(85.3036) scale(16.6513)">
<stop stop-color="#F1F1F1"/>
<stop offset="1" stop-color="#FAFAFA"/>
</radialGradient>
<radialGradient id="paint1_radial_1361_13035" cx="0" cy="0" r="1" gradientUnits="userSpaceOnUse" gradientTransform="translate(41.0439 20.9734) rotate(85.3036) scale(16.6513)">
<stop stop-color="#F1F1F1"/>
<stop offset="1" stop-color="#FAFAFA"/>
</radialGradient>
<radialGradient id="paint2_radial_1361_13035" cx="0" cy="0" r="1" gradientUnits="userSpaceOnUse" gradientTransform="translate(73.4014 20.9734) rotate(85.3036) scale(16.6513)">
<stop stop-color="#F1F1F1"/>
<stop offset="1" stop-color="#FAFAFA"/>
</radialGradient>
<radialGradient id="paint3_radial_1361_13035" cx="0" cy="0" r="1" gradientUnits="userSpaceOnUse" gradientTransform="translate(105.763 20.9734) rotate(85.3036) scale(16.6513)">
<stop stop-color="#F1F1F1"/>
<stop offset="1" stop-color="#FAFAFA"/>
</radialGradient>
<radialGradient id="paint4_radial_1361_13035" cx="0" cy="0" r="1" gradientUnits="userSpaceOnUse" gradientTransform="translate(138.118 20.9734) rotate(85.3036) scale(16.6513)">
<stop stop-color="#F1F1F1"/>
<stop offset="1" stop-color="#FAFAFA"/>
</radialGradient>
<radialGradient id="paint5_radial_1361_13035" cx="0" cy="0" r="1" gradientUnits="userSpaceOnUse" gradientTransform="translate(170.476 20.9734) rotate(85.3036) scale(16.6513)">
<stop stop-color="#F1F1F1"/>
<stop offset="1" stop-color="#FAFAFA"/>
</radialGradient>
<radialGradient id="paint6_radial_1361_13035" cx="0" cy="0" r="1" gradientUnits="userSpaceOnUse" gradientTransform="translate(8.68748 87.1451) rotate(85.3036) scale(16.6513)">
<stop stop-color="#F1F1F1"/>
<stop offset="1" stop-color="#FAFAFA"/>
</radialGradient>
<radialGradient id="paint7_radial_1361_13035" cx="0" cy="0" r="1" gradientUnits="userSpaceOnUse" gradientTransform="translate(41.0439 87.1451) rotate(85.3036) scale(16.6513)">
<stop stop-color="#F1F1F1"/>
<stop offset="1" stop-color="#FAFAFA"/>
</radialGradient>
<radialGradient id="paint8_radial_1361_13035" cx="0" cy="0" r="1" gradientUnits="userSpaceOnUse" gradientTransform="translate(73.4014 87.1451) rotate(85.3036) scale(16.6513)">
<stop stop-color="#F1F1F1"/>
<stop offset="1" stop-color="#FAFAFA"/>
</radialGradient>
<radialGradient id="paint9_radial_1361_13035" cx="0" cy="0" r="1" gradientUnits="userSpaceOnUse" gradientTransform="translate(105.763 87.1451) rotate(85.3036) scale(16.6513)">
<stop stop-color="#F1F1F1"/>
<stop offset="1" stop-color="#FAFAFA"/>
</radialGradient>
<radialGradient id="paint10_radial_1361_13035" cx="0" cy="0" r="1" gradientUnits="userSpaceOnUse" gradientTransform="translate(138.118 87.1451) rotate(85.3036) scale(16.6513)">
<stop stop-color="#F1F1F1"/>
<stop offset="1" stop-color="#FAFAFA"/>
</radialGradient>
<radialGradient id="paint11_radial_1361_13035" cx="0" cy="0" r="1" gradientUnits="userSpaceOnUse" gradientTransform="translate(170.476 87.1451) rotate(85.3036) scale(16.6513)">
<stop stop-color="#F1F1F1"/>
<stop offset="1" stop-color="#FAFAFA"/>
</radialGradient>
<radialGradient id="paint12_radial_1361_13035" cx="0" cy="0" r="1" gradientUnits="userSpaceOnUse" gradientTransform="translate(8.68748 153.316) rotate(85.3036) scale(16.6513)">
<stop stop-color="#F1F1F1"/>
<stop offset="1" stop-color="#FAFAFA"/>
</radialGradient>
<radialGradient id="paint13_radial_1361_13035" cx="0" cy="0" r="1" gradientUnits="userSpaceOnUse" gradientTransform="translate(41.0439 153.316) rotate(85.3036) scale(16.6513)">
<stop stop-color="#F1F1F1"/>
<stop offset="1" stop-color="#FAFAFA"/>
</radialGradient>
<radialGradient id="paint14_radial_1361_13035" cx="0" cy="0" r="1" gradientUnits="userSpaceOnUse" gradientTransform="translate(73.4014 153.316) rotate(85.3036) scale(16.6513)">
<stop stop-color="#F1F1F1"/>
<stop offset="1" stop-color="#FAFAFA"/>
</radialGradient>
<radialGradient id="paint15_radial_1361_13035" cx="0" cy="0" r="1" gradientUnits="userSpaceOnUse" gradientTransform="translate(105.763 153.316) rotate(85.3036) scale(16.6513)">
<stop stop-color="#F1F1F1"/>
<stop offset="1" stop-color="#FAFAFA"/>
</radialGradient>
<radialGradient id="paint16_radial_1361_13035" cx="0" cy="0" r="1" gradientUnits="userSpaceOnUse" gradientTransform="translate(138.118 153.316) rotate(85.3036) scale(16.6513)">
<stop stop-color="#F1F1F1"/>
<stop offset="1" stop-color="#FAFAFA"/>
</radialGradient>
<radialGradient id="paint17_radial_1361_13035" cx="0" cy="0" r="1" gradientUnits="userSpaceOnUse" gradientTransform="translate(170.476 153.316) rotate(85.3036) scale(16.6513)">
<stop stop-color="#F1F1F1"/>
<stop offset="1" stop-color="#FAFAFA"/>
</radialGradient>
<radialGradient id="paint18_radial_1361_13035" cx="0" cy="0" r="1" gradientUnits="userSpaceOnUse" gradientTransform="translate(8.68748 54.0588) rotate(85.3036) scale(16.6513)">
<stop stop-color="#F1F1F1"/>
<stop offset="1" stop-color="#FAFAFA"/>
</radialGradient>
<radialGradient id="paint19_radial_1361_13035" cx="0" cy="0" r="1" gradientUnits="userSpaceOnUse" gradientTransform="translate(41.0439 54.0588) rotate(85.3036) scale(16.6513)">
<stop stop-color="#F1F1F1"/>
<stop offset="1" stop-color="#FAFAFA"/>
</radialGradient>
<radialGradient id="paint20_radial_1361_13035" cx="0" cy="0" r="1" gradientUnits="userSpaceOnUse" gradientTransform="translate(73.4014 54.0588) rotate(85.3036) scale(16.6513)">
<stop stop-color="#F1F1F1"/>
<stop offset="1" stop-color="#FAFAFA"/>
</radialGradient>
<radialGradient id="paint21_radial_1361_13035" cx="0" cy="0" r="1" gradientUnits="userSpaceOnUse" gradientTransform="translate(105.763 54.0588) rotate(85.3036) scale(16.6513)">
<stop stop-color="#F1F1F1"/>
<stop offset="1" stop-color="#FAFAFA"/>
</radialGradient>
<radialGradient id="paint22_radial_1361_13035" cx="0" cy="0" r="1" gradientUnits="userSpaceOnUse" gradientTransform="translate(138.118 54.0588) rotate(85.3036) scale(16.6513)">
<stop stop-color="#F1F1F1"/>
<stop offset="1" stop-color="#FAFAFA"/>
</radialGradient>
<radialGradient id="paint23_radial_1361_13035" cx="0" cy="0" r="1" gradientUnits="userSpaceOnUse" gradientTransform="translate(170.476 54.0588) rotate(85.3036) scale(16.6513)">
<stop stop-color="#F1F1F1"/>
<stop offset="1" stop-color="#FAFAFA"/>
</radialGradient>
<radialGradient id="paint24_radial_1361_13035" cx="0" cy="0" r="1" gradientUnits="userSpaceOnUse" gradientTransform="translate(8.68748 120.231) rotate(85.3036) scale(16.6513)">
<stop stop-color="#F1F1F1"/>
<stop offset="1" stop-color="#FAFAFA"/>
</radialGradient>
<radialGradient id="paint25_radial_1361_13035" cx="0" cy="0" r="1" gradientUnits="userSpaceOnUse" gradientTransform="translate(41.0439 120.231) rotate(85.3036) scale(16.6513)">
<stop stop-color="#F1F1F1"/>
<stop offset="1" stop-color="#FAFAFA"/>
</radialGradient>
<radialGradient id="paint26_radial_1361_13035" cx="0" cy="0" r="1" gradientUnits="userSpaceOnUse" gradientTransform="translate(73.4014 120.231) rotate(85.3036) scale(16.6513)">
<stop stop-color="#F1F1F1"/>
<stop offset="1" stop-color="#FAFAFA"/>
</radialGradient>
<radialGradient id="paint27_radial_1361_13035" cx="0" cy="0" r="1" gradientUnits="userSpaceOnUse" gradientTransform="translate(105.763 120.231) rotate(85.3036) scale(16.6513)">
<stop stop-color="#F1F1F1"/>
<stop offset="1" stop-color="#FAFAFA"/>
</radialGradient>
<radialGradient id="paint28_radial_1361_13035" cx="0" cy="0" r="1" gradientUnits="userSpaceOnUse" gradientTransform="translate(138.118 120.231) rotate(85.3036) scale(16.6513)">
<stop stop-color="#F1F1F1"/>
<stop offset="1" stop-color="#FAFAFA"/>
</radialGradient>
<radialGradient id="paint29_radial_1361_13035" cx="0" cy="0" r="1" gradientUnits="userSpaceOnUse" gradientTransform="translate(170.476 120.231) rotate(85.3036) scale(16.6513)">
<stop stop-color="#F1F1F1"/>
<stop offset="1" stop-color="#FAFAFA"/>
</radialGradient>
<radialGradient id="paint30_radial_1361_13035" cx="0" cy="0" r="1" gradientUnits="userSpaceOnUse" gradientTransform="translate(8.68748 186.401) rotate(85.3036) scale(16.6513)">
<stop stop-color="#F1F1F1"/>
<stop offset="1" stop-color="#FAFAFA"/>
</radialGradient>
<radialGradient id="paint31_radial_1361_13035" cx="0" cy="0" r="1" gradientUnits="userSpaceOnUse" gradientTransform="translate(41.0439 186.401) rotate(85.3036) scale(16.6513)">
<stop stop-color="#F1F1F1"/>
<stop offset="1" stop-color="#FAFAFA"/>
</radialGradient>
<radialGradient id="paint32_radial_1361_13035" cx="0" cy="0" r="1" gradientUnits="userSpaceOnUse" gradientTransform="translate(73.4014 186.401) rotate(85.3036) scale(16.6513)">
<stop stop-color="#F1F1F1"/>
<stop offset="1" stop-color="#FAFAFA"/>
</radialGradient>
<radialGradient id="paint33_radial_1361_13035" cx="0" cy="0" r="1" gradientUnits="userSpaceOnUse" gradientTransform="translate(105.763 186.402) rotate(85.3036) scale(16.6513)">
<stop stop-color="#F1F1F1"/>
<stop offset="1" stop-color="#FAFAFA"/>
</radialGradient>
<radialGradient id="paint34_radial_1361_13035" cx="0" cy="0" r="1" gradientUnits="userSpaceOnUse" gradientTransform="translate(138.118 186.401) rotate(85.3036) scale(16.6513)">
<stop stop-color="#F1F1F1"/>
<stop offset="1" stop-color="#FAFAFA"/>
</radialGradient>
<radialGradient id="paint35_radial_1361_13035" cx="0" cy="0" r="1" gradientUnits="userSpaceOnUse" gradientTransform="translate(170.476 186.401) rotate(85.3036) scale(16.6513)">
<stop stop-color="#F1F1F1"/>
<stop offset="1" stop-color="#FAFAFA"/>
</radialGradient>
</defs>
</svg>
