<svg width="16" height="17" viewBox="0 0 16 17" fill="none" xmlns="http://www.w3.org/2000/svg">
<path d="M14.9367 2.99964C14.2499 2.27355 13.3368 1.87371 12.3655 1.87371C11.3942 1.87371 10.4811 2.27355 9.79427 2.99964L4.06223 9.05935C3.21159 9.95863 3.21159 11.4219 4.06228 12.3212C4.91296 13.2205 6.29712 13.2205 7.14776 12.3211L10.9222 8.33091C11.2062 8.03066 11.2062 7.54388 10.9222 7.24363C10.6382 6.94338 10.1777 6.94338 9.89371 7.24363L6.11928 11.2339C5.83575 11.5337 5.37433 11.5337 5.09075 11.2339C4.80717 10.9341 4.80717 10.4463 5.0907 10.1466L10.8227 4.08697C11.2349 3.65135 11.7827 3.41142 12.3655 3.41142C12.9483 3.41142 13.4961 3.65135 13.9082 4.08697C14.7588 4.98629 14.7589 6.44953 13.9083 7.34886L7.66202 13.9521C6.24417 15.4509 3.93729 15.4508 2.51958 13.9521C1.83277 13.2261 1.4545 12.2607 1.4545 11.2339C1.4545 10.2071 1.83277 9.24172 2.51958 8.51563L8.76569 1.9123C9.04971 1.61205 9.04971 1.12528 8.76569 0.825025C8.48173 0.524822 8.02123 0.524771 7.73722 0.825025L1.49111 7.42835C0.529535 8.44485 0 9.79635 0 11.2339C0 12.6715 0.529535 14.023 1.49111 15.0394C2.48366 16.0887 3.78699 16.6133 5.09075 16.6132C6.39423 16.6131 7.69814 16.0885 8.6905 15.0394L14.9368 8.43609C16.3545 6.93723 16.3544 4.4985 14.9367 2.99964Z" fill="#B3B4B5"/>
</svg>
