<svg width="188" height="28" viewBox="0 0 188 28" fill="none" xmlns="http://www.w3.org/2000/svg">
<path d="M0.123047 1.64309H11.6613C13.9422 1.64309 15.7809 2.28765 17.1773 3.57676C18.5738 4.85426 19.272 6.65437 19.272 8.9771C19.272 10.9746 18.6494 12.7167 17.4042 14.2032C16.1591 15.6782 14.2448 16.4156 11.6613 16.4156H3.59674V27.2337H0.123047V1.64309ZM15.7634 8.99452C15.7634 7.11311 15.0652 5.83561 13.6687 5.16202C12.9007 4.802 11.8475 4.62199 10.5092 4.62199H3.59674V13.489H10.5092C12.0686 13.489 13.3312 13.158 14.2971 12.496C15.2746 11.8341 15.7634 10.6669 15.7634 8.99452Z" fill="#C4C4C4"/>
<path d="M18.2483 1.64309H22.2981L29.6644 13.9419L37.0307 1.64309H41.0979L31.41 16.9208V27.2337H27.9363V16.9208L18.2483 1.64309Z" fill="#C4C4C4"/>
<path d="M45.1614 1.64309H50.1363L57.5027 23.2793L64.8166 1.64309H69.7392V27.2337H66.44V12.1302C66.44 11.6076 66.4517 10.7424 66.4749 9.53456C66.4982 8.32674 66.5098 7.03182 66.5098 5.6498L59.1959 27.2337H55.7571L48.3908 5.6498V6.43372C48.3908 7.06085 48.4024 8.01898 48.4257 9.30809C48.4606 10.5856 48.478 11.5263 48.478 12.1302V27.2337H45.1614V1.64309Z" fill="#C4C4C4"/>
<path d="M66.44 1.64309H70.5421L83.4943 22.3734V1.64309H86.7934V27.2337H82.9008L69.6437 5.6498L69.7566 27.2337H66.44V14.4384V1.64309Z" fill="#C4C4C4"/>
<path d="M110.596 1.64309V4.69167H101.955V27.2337H98.4291V4.69167H89.7885V1.64309H110.596Z" fill="#C4C4C4"/>
<path d="M116.059 18.9764C116.141 20.4281 116.484 21.6069 117.089 22.5128C118.241 24.2084 120.272 25.0562 123.181 25.0562C124.485 25.0562 125.672 24.8704 126.742 24.4987C128.814 23.7787 129.849 22.4896 129.849 20.6314C129.849 19.2377 129.413 18.2448 128.54 17.6525C127.656 17.0718 126.271 16.5666 124.386 16.1369L120.912 15.353C118.643 14.842 117.037 14.2787 116.094 13.6632C114.465 12.5947 113.651 10.9979 113.651 8.87258C113.651 6.57308 114.448 4.68586 116.042 3.21093C117.636 1.736 119.894 0.998535 122.815 0.998535C125.503 0.998535 127.784 1.6489 129.657 2.94963C131.543 4.23874 132.485 6.30596 132.485 9.15131H129.221C129.047 7.7809 128.674 6.72986 128.104 5.9982C127.045 4.66264 125.247 3.99485 122.71 3.99485C120.662 3.99485 119.19 4.42456 118.294 5.28397C117.398 6.14337 116.95 7.14215 116.95 8.28028C116.95 9.53456 117.473 10.452 118.521 11.0327C119.207 11.4044 120.761 11.8689 123.181 12.4263L126.777 13.2451C128.511 13.64 129.849 14.18 130.792 14.8652C132.421 16.0614 133.236 17.7977 133.236 20.0739C133.236 22.9077 132.2 24.9342 130.129 26.1537C128.069 27.3731 125.672 27.9828 122.937 27.9828C119.748 27.9828 117.252 27.1699 115.448 25.5439C113.645 23.9297 112.76 21.7405 112.795 18.9764H116.059Z" fill="#C4C4C4"/>
<path d="M66.4102 1.64038L69.7579 1.64037V27.2794L66.4102 27.2794V1.64038Z" fill="#C4C4C4"/>
<path d="M137.753 27.9641C137.219 27.9641 136.761 27.7758 136.379 27.3993C136.001 27.0173 135.812 26.56 135.812 26.0275C135.812 25.5003 136.001 25.0484 136.379 24.6718C136.761 24.2952 137.219 24.1069 137.753 24.1069C138.271 24.1069 138.723 24.2952 139.112 24.6718C139.5 25.0484 139.694 25.5003 139.694 26.0275C139.694 26.3825 139.602 26.708 139.419 27.0039C139.241 27.2944 139.006 27.5284 138.715 27.7059C138.424 27.8781 138.103 27.9641 137.753 27.9641Z" fill="#898989"/>
<path d="M148.133 27.9964C146.861 27.9964 145.767 27.7274 144.85 27.1895C143.939 26.6461 143.239 25.893 142.748 24.93C142.263 23.9671 142.02 22.8589 142.02 21.6054C142.02 20.3358 142.266 19.2222 142.756 18.2646C143.252 17.3017 143.956 16.5512 144.867 16.0133C145.778 15.4699 146.861 15.1982 148.117 15.1982C149.201 15.1982 150.149 15.3946 150.963 15.7873C151.777 16.18 152.421 16.7314 152.896 17.4416C153.37 18.1517 153.632 18.9855 153.68 19.9431H150.43C150.338 19.3244 150.095 18.8268 149.702 18.4502C149.314 18.0683 148.804 17.8773 148.174 17.8773C147.64 17.8773 147.174 18.0226 146.775 18.3131C146.381 18.5982 146.074 19.0151 145.853 19.5638C145.632 20.1125 145.522 20.7769 145.522 21.557C145.522 22.3478 145.629 23.0202 145.845 23.5743C146.066 24.1284 146.376 24.5507 146.775 24.8412C147.174 25.1318 147.64 25.277 148.174 25.277C148.567 25.277 148.92 25.1963 149.233 25.0349C149.551 24.8735 149.812 24.6395 150.017 24.3329C150.227 24.0209 150.365 23.647 150.43 23.2112H153.68C153.626 24.158 153.367 24.9919 152.904 25.7128C152.446 26.4282 151.812 26.9877 151.004 27.3912C150.195 27.7947 149.238 27.9964 148.133 27.9964Z" fill="#898989"/>
<path d="M161.497 27.9964C160.241 27.9964 159.155 27.7301 158.239 27.1975C157.328 26.6596 156.624 25.9118 156.128 24.9542C155.632 23.9913 155.384 22.875 155.384 21.6054C155.384 20.325 155.632 19.2061 156.128 18.2485C156.624 17.2855 157.328 16.5378 158.239 16.0052C159.155 15.4672 160.241 15.1982 161.497 15.1982C162.753 15.1982 163.837 15.4672 164.748 16.0052C165.664 16.5378 166.37 17.2855 166.866 18.2485C167.362 19.2061 167.61 20.325 167.61 21.6054C167.61 22.875 167.362 23.9913 166.866 24.9542C166.37 25.9118 165.664 26.6596 164.748 27.1975C163.837 27.7301 162.753 27.9964 161.497 27.9964ZM161.513 25.3335C162.085 25.3335 162.562 25.1721 162.944 24.8493C163.327 24.5212 163.616 24.0747 163.81 23.5098C164.009 22.9449 164.109 22.3021 164.109 21.5812C164.109 20.8603 164.009 20.2174 163.81 19.6526C163.616 19.0877 163.327 18.6412 162.944 18.3131C162.562 17.9849 162.085 17.8208 161.513 17.8208C160.936 17.8208 160.451 17.9849 160.058 18.3131C159.67 18.6412 159.376 19.0877 159.176 19.6526C158.982 20.2174 158.885 20.8603 158.885 21.5812C158.885 22.3021 158.982 22.9449 159.176 23.5098C159.376 24.0747 159.67 24.5212 160.058 24.8493C160.451 25.1721 160.936 25.3335 161.513 25.3335Z" fill="#898989"/>
<path d="M169.85 27.7543V15.3596H173.133V17.5465H173.278C173.537 16.8202 173.968 16.2473 174.572 15.8277C175.176 15.408 175.898 15.1982 176.739 15.1982C177.591 15.1982 178.316 15.4107 178.914 15.8357C179.512 16.2553 179.911 16.8256 180.111 17.5465H180.24C180.493 16.8363 180.952 16.2688 181.615 15.8438C182.283 15.4134 183.073 15.1982 183.984 15.1982C185.143 15.1982 186.083 15.5667 186.806 16.3038C187.533 17.0354 187.897 18.0737 187.897 19.4186V27.7543H184.461V20.0964C184.461 19.4078 184.278 18.8914 183.911 18.5471C183.544 18.2028 183.086 18.0306 182.536 18.0306C181.911 18.0306 181.423 18.2297 181.073 18.6278C180.722 19.0205 180.547 19.5396 180.547 20.1852V27.7543H177.208V20.0238C177.208 19.4159 177.033 18.9317 176.682 18.5713C176.337 18.2108 175.882 18.0306 175.316 18.0306C174.933 18.0306 174.588 18.1275 174.281 18.3211C173.979 18.5094 173.739 18.7757 173.561 19.12C173.383 19.4589 173.294 19.857 173.294 20.3143V27.7543H169.85Z" fill="#898989"/>
</svg>
