<svg width="110" height="68" viewBox="0 0 110 68" fill="none" xmlns="http://www.w3.org/2000/svg">
<rect width="3" height="3" rx="1" transform="matrix(0.895337 0.445389 -0.446684 0.894692 1.53333 3.5293)" fill="url(#paint0_radial_3025_2025)" fill-opacity="0.8"/>
<rect width="3" height="3" rx="1" transform="matrix(0.895337 0.445389 -0.446684 0.894692 4.86523 8.47363)" fill="url(#paint1_radial_3025_2025)" fill-opacity="0.8"/>
<rect width="3" height="3" rx="1" transform="matrix(0.895337 0.445389 -0.446684 0.894692 8.42834 13.2549)" fill="url(#paint2_radial_3025_2025)" fill-opacity="0.8"/>
<rect width="3" height="3" rx="1" transform="matrix(0.895337 0.445389 -0.446684 0.894692 12.2384 17.8418)" fill="url(#paint3_radial_3025_2025)" fill-opacity="0.8"/>
<rect width="3" height="3" rx="1" transform="matrix(0.895337 0.445389 -0.446684 0.894692 16.3264 22.1831)" fill="url(#paint4_radial_3025_2025)" fill-opacity="0.8"/>
<rect width="3" height="3" rx="1" transform="matrix(0.895337 0.445389 -0.446684 0.894692 20.7369 26.1958)" fill="url(#paint5_radial_3025_2025)" fill-opacity="0.8"/>
<rect width="3" height="3" rx="1" transform="matrix(0.895337 0.445389 -0.446684 0.894692 25.5259 29.7485)" fill="url(#paint6_radial_3025_2025)" fill-opacity="0.8"/>
<rect width="3" height="3" rx="1" transform="matrix(0.895337 0.445389 -0.446684 0.894692 30.7478 32.6274)" fill="url(#paint7_radial_3025_2025)" fill-opacity="0.8"/>
<rect width="3" height="3" rx="1" transform="matrix(0.895337 0.445389 -0.446684 0.894692 36.4098 34.4976)" fill="url(#paint8_radial_3025_2025)" fill-opacity="0.8"/>
<rect width="3" height="3" rx="1" transform="matrix(0.895337 0.445389 -0.446684 0.894692 42.3568 34.9326)" fill="url(#paint9_radial_3025_2025)" fill-opacity="0.8"/>
<rect width="3" height="3" rx="1" transform="matrix(0.895337 0.445389 -0.446684 0.894692 48.1837 33.666)" fill="url(#paint10_radial_3025_2025)" fill-opacity="0.8"/>
<rect width="3" height="3" rx="1" transform="matrix(0.895337 0.445389 -0.446684 0.894692 53.4581 30.8848)" fill="url(#paint11_radial_3025_2025)" fill-opacity="0.8"/>
<rect width="3" height="3" rx="1" transform="matrix(0.895337 0.445389 -0.446684 0.894692 58.0233 27.0488)" fill="url(#paint12_radial_3025_2025)" fill-opacity="0.8"/>
<rect width="3" height="3" rx="1" transform="matrix(0.895337 0.445389 -0.446684 0.894692 62.426 23.2031)" fill="url(#paint13_radial_3025_2025)" fill-opacity="0.8"/>
<rect width="3" height="3" rx="1" transform="matrix(0.895337 0.445389 -0.446684 0.894692 67.5714 20.1895)" fill="url(#paint14_radial_3025_2025)" fill-opacity="0.8"/>
<rect width="3" height="3" rx="1" transform="matrix(0.895337 0.445389 -0.446684 0.894692 73.3539 18.7334)" fill="url(#paint15_radial_3025_2025)" fill-opacity="0.8"/>
<rect width="3" height="3" rx="1" transform="matrix(0.895337 0.445389 -0.446684 0.894692 79.2771 19.4194)" fill="url(#paint16_radial_3025_2025)" fill-opacity="0.8"/>
<rect width="3" height="3" rx="1" transform="matrix(0.895337 0.445389 -0.446684 0.894692 84.6385 22.0293)" fill="url(#paint17_radial_3025_2025)" fill-opacity="0.8"/>
<rect width="3" height="3" rx="1" transform="matrix(0.895337 0.445389 -0.446684 0.894692 89.2125 25.855)" fill="url(#paint18_radial_3025_2025)" fill-opacity="0.8"/>
<rect width="3" height="3" rx="1" transform="matrix(0.895337 0.445389 -0.446684 0.894692 93.1007 30.376)" fill="url(#paint19_radial_3025_2025)" fill-opacity="0.8"/>
<rect width="3" height="3" rx="1" transform="matrix(0.895337 0.445389 -0.446684 0.894692 96.4435 35.3135)" fill="url(#paint20_radial_3025_2025)" fill-opacity="0.8"/>
<rect width="3" height="3" rx="1" transform="matrix(0.895337 0.445389 -0.446684 0.894692 99.3445 40.5234)" fill="url(#paint21_radial_3025_2025)" fill-opacity="0.8"/>
<rect width="3" height="3" rx="1" transform="matrix(0.895337 0.445389 -0.446684 0.894692 101.867 45.9263)" fill="url(#paint22_radial_3025_2025)" fill-opacity="0.8"/>
<rect width="3" height="3" rx="1" transform="matrix(0.895337 0.445389 -0.446684 0.894692 104.038 51.48)" fill="url(#paint23_radial_3025_2025)" fill-opacity="0.8"/>
<rect width="3" height="3" rx="1" transform="matrix(0.895337 0.445389 -0.446684 0.894692 105.828 57.168)" fill="url(#paint24_radial_3025_2025)" fill-opacity="0.8"/>
<rect width="3" height="3" rx="1" transform="matrix(0.895337 0.445389 -0.446684 0.894692 107 63)" fill="url(#paint25_radial_3025_2025)" fill-opacity="0.8"/>
<defs>
<radialGradient id="paint0_radial_3025_2025" cx="0" cy="0" r="1" gradientUnits="userSpaceOnUse" gradientTransform="translate(1.5 1.5) rotate(85.3036) scale(2.87506)">
<stop stop-color="white"/>
<stop offset="1" stop-color="#FAFAFA"/>
</radialGradient>
<radialGradient id="paint1_radial_3025_2025" cx="0" cy="0" r="1" gradientUnits="userSpaceOnUse" gradientTransform="translate(1.5 1.5) rotate(85.3036) scale(2.87506)">
<stop stop-color="white"/>
<stop offset="1" stop-color="#FAFAFA"/>
</radialGradient>
<radialGradient id="paint2_radial_3025_2025" cx="0" cy="0" r="1" gradientUnits="userSpaceOnUse" gradientTransform="translate(1.5 1.5) rotate(85.3036) scale(2.87506)">
<stop stop-color="white"/>
<stop offset="1" stop-color="#FAFAFA"/>
</radialGradient>
<radialGradient id="paint3_radial_3025_2025" cx="0" cy="0" r="1" gradientUnits="userSpaceOnUse" gradientTransform="translate(1.5 1.5) rotate(85.3036) scale(2.87506)">
<stop stop-color="white"/>
<stop offset="1" stop-color="#FAFAFA"/>
</radialGradient>
<radialGradient id="paint4_radial_3025_2025" cx="0" cy="0" r="1" gradientUnits="userSpaceOnUse" gradientTransform="translate(1.5 1.5) rotate(85.3036) scale(2.87506)">
<stop stop-color="white"/>
<stop offset="1" stop-color="#FAFAFA"/>
</radialGradient>
<radialGradient id="paint5_radial_3025_2025" cx="0" cy="0" r="1" gradientUnits="userSpaceOnUse" gradientTransform="translate(1.5 1.5) rotate(85.3036) scale(2.87506)">
<stop stop-color="white"/>
<stop offset="1" stop-color="#FAFAFA"/>
</radialGradient>
<radialGradient id="paint6_radial_3025_2025" cx="0" cy="0" r="1" gradientUnits="userSpaceOnUse" gradientTransform="translate(1.5 1.5) rotate(85.3036) scale(2.87506)">
<stop stop-color="white"/>
<stop offset="1" stop-color="#FAFAFA"/>
</radialGradient>
<radialGradient id="paint7_radial_3025_2025" cx="0" cy="0" r="1" gradientUnits="userSpaceOnUse" gradientTransform="translate(1.5 1.5) rotate(85.3036) scale(2.87506)">
<stop stop-color="white"/>
<stop offset="1" stop-color="#FAFAFA"/>
</radialGradient>
<radialGradient id="paint8_radial_3025_2025" cx="0" cy="0" r="1" gradientUnits="userSpaceOnUse" gradientTransform="translate(1.5 1.5) rotate(85.3036) scale(2.87506)">
<stop stop-color="white"/>
<stop offset="1" stop-color="#FAFAFA"/>
</radialGradient>
<radialGradient id="paint9_radial_3025_2025" cx="0" cy="0" r="1" gradientUnits="userSpaceOnUse" gradientTransform="translate(1.5 1.5) rotate(85.3036) scale(2.87506)">
<stop stop-color="white"/>
<stop offset="1" stop-color="#FAFAFA"/>
</radialGradient>
<radialGradient id="paint10_radial_3025_2025" cx="0" cy="0" r="1" gradientUnits="userSpaceOnUse" gradientTransform="translate(1.5 1.5) rotate(85.3036) scale(2.87506)">
<stop stop-color="white"/>
<stop offset="1" stop-color="#FAFAFA"/>
</radialGradient>
<radialGradient id="paint11_radial_3025_2025" cx="0" cy="0" r="1" gradientUnits="userSpaceOnUse" gradientTransform="translate(1.5 1.5) rotate(85.3036) scale(2.87506)">
<stop stop-color="white"/>
<stop offset="1" stop-color="#FAFAFA"/>
</radialGradient>
<radialGradient id="paint12_radial_3025_2025" cx="0" cy="0" r="1" gradientUnits="userSpaceOnUse" gradientTransform="translate(1.5 1.5) rotate(85.3036) scale(2.87506)">
<stop stop-color="white"/>
<stop offset="1" stop-color="#FAFAFA"/>
</radialGradient>
<radialGradient id="paint13_radial_3025_2025" cx="0" cy="0" r="1" gradientUnits="userSpaceOnUse" gradientTransform="translate(1.5 1.5) rotate(85.3036) scale(2.87506)">
<stop stop-color="white"/>
<stop offset="1" stop-color="#FAFAFA"/>
</radialGradient>
<radialGradient id="paint14_radial_3025_2025" cx="0" cy="0" r="1" gradientUnits="userSpaceOnUse" gradientTransform="translate(1.5 1.5) rotate(85.3036) scale(2.87506)">
<stop stop-color="white"/>
<stop offset="1" stop-color="#FAFAFA"/>
</radialGradient>
<radialGradient id="paint15_radial_3025_2025" cx="0" cy="0" r="1" gradientUnits="userSpaceOnUse" gradientTransform="translate(1.5 1.5) rotate(85.3036) scale(2.87506)">
<stop stop-color="white"/>
<stop offset="1" stop-color="#FAFAFA"/>
</radialGradient>
<radialGradient id="paint16_radial_3025_2025" cx="0" cy="0" r="1" gradientUnits="userSpaceOnUse" gradientTransform="translate(1.5 1.5) rotate(85.3036) scale(2.87506)">
<stop stop-color="white"/>
<stop offset="1" stop-color="#FAFAFA"/>
</radialGradient>
<radialGradient id="paint17_radial_3025_2025" cx="0" cy="0" r="1" gradientUnits="userSpaceOnUse" gradientTransform="translate(1.5 1.5) rotate(85.3036) scale(2.87506)">
<stop stop-color="white"/>
<stop offset="1" stop-color="#FAFAFA"/>
</radialGradient>
<radialGradient id="paint18_radial_3025_2025" cx="0" cy="0" r="1" gradientUnits="userSpaceOnUse" gradientTransform="translate(1.5 1.5) rotate(85.3036) scale(2.87506)">
<stop stop-color="white"/>
<stop offset="1" stop-color="#FAFAFA"/>
</radialGradient>
<radialGradient id="paint19_radial_3025_2025" cx="0" cy="0" r="1" gradientUnits="userSpaceOnUse" gradientTransform="translate(1.5 1.5) rotate(85.3036) scale(2.87506)">
<stop stop-color="white"/>
<stop offset="1" stop-color="#FAFAFA"/>
</radialGradient>
<radialGradient id="paint20_radial_3025_2025" cx="0" cy="0" r="1" gradientUnits="userSpaceOnUse" gradientTransform="translate(1.5 1.5) rotate(85.3036) scale(2.87506)">
<stop stop-color="white"/>
<stop offset="1" stop-color="#FAFAFA"/>
</radialGradient>
<radialGradient id="paint21_radial_3025_2025" cx="0" cy="0" r="1" gradientUnits="userSpaceOnUse" gradientTransform="translate(1.5 1.5) rotate(85.3036) scale(2.87506)">
<stop stop-color="white"/>
<stop offset="1" stop-color="#FAFAFA"/>
</radialGradient>
<radialGradient id="paint22_radial_3025_2025" cx="0" cy="0" r="1" gradientUnits="userSpaceOnUse" gradientTransform="translate(1.5 1.5) rotate(85.3036) scale(2.87506)">
<stop stop-color="white"/>
<stop offset="1" stop-color="#FAFAFA"/>
</radialGradient>
<radialGradient id="paint23_radial_3025_2025" cx="0" cy="0" r="1" gradientUnits="userSpaceOnUse" gradientTransform="translate(1.5 1.5) rotate(85.3036) scale(2.87506)">
<stop stop-color="white"/>
<stop offset="1" stop-color="#FAFAFA"/>
</radialGradient>
<radialGradient id="paint24_radial_3025_2025" cx="0" cy="0" r="1" gradientUnits="userSpaceOnUse" gradientTransform="translate(1.5 1.5) rotate(85.3036) scale(2.87506)">
<stop stop-color="white"/>
<stop offset="1" stop-color="#FAFAFA"/>
</radialGradient>
<radialGradient id="paint25_radial_3025_2025" cx="0" cy="0" r="1" gradientUnits="userSpaceOnUse" gradientTransform="translate(1.5 1.5) rotate(85.3036) scale(2.87506)">
<stop stop-color="white"/>
<stop offset="1" stop-color="#FAFAFA"/>
</radialGradient>
</defs>
</svg>
