<svg width="64" height="64" viewBox="0 0 64 64" fill="none" xmlns="http://www.w3.org/2000/svg">
<path d="M46.7811 34.488C46.0611 34.1653 45.2238 34.2907 44.6318 34.8187L33.5416 44.6933C33.0403 45.1387 32.795 45.8053 32.891 46.472L34.6776 58.944C34.7842 59.6933 35.3522 60.272 36.0695 60.512L36.6615 60.6053C37.2135 60.6053 37.7708 60.376 38.1628 59.9813C44.4798 53.6613 47.9597 45.2587 47.9597 36.3147C47.9624 35.5253 47.501 34.8107 46.7811 34.488V34.488Z" fill="#D61414"/>
<path d="M27.6881 16.0374C18.7445 16.0374 10.3395 19.5174 4.0224 25.8347L3.92907 25.9254C3.39309 26.4614 3.20643 27.2534 3.44642 27.9707C3.68641 28.6907 4.31038 29.2107 5.05969 29.3174L17.5312 31.104L17.8138 31.1254C18.3791 31.1254 18.9258 30.8854 19.3071 30.456L29.1814 19.3654C29.7067 18.776 29.8347 17.936 29.512 17.216C29.1894 16.4987 28.4747 16.0374 27.6881 16.0374V16.0374Z" fill="#D61414"/>
<path d="M31.6756 51.0692C31.1637 51.0692 30.6517 50.8719 30.2624 50.4826L13.519 33.7386C12.7697 32.9892 12.7351 31.7839 13.4417 30.9919L25.9905 16.9359C34.8782 6.53323 49.3069 -0.261438 62.0397 0.0105625C63.1064 0.0345625 63.9677 0.895896 63.9917 1.96256C64.285 14.6239 57.4719 29.1226 47.035 38.0399L33.0116 50.5599C32.6276 50.9012 32.153 51.0692 31.6756 51.0692V51.0692Z" fill="#DADADA"/>
<path d="M45.6873 24.9759C43.978 24.9759 42.2714 24.3252 40.9728 23.0266C38.3756 20.4266 38.3756 16.1972 40.9728 13.5972C43.5727 10.9972 47.8019 10.9972 50.4018 13.5972C52.999 16.1972 52.999 20.4266 50.4018 23.0266C49.1005 24.3279 47.3939 24.9759 45.6873 24.9759Z" fill="#D61414"/>
<path d="M2.00108 63.9999C1.47843 63.9999 0.966452 63.7946 0.587801 63.4133C0.067822 62.8933 -0.12417 62.1306 0.0864879 61.4239C0.755794 59.1813 4.24632 47.8533 6.97154 45.1306C10.1527 41.9519 15.6939 41.9519 18.8697 45.1306C20.459 46.7226 21.3336 48.8319 21.3336 51.0826C21.3336 53.3306 20.459 55.4426 18.8697 57.0319C16.1472 59.7546 4.81696 63.2453 2.57705 63.9173L2.00108 63.9999Z" fill="#5F5F5F"/>
<path d="M26.7655 16.0479C18.1685 16.2799 10.1235 19.7332 4.01973 25.8345L3.92907 25.9252C3.39309 26.4612 3.20643 27.2532 3.44642 27.9705C3.68641 28.6905 4.31038 29.2105 5.05969 29.3172L13.814 30.5732L25.9895 16.9332C26.2428 16.6372 26.5015 16.3412 26.7655 16.0479V16.0479Z" fill="#FF474D"/>
<path d="M61.2958 0C49.1149 0 35.5261 6.344 26.7665 16.048C26.5025 16.3413 26.2439 16.6347 25.9879 16.9333L13.815 30.5733L13.4417 30.992C12.7351 31.784 12.7697 32.9893 13.519 33.7387L21.892 42.112L40.9739 23.0293C38.3767 20.4293 38.3767 16.2 40.9739 13.6C42.2725 12.3013 43.9818 11.6507 45.6884 11.6507C47.395 11.6507 49.1043 12.3013 50.4029 13.6L63.4077 0.594667C63.0557 0.242667 62.573 0.0213333 62.0397 0.008C61.7917 0.00266667 61.5438 0 61.2958 0V0Z" fill="white"/>
<path d="M45.6873 11.6506C43.9807 11.6506 42.2714 12.3013 40.9728 13.6C38.3756 16.2 38.3756 20.4293 40.9728 23.0293L50.3991 13.6C49.1005 12.2986 47.3939 11.6506 45.6873 11.6506Z" fill="#FF474D"/>
<path d="M12.9209 42.7466C10.7396 42.7466 8.56103 43.5412 6.9691 45.1306C4.24654 47.8532 0.756019 59.1839 0.0840465 61.4239C-0.126612 62.1279 0.0653806 62.8933 0.585359 63.4133L18.8673 45.1306C17.2807 43.5412 15.1021 42.7466 12.9209 42.7466V42.7466Z" fill="#8A8A8A"/>
</svg>
