<svg width="66" height="62" viewBox="0 0 66 62" fill="none" xmlns="http://www.w3.org/2000/svg">
<path d="M20.9584 42.9272C18.9326 41.7379 16.3263 42.4161 15.137 44.4418C13.9478 46.4676 14.6259 49.0739 16.6517 50.2632C18.6775 51.4524 21.2838 50.7743 22.473 48.7485C23.6623 46.7227 22.9841 44.1164 20.9584 42.9272Z" fill="#3897FF"/>
<path d="M58.2018 23.7737L58.6205 31.1494L64.2 35.9915L56.8243 36.4102L51.9823 41.9897L51.5632 34.6142L45.984 29.772L53.3597 29.3532L58.2018 23.7737Z" fill="#FFCC00"/>
<path d="M25.8746 10.7736L30.2883 16.6976L37.6122 17.6642L31.6878 22.0779L30.7216 29.4019L26.3079 23.4778L18.9839 22.5112L24.9078 18.0977L25.8746 10.7736Z" fill="#8E4DD5"/>
</svg>
