<svg width="48" height="48" viewBox="0 0 48 48" fill="none" xmlns="http://www.w3.org/2000/svg">
<path d="M0.285156 25.7766C0.285156 20.2872 4.72281 15.7812 10.2837 15.5282L10.7772 15.517H22.0964V29.4127C22.0964 30.4086 22.8998 31.196 23.916 31.196C24.8257 31.196 25.5965 30.5343 25.7187 29.657L25.7355 29.4127V15.517H37.0311C42.6552 15.517 47.2758 19.8661 47.5353 25.3374L47.5468 25.823V37.1017C47.5468 42.6137 43.1091 47.1203 37.5482 47.3733L37.0547 47.3845H10.8009C5.15378 47.3845 0.554779 43.0135 0.296589 37.5622L0.285156 37.0785V25.7766ZM15.7638 9.73482C15.0978 9.11402 15.0373 8.13579 15.5644 7.45001L15.7402 7.2537L22.6167 0.607035C22.9712 0.265596 23.4202 0.0834961 23.9164 0.0834961C24.2945 0.0834961 24.6726 0.20004 24.9781 0.421474L25.1925 0.607035L32.0691 7.2537C32.4235 7.59514 32.6126 8.05039 32.6126 8.48288C32.6126 8.93813 32.4235 9.39338 32.0691 9.73482C31.4246 10.3556 30.409 10.412 29.6971 9.90412L29.4933 9.73482L25.736 6.09281L25.7355 15.517H22.0964L22.0969 6.09281L18.3396 9.73482C17.6306 10.4177 16.4727 10.4177 15.7638 9.73482Z" fill="#B3B4B5"/>
</svg>
