<svg width="335" height="72" viewBox="0 0 335 72" fill="none" xmlns="http://www.w3.org/2000/svg">
<path d="M57.1975 49.5202C55.4315 49.4372 54.0673 47.9448 54.1505 46.1869C54.2337 44.4289 55.7327 43.071 57.4987 43.154C59.2647 43.2369 60.6289 44.7293 60.5457 46.4873C60.4625 48.2453 58.9635 49.6031 57.1975 49.5202Z" fill="#3897FF"/>
<path d="M96.8901 66.97C94.1892 66.8432 92.1028 64.5607 92.2301 61.872C92.3573 59.1834 94.6499 57.1066 97.3508 57.2335C100.052 57.3604 102.138 59.6428 102.011 62.3315C101.884 65.0202 99.591 67.0969 96.8901 66.97Z" fill="#8E4DD5"/>
<path d="M142.073 50.3048C139.824 50.1991 138.086 48.2981 138.192 46.0586C138.298 43.8192 140.207 42.0894 142.457 42.1951C144.707 42.3008 146.444 44.2019 146.338 46.4413C146.232 48.6808 144.323 50.4105 142.073 50.3048Z" fill="#00A98F"/>
<path d="M301.21 62.6459C299.737 62.1377 298.956 60.5367 299.467 59.07C299.977 57.6033 301.585 56.8263 303.059 57.3345C304.532 57.8427 305.313 59.4436 304.802 60.9104C304.292 62.3771 302.684 63.1541 301.21 62.6459Z" fill="#00A98F"/>
<path d="M296.032 47.811C295.194 47.5221 294.75 46.6118 295.04 45.7778C295.331 44.9439 296.245 44.5021 297.083 44.791C297.92 45.08 298.364 45.9903 298.074 46.8242C297.784 47.6582 296.87 48.1 296.032 47.811Z" fill="#00A98F"/>
<path d="M249.632 68.8241C247.074 67.9417 245.718 65.1618 246.604 62.6151C247.49 60.0683 250.283 58.7191 252.841 59.6015C255.4 60.4839 256.755 63.2638 255.869 65.8106C254.983 68.3573 252.19 69.7065 249.632 68.8241Z" fill="#8E4DD5"/>
<path d="M327.687 57.6771C325.935 57.0728 325.007 55.1693 325.614 53.4254C326.221 51.6815 328.133 50.7576 329.885 51.3619C331.636 51.9661 332.565 53.8696 331.958 55.6135C331.351 57.3574 329.439 58.2813 327.687 57.6771Z" fill="#8E4DD5"/>
<path d="M334.632 14.8206C332.074 13.9382 330.718 11.1583 331.604 8.61158C332.49 6.06483 335.283 4.71563 337.841 5.59805C340.4 6.48046 341.755 9.26034 340.869 11.8071C339.983 14.3538 337.19 15.7031 334.632 14.8206Z" fill="#3897FF"/>
<path d="M324.515 35.3655L331.263 32.9965L337.662 36.1594L335.299 29.4427L338.489 23.0618L331.741 25.4307L325.342 22.2679L327.705 28.9841L324.515 35.3655Z" fill="#FFCC00"/>
<path d="M228 44.8284L231.665 45.3441L233.855 48.3198L234.366 44.67L237.35 42.4952L233.684 41.9795L231.494 39.0038L230.983 42.6533L228 44.8284Z" fill="#FFCC00"/>
<path d="M276 64.6464L278.922 65.0575L280.668 67.4293L281.075 64.5202L283.453 62.7867L280.531 62.3756L278.786 60.0038L278.379 62.9127L276 64.6464Z" fill="#8E4DD5"/>
<path d="M266 45.6464L268.922 46.0575L270.668 48.4293L271.075 45.5202L273.453 43.7867L270.531 43.3756L268.786 41.0038L268.379 43.9127L266 45.6464Z" fill="#00A98F"/>
<path d="M204.643 55.3204L211.123 57.741L207.764 44.6897L201 42.6257L204.643 55.3204Z" fill="#00A98F"/>
<path d="M2.66032 61.0113L3.52431 65.1347L9.14772 59.1568L8.00809 55.0038L2.66032 61.0113Z" fill="#00A98F"/>
<path d="M178.51 61.8409L178.472 56.2434L169.501 62.5719L169.894 68.2796L178.51 61.8409Z" fill="#3897FF"/>
<path d="M315.661 34.3845L315.64 31.3958L310.851 34.7748L311.061 37.8224L315.661 34.3845Z" fill="#3897FF"/>
</svg>
