<svg width="1000" height="79" viewBox="0 0 1000 79" fill="none" xmlns="http://www.w3.org/2000/svg">
<path d="M533.198 59.5158C531.432 59.4328 530.068 57.9404 530.151 56.1825C530.234 54.4245 531.733 53.0666 533.499 53.1496C535.265 53.2326 536.629 54.7249 536.546 56.4829C536.463 58.2409 534.964 59.5987 533.198 59.5158Z" fill="#3897FF"/>
<path d="M652.891 52.9656C650.19 52.8388 648.103 50.5563 648.231 47.8676C648.358 45.179 650.65 43.1022 653.351 43.2291C656.052 43.356 658.139 45.6385 658.011 48.3271C657.884 51.0158 655.591 53.0925 652.891 52.9656Z" fill="#8E4DD5"/>
<path d="M728.534 71.3703C726.284 71.2646 724.546 69.3635 724.652 67.124C724.758 64.8846 726.668 63.1549 728.917 63.2606C731.167 63.3662 732.905 65.2673 732.799 67.5068C732.693 69.7462 730.783 71.4759 728.534 71.3703Z" fill="#00A98F"/>
<path d="M3.69951 47.5002C2.20886 47.4301 1.05738 46.1704 1.12759 44.6865C1.19781 43.2026 2.46314 42.0565 3.95378 42.1265C5.44443 42.1965 6.59591 43.4562 6.5257 44.9401C6.45548 46.424 5.19016 47.5702 3.69951 47.5002Z" fill="#00A98F"/>
<path d="M966.696 50.3779C965.222 49.8697 964.442 48.2687 964.952 46.8019C965.462 45.3352 967.071 44.5582 968.544 45.0664C970.017 45.5746 970.798 47.1756 970.288 48.6423C969.777 50.109 968.169 50.8861 966.696 50.3779Z" fill="#00A98F"/>
<path d="M961.517 35.543C960.679 35.254 960.235 34.3437 960.526 33.5098C960.816 32.6758 961.73 32.234 962.568 32.5229C963.406 32.8119 963.85 33.7222 963.56 34.5562C963.269 35.3901 962.355 35.8319 961.517 35.543Z" fill="#00A98F"/>
<path d="M899.633 75.8201C897.074 74.9377 895.719 72.1578 896.605 69.6111C897.491 67.0643 900.283 65.7151 902.842 66.5976C905.4 67.48 906.756 70.2599 905.87 72.8066C904.983 75.3534 902.191 76.7026 899.633 75.8201Z" fill="#8E4DD5"/>
<path d="M993.172 45.409C991.42 44.8048 990.492 42.9012 991.099 41.1573C991.705 39.4134 993.618 38.4896 995.369 39.0938C997.121 39.698 998.05 41.6016 997.443 43.3455C996.836 45.0894 994.924 46.0132 993.172 45.409Z" fill="#8E4DD5"/>
<path d="M979.633 72.8201C977.074 71.9377 975.719 69.1578 976.605 66.6111C977.491 64.0643 980.283 62.7151 982.842 63.5976C985.4 64.48 986.756 67.2599 985.87 69.8066C984.983 72.3534 982.191 73.7026 979.633 72.8201Z" fill="#3897FF"/>
<path d="M990 23.0974L996.748 20.7285L1003.15 23.8913L1000.78 17.1747L1003.97 10.7937L997.226 13.1627L990.827 9.99979L993.19 16.7161L990 23.0974Z" fill="#FFCC00"/>
<path d="M885.918 50.4399L889.584 50.9556L891.774 53.9313L892.285 50.2815L895.269 48.1067L891.603 47.591L889.413 44.6153L888.902 48.2648L885.918 50.4399Z" fill="#FFCC00"/>
<path d="M322 47.8244L325.666 48.3401L327.855 51.3159L328.366 47.6661L331.35 45.4912L327.684 44.9755L325.495 41.9998L324.984 45.6493L322 47.8244Z" fill="#FFCC00"/>
<path d="M934.63 62.4558L937.552 62.8668L939.297 65.2387L939.704 62.3296L942.083 60.5961L939.161 60.185L937.415 57.8132L937.008 60.7221L934.63 62.4558Z" fill="#8E4DD5"/>
<path d="M918 42.6427L920.922 43.0537L922.667 45.4256L923.074 42.5165L925.453 40.783L922.531 40.3719L920.786 38.0001L920.378 40.909L918 42.6427Z" fill="#00A98F"/>
<path d="M177.999 62.6425L180.921 63.0535L182.667 65.4254L183.074 62.5162L185.452 60.7827L182.53 60.3717L180.785 57.9998L180.378 60.9087L177.999 62.6425Z" fill="#8E4DD5"/>
<path d="M789.914 57.7205L796.395 60.1412L793.035 47.0899L786.272 45.0259L789.914 57.7205Z" fill="#00A98F"/>
<path d="M422.66 49.0069L423.524 53.1303L429.148 47.1523L428.008 42.9994L422.66 49.0069Z" fill="#00A98F"/>
<path d="M850.317 64.0187L850.279 58.4211L841.309 64.7497L841.701 70.4573L850.317 64.0187Z" fill="#3897FF"/>
<path d="M981.146 22.1164L981.125 19.1277L976.336 22.5067L976.545 25.5542L981.146 22.1164Z" fill="#3897FF"/>
</svg>
