<svg width="742" height="76" viewBox="0 0 742 76" fill="none" xmlns="http://www.w3.org/2000/svg">
<path d="M400.322 50.7804C398.557 50.6975 397.192 49.2051 397.276 47.4471C397.359 45.6891 398.858 44.3313 400.624 44.4142C402.39 44.4972 403.754 45.9896 403.671 47.7475C403.587 49.5055 402.088 50.8634 400.322 50.7804Z" fill="#3897FF"/>
<path d="M484.015 63.2303C481.314 63.1034 479.228 60.821 479.355 58.1323C479.482 55.4436 481.775 53.3669 484.476 53.4938C487.177 53.6207 489.263 55.9031 489.136 58.5918C489.009 61.2804 486.716 63.3572 484.015 63.2303Z" fill="#8E4DD5"/>
<path d="M552.198 58.5651C549.949 58.4594 548.211 56.5583 548.317 54.3189C548.423 52.0794 550.332 50.3497 552.582 50.4554C554.832 50.5611 556.569 52.4621 556.463 54.7016C556.357 56.941 554.448 58.6708 552.198 58.5651Z" fill="#00A98F"/>
<path d="M3.69902 48.5005C2.20838 48.4304 1.05689 47.1707 1.1271 45.6868C1.19732 44.2029 2.46265 43.0568 3.9533 43.1268C5.44394 43.1968 6.59542 44.4565 6.52521 45.9404C6.45499 47.4243 5.18967 48.5705 3.69902 48.5005Z" fill="#00A98F"/>
<path d="M707.014 47.6421C705.541 47.1339 704.76 45.5329 705.27 44.0662C705.781 42.5995 707.389 41.8225 708.862 42.3307C710.336 42.8389 711.117 44.4399 710.606 45.9066C710.096 47.3733 708.488 48.1503 707.014 47.6421Z" fill="#00A98F"/>
<path d="M701.836 32.8073C700.998 32.5183 700.554 31.608 700.844 30.774C701.134 29.9401 702.049 29.4983 702.886 29.7872C703.724 30.0762 704.168 30.9865 703.878 31.8204C703.588 32.6544 702.673 33.0962 701.836 32.8073Z" fill="#00A98F"/>
<path d="M639.95 73.0844C637.392 72.202 636.036 69.4221 636.923 66.8754C637.809 64.3286 640.601 62.9794 643.16 63.8618C645.718 64.7443 647.074 67.5241 646.187 70.0709C645.301 72.6176 642.509 73.9668 639.95 73.0844Z" fill="#8E4DD5"/>
<path d="M733.491 42.6733C731.739 42.0691 730.811 40.1655 731.417 38.4216C732.024 36.6777 733.936 35.7538 735.688 36.3581C737.44 36.9623 738.368 38.8659 737.762 40.6098C737.155 42.3536 735.243 43.2775 733.491 42.6733Z" fill="#8E4DD5"/>
<path d="M719.95 70.0844C717.392 69.202 716.036 66.4221 716.923 63.8754C717.809 61.3286 720.601 59.9794 723.16 60.8618C725.718 61.7443 727.074 64.5241 726.187 67.0709C725.301 69.6176 722.509 70.9668 719.95 70.0844Z" fill="#3897FF"/>
<path d="M730.319 20.3617L737.067 17.9928L743.466 21.1556L741.103 14.4389L744.293 8.05798L737.545 10.4269L731.146 7.26407L733.509 13.9803L730.319 20.3617Z" fill="#FFCC00"/>
<path d="M626.237 47.7042L629.902 48.2199L632.092 51.1956L632.603 47.5458L635.587 45.371L631.921 44.8553L629.732 41.8796L629.221 45.5291L626.237 47.7042Z" fill="#FFCC00"/>
<path d="M200.125 50.0887L203.79 50.6043L205.98 53.5801L206.491 49.9303L209.475 47.7554L205.809 47.2398L203.619 44.264L203.108 47.9135L200.125 50.0887Z" fill="#FFCC00"/>
<path d="M674.948 59.72L677.87 60.1311L679.615 62.5029L680.022 59.5938L682.4 57.8603L679.479 57.4493L677.733 55.0774L677.326 57.9863L674.948 59.72Z" fill="#8E4DD5"/>
<path d="M658.319 39.907L661.241 40.318L662.986 42.6899L663.393 39.7807L665.771 38.0472L662.85 37.6362L661.104 35.2643L660.697 38.1733L658.319 39.907Z" fill="#00A98F"/>
<path d="M82.1255 66.9067L85.0473 67.3177L86.7926 69.6896L87.1997 66.7804L89.5781 65.0469L86.6563 64.6359L84.911 62.264L84.5038 65.173L82.1255 66.9067Z" fill="#8E4DD5"/>
<path d="M609.244 55.4474L615.725 57.868L612.365 44.8167L605.602 42.7527L609.244 55.4474Z" fill="#00A98F"/>
<path d="M324.785 60.2715L325.649 64.3949L331.273 58.417L330.133 54.264L324.785 60.2715Z" fill="#00A98F"/>
<path d="M590.635 61.283L590.597 55.6854L581.626 62.0139L582.019 67.7216L590.635 61.283Z" fill="#3897FF"/>
<path d="M721.465 19.3807L721.444 16.392L716.655 19.771L716.864 22.8185L721.465 19.3807Z" fill="#3897FF"/>
</svg>
