<svg width="65" height="64" viewBox="0 0 65 64" fill="none" xmlns="http://www.w3.org/2000/svg">
<path d="M13.929 13.7247C15.9861 12.9638 17.0369 10.6794 16.276 8.62237C15.5151 6.56532 13.2308 5.51455 11.1737 6.27542C9.11666 7.03628 8.0659 9.32064 8.82676 11.3777C9.58762 13.4347 11.872 14.4855 13.929 13.7247Z" fill="#3897FF"/>
<path d="M61.8245 22.1612L56.2469 18.1033L49.4491 19.2728L53.507 13.6952L52.3375 6.89746L57.9153 10.9549L64.7129 9.78584L60.655 15.3635L61.8245 22.1612Z" fill="#FFCC00"/>
<path d="M20.7764 51.8162L13.886 51.5035L8.85761 56.2247L9.17053 49.334L4.4491 44.3059L11.3395 44.6186L16.3679 39.8974L16.0552 46.7875L20.7764 51.8162Z" fill="#00A98F"/>
</svg>
