<svg width="230" height="46" viewBox="0 0 230 46" fill="none" xmlns="http://www.w3.org/2000/svg">
<path d="M74.9941 32.0065H79.7924V17.7521H86.8925V13.278H68.1836V17.7521H74.9941V32.0065Z" fill="#C4C4C4"/>
<path d="M88.4632 32.0065H104.775V27.5948H93.3032V24.8793H103.498V20.788H93.3032V17.7521H104.645V13.278H88.4632V32.0065Z" fill="#C4C4C4"/>
<path d="M125.249 27.7208C125.665 26.8456 125.625 25.2695 125.625 25.2695H120.199C119.73 26.1539 118.511 28.3511 116.453 28.3511C113.951 28.3511 111.991 25.9561 111.991 22.6423C111.991 19.3285 113.951 17.1326 116.453 17.1326C118.511 17.1326 119.73 19.0527 120.199 19.9371H125.625C125.625 19.9371 125.355 18.5646 124.997 17.7521C123.439 14.2194 121.039 12.7578 116.453 12.7578C110.356 12.7578 106.213 16.2434 106.213 22.6423C106.213 29.0412 110.356 32.5268 116.453 32.5268C121.039 32.5268 124.113 30.1158 125.249 27.7208Z" fill="#C4C4C4"/>
<path d="M128.28 32.0065H133.987V24.0653H139.094V32.0065H144.821V13.278H139.094V19.9371H133.987V13.278H128.28V32.0065Z" fill="#C4C4C4"/>
<path d="M169.773 32.008H174.905L175.899 28.3525H182.179L183.113 32.008H188.4L181.364 13.2795H176.783L169.773 32.008ZM177.433 24.3865L179.022 19.6004L180.612 24.3865H177.433Z" fill="#909599"/>
<path d="M188.123 28.1004C189.251 31.1238 191.224 32.5282 196.253 32.5282C201.751 32.5282 203.471 29.953 203.471 26.4154C203.471 22.6437 200.143 21.0637 195.557 20.4134C194.396 20.17 193.072 19.6004 193.506 18.1745C193.745 17.391 194.741 16.7558 195.792 16.7558C197.491 16.7558 198.624 18.4038 199.067 18.9761L202.794 18.9308C202.794 18.9308 202.584 16.4222 201.405 15.2432C199.735 13.5717 198.606 13.0992 195.792 12.9743C191.825 12.7983 188.191 15.0223 188.191 18.6899C188.191 21.4732 189.546 23.7883 195.33 24.9068C197.754 25.375 198.501 26.0513 198.249 27.092C198.031 27.9867 197.582 28.3525 196.253 28.3525C194.195 28.3525 193.1 26.4675 192.788 26.0513H187.642C187.642 26.0513 187.86 27.3943 188.123 28.1004Z" fill="#909599"/>
<path d="M204.81 32.008H210.497L210.244 13.2795H204.81V32.008Z" fill="#909599"/>
<path d="M210.497 32.008H215.628L216.622 28.3525H222.902L223.836 32.008H229.123L222.087 13.2795H217.506L210.497 32.008ZM218.156 24.3865L219.745 19.6004L221.335 24.3865H218.156Z" fill="#909599"/>
<path d="M146.998 32.0796V13.3512H148.77V32.0796H146.998Z" fill="#909599"/>
<path d="M155.397 15.7442H155.345V32.0796H153.573V13.3512H155.579L166.419 29.7126H166.471V13.3512H168.243V32.0796H166.184L155.397 15.7442Z" fill="#909599"/>
<path d="M43.5534 18.0153L47.9728 20.4103L44.1847 13.8557L24.8655 45.9985L17.7944 33.5195V23.8137L0.748047 9.06576H27.7697L35.0933 13.0994L31.9366 18.2674L26.2545 15.3683H18.4258L24.4867 20.7885V33.5195L44.1847 0.998535L65.1455 37.5532L40.1441 23.3095L43.5534 18.0153Z" fill="#C4C4C4"/>
</svg>
