<svg width="223" height="34" viewBox="0 0 223 34" fill="none" xmlns="http://www.w3.org/2000/svg">
<path d="M78.7453 33.337H83.6278V18.1863H90.0147V14.3327H72.3848V18.1863H78.7453V33.337Z" fill="#C4C4C4"/>
<path d="M93.743 27.8996H101.894C102.395 22.5679 99.7692 19.5857 95.7377 19.6116C92.0397 19.6354 89.4119 22.4095 89.4119 26.6591C89.4119 30.9086 91.0927 33.6537 95.8433 33.6537C99.4854 33.6537 100.621 32.4508 101.545 31.1838L99.8819 29.0094C99.486 29.3262 97.7081 30.5137 96.5567 30.4164C95.0877 30.2923 93.8486 29.2458 93.743 27.8996ZM98.0914 25.6033H93.743C93.875 24.1252 94.63 23.1257 95.9172 23.1257C97.2044 23.1257 98.065 24.1516 98.0914 25.6033Z" fill="#C4C4C4"/>
<path d="M115.357 30.928L112.367 28.6123C112.05 29.1402 111.512 29.9048 110.113 29.9048C109.675 29.9048 107.939 29.9048 107.939 26.6591C107.939 23.4134 109.346 23.1292 110.113 23.1257C110.881 23.1222 112.05 24.0724 112.367 24.6003L115.229 22.6141C114.718 21.5908 112.689 19.5588 109.675 19.5588C106.66 19.5588 103.975 22.4095 103.975 26.6591C103.975 30.9086 107.044 33.7593 109.675 33.6537C113.37 33.6537 114.462 32.5908 115.357 30.928Z" fill="#C4C4C4"/>
<path d="M117.144 33.337H121.816V26.4743C121.816 24.6267 121.977 23.1257 123.798 23.1257C125.593 23.1257 125.722 24.5739 125.722 26.4215V33.337L129.937 33.3898V26.4743C129.937 22.3831 129.865 19.6116 125.722 19.6116C123.452 19.6116 122.344 20.773 121.816 21.776V13.2769L117.144 15.3234V33.337Z" fill="#C4C4C4"/>
<path d="M149.959 28.9554L145.72 26.7382C145.219 27.6093 144.456 29.5461 142.395 29.582C140.335 29.6178 138.942 26.7382 138.942 23.8612C138.942 20.9842 139.849 18.539 142.395 18.4541C144.352 18.3888 145.603 20.9086 146.104 21.7796L149.959 20.1923C148.956 17.3945 146.215 14.1424 142.395 13.9773C137.357 13.7595 134.086 17.4472 134.086 23.8612C134.086 30.2752 137.301 33.9731 142.395 33.9177C145.928 33.8792 148.956 31.7533 149.959 28.9554Z" fill="#909599"/>
<path d="M152.112 33.6537H156.784V26.9494C156.784 24.8114 158.211 23.1122 160.003 23.5181C160.798 23.698 161.195 24.2099 161.707 24.7215L162.73 20.6285C162.202 20.4701 161.033 19.9284 160.214 19.9284C158.05 19.9284 157.047 21.5121 156.784 22.1455V20.1923H152.112V33.6537Z" fill="#909599"/>
<path d="M173.752 33.6537H176.088H177.566V26.923V20.1923H172.962V27.1078C172.962 28.9554 172.763 30.3494 170.915 30.3494C169.121 30.3494 169.125 28.9554 169.125 27.1078V20.1923H164.904V27.1078C164.904 31.199 165.702 33.9177 169.846 33.9177C172.116 33.9177 173.224 32.7563 173.752 31.7533V33.6537Z" fill="#909599"/>
<path d="M181.159 33.6537H185.83V26.791C185.83 24.9434 185.848 23.5181 187.669 23.5181C189.464 23.5181 189.736 24.8906 189.736 26.7382V33.6537H194.265V26.7382C194.265 22.647 192.529 19.2215 188.565 20.045C187.259 20.3163 186.358 21.0897 185.83 22.0927V20.1923H181.159V33.6537Z" fill="#909599"/>
<path d="M208.168 30.928L205.177 28.6123C204.861 29.1402 204.323 29.9048 202.924 29.9048C202.485 29.9048 200.75 29.9048 200.75 26.6591C200.75 23.4134 202.157 23.1292 202.924 23.1257C203.691 23.1222 204.861 24.0724 205.177 24.6003L208.04 22.6141C207.528 21.5908 205.5 19.5588 202.485 19.5588C199.471 19.5588 196.785 22.4095 196.785 26.6591C196.785 30.9086 199.855 33.7593 202.485 33.6537C206.18 33.6537 207.272 32.5908 208.168 30.928Z" fill="#909599"/>
<path d="M209.955 33.337H214.627V26.4743C214.627 24.6267 214.788 23.1257 216.609 23.1257C218.403 23.1257 218.533 24.5739 218.533 26.4215V33.337L222.748 33.3898V26.4743C222.748 22.3831 222.676 19.6116 218.533 19.6116C216.263 19.6116 215.154 20.773 214.627 21.776V13.2769L209.955 15.3234V33.337Z" fill="#909599"/>
<path d="M64.5291 23.0736V33.9985H32.3209V12.4866H21.3971V33.9985H10.8112V12.4866H0V0.998535H32.3209V12.4866H43.132V0.998535H64.5291V12.4866H43.132V23.0736H64.5291Z" fill="#C4C4C4"/>
</svg>
