<svg width="213" height="26" viewBox="0 0 213 26" fill="none" xmlns="http://www.w3.org/2000/svg">
<path d="M13.2786 20.1752L16.3651 6.94688H14.4989V2.0941H24.6917V6.94688H23.0407L18.0161 25.4593H7.28493L2.54743 6.94688H0.896484V2.0941H11.6635V6.94688H9.76135L12.6326 20.1752H13.2786Z" fill="#C4C4C4"/>
<path d="M42.1875 18.8811C42.1875 19.8397 42.0559 20.7503 41.7927 21.6131C41.5535 22.4758 41.0869 23.2307 40.393 23.8777C39.7231 24.5247 38.8019 25.04 37.6295 25.4234C36.4571 25.8068 34.9617 25.9985 33.1432 25.9985C31.8273 25.9985 30.6429 25.8547 29.5901 25.5672C28.5373 25.3036 27.6401 24.8123 26.8983 24.0934C26.1566 23.3744 25.5824 22.4039 25.1756 21.1817C24.7689 19.9356 24.5655 18.3539 24.5655 16.4368C24.5655 14.6394 24.7569 13.1297 25.1397 11.9075C25.5465 10.6614 26.1327 9.65485 26.8983 8.88799C27.6879 8.12113 28.645 7.56995 29.7695 7.23445C30.918 6.87499 32.234 6.69526 33.7175 6.69526C35.2966 6.69526 36.6246 6.87499 37.7013 7.23445C38.778 7.56995 39.6393 8.08519 40.2854 8.78015C40.9553 9.45116 41.4338 10.3019 41.721 11.3324C42.032 12.3389 42.1875 13.5011 42.1875 14.8192V17.4433H31.241C31.241 18.2581 31.2769 18.9171 31.3487 19.4203C31.4444 19.8996 31.588 20.2711 31.7794 20.5347C31.9947 20.7743 32.2699 20.9421 32.6049 21.0379C32.9398 21.1098 33.3705 21.1458 33.8969 21.1458C34.7822 21.1458 35.4043 20.9421 35.7632 20.5347C36.1221 20.1273 36.3016 19.5761 36.3016 18.8811H42.1875ZM33.7175 11.4761C33.2389 11.4761 32.8441 11.5121 32.5331 11.584C32.222 11.6559 31.9708 11.7997 31.7794 12.0153C31.588 12.2071 31.4444 12.4826 31.3487 12.8421C31.2769 13.1776 31.241 13.621 31.241 14.1721H36.158C36.158 13.621 36.1221 13.1776 36.0503 12.8421C35.9785 12.4826 35.847 12.2071 35.6555 12.0153C35.488 11.7997 35.2488 11.6559 34.9377 11.584C34.6267 11.5121 34.2199 11.4761 33.7175 11.4761Z" fill="#C4C4C4"/>
<path d="M51.5871 10.4337C52.0657 9.13962 52.8074 8.19303 53.8123 7.59392C54.8172 6.99481 56.0614 6.69526 57.5449 6.69526C58.3584 6.69526 59.1001 6.79111 59.7701 6.98283C60.4639 7.17454 61.0621 7.51004 61.5646 7.98933C62.067 8.44465 62.4499 9.06773 62.7131 9.85855C63.0002 10.6254 63.1437 11.596 63.1437 12.7702V20.6425H64.8665V25.4593H55.2838V20.6425H56.7194V14.5316C56.7194 13.7168 56.5758 13.1297 56.2887 12.7702C56.0016 12.4108 55.4752 12.231 54.7096 12.231C54.0157 12.231 53.4414 12.4347 52.9868 12.8421C52.5322 13.2495 52.3049 13.9565 52.3049 14.963V20.6425H53.7405V25.4593H44.1579V20.6425H45.8806V12.0513H44.3014V7.23445H51.5871V10.4337Z" fill="#C4C4C4"/>
<path d="M67.2563 7.23445V3.13044L73.6806 0.998535V7.23445H77.126V12.0513H73.6806V19.2406C73.6806 19.7918 73.7763 20.1872 73.9677 20.4268C74.1831 20.6665 74.5778 20.7863 75.1521 20.7863C75.4631 20.7863 75.846 20.7743 76.3006 20.7503C76.7791 20.7024 77.2218 20.6425 77.6285 20.5706V25.3515C77.2218 25.4474 76.5757 25.5432 75.6904 25.6391C74.8291 25.7589 73.9318 25.8188 72.9987 25.8188C71.8502 25.8188 70.9051 25.7229 70.1634 25.5312C69.4216 25.3635 68.8354 25.0519 68.4047 24.5966C67.9741 24.1173 67.675 23.4583 67.5075 22.6196C67.34 21.7808 67.2563 20.7024 67.2563 19.3844V12.0513H65.5335V7.23445H67.2563Z" fill="#C4C4C4"/>
<path d="M86.495 7.23445V19.5641C86.495 20.5466 86.9497 21.0379 87.8589 21.0379C88.8159 21.0379 89.4739 20.8342 89.8328 20.4268C90.2157 20.0194 90.4071 19.4683 90.4071 18.7733V12.0513H88.469V7.23445H96.8314V19.6719C96.8314 20.0793 96.8793 20.343 96.975 20.4628C97.0946 20.5826 97.3458 20.6425 97.7287 20.6425H98.5541V25.4593H94.2832C93.2783 25.4593 92.5007 25.2556 91.9504 24.8482C91.424 24.4169 91.1488 23.638 91.1249 22.5117C90.6942 23.5662 90.0003 24.4169 89.0433 25.0639C88.1101 25.687 86.842 25.9985 85.2389 25.9985C84.4493 25.9985 83.7315 25.9027 83.0855 25.711C82.4634 25.5432 81.925 25.2556 81.4704 24.8482C81.0397 24.4169 80.6928 23.8537 80.4296 23.1588C80.1904 22.4398 80.0707 21.5412 80.0707 20.4628V12.0513H78.3839V7.23445H86.495Z" fill="#C4C4C4"/>
<path d="M101.819 20.6425V12.0513H100.24V7.23445H108.243V9.85855C108.602 8.73222 109.164 7.92942 109.93 7.45013C110.696 6.94688 111.76 6.69526 113.124 6.69526C113.698 6.69526 114.273 6.74318 114.847 6.83904C115.421 6.9349 115.876 7.04274 116.211 7.16256V14.5316H111.33V12.3389C111.258 12.3149 111.138 12.2909 110.971 12.267C110.827 12.219 110.624 12.1951 110.361 12.1951C110.097 12.1951 109.834 12.231 109.571 12.3029C109.332 12.3748 109.116 12.5306 108.925 12.7702C108.734 13.0099 108.566 13.3573 108.423 13.8127C108.303 14.244 108.243 14.8312 108.243 15.574V20.6425H110.684V25.4593H100.096V20.6425H101.819Z" fill="#C4C4C4"/>
<path d="M135.453 18.8811C135.453 19.8397 135.321 20.7503 135.058 21.6131C134.819 22.4758 134.352 23.2307 133.658 23.8777C132.988 24.5247 132.067 25.04 130.895 25.4234C129.722 25.8068 128.227 25.9985 126.409 25.9985C125.093 25.9985 123.908 25.8547 122.855 25.5672C121.803 25.3036 120.905 24.8123 120.164 24.0934C119.422 23.3744 118.848 22.4039 118.441 21.1817C118.034 19.9356 117.831 18.3539 117.831 16.4368C117.831 14.6394 118.022 13.1297 118.405 11.9075C118.812 10.6614 119.398 9.65485 120.164 8.88799C120.953 8.12113 121.91 7.56995 123.035 7.23445C124.183 6.87499 125.499 6.69526 126.983 6.69526C128.562 6.69526 129.89 6.87499 130.967 7.23445C132.043 7.56995 132.905 8.08519 133.551 8.78015C134.221 9.45116 134.699 10.3019 134.986 11.3324C135.297 12.3389 135.453 13.5011 135.453 14.8192V17.4433H124.506C124.506 18.2581 124.542 18.9171 124.614 19.4203C124.71 19.8996 124.853 20.2711 125.045 20.5347C125.26 20.7743 125.535 20.9421 125.87 21.0379C126.205 21.1098 126.636 21.1458 127.162 21.1458C128.048 21.1458 128.67 20.9421 129.029 20.5347C129.387 20.1273 129.567 19.5761 129.567 18.8811H135.453ZM126.983 11.4761C126.504 11.4761 126.109 11.5121 125.798 11.584C125.487 11.6559 125.236 11.7997 125.045 12.0153C124.853 12.2071 124.71 12.4826 124.614 12.8421C124.542 13.1776 124.506 13.621 124.506 14.1721H129.423C129.423 13.621 129.387 13.1776 129.316 12.8421C129.244 12.4826 129.112 12.2071 128.921 12.0153C128.753 11.7997 128.514 11.6559 128.203 11.584C127.892 11.5121 127.485 11.4761 126.983 11.4761Z" fill="#C4C4C4"/>
<path d="M151.241 2.0941C152.27 2.0941 153.179 2.18996 153.969 2.38167C154.782 2.57339 155.464 2.90889 156.014 3.38817C156.565 3.8435 156.971 4.46657 157.235 5.25739C157.522 6.02425 157.665 6.99481 157.665 8.16906C157.665 9.4871 157.462 10.5296 157.055 11.2964C156.648 12.0633 156.062 12.6264 155.296 12.9859C156.636 13.3454 157.57 14.0044 158.096 14.963C158.646 15.8976 158.921 17.1557 158.921 18.7373C158.921 20.0554 158.742 21.1458 158.383 22.0085C158.024 22.8712 157.486 23.5662 156.768 24.0934C156.05 24.5966 155.141 24.9561 154.04 25.1718C152.964 25.3635 151.695 25.4593 150.236 25.4593H137.603V20.6066H139.505V6.94688H137.603V2.0941H151.241ZM146.216 15.7178V20.6066H149.949C150.212 20.6066 150.451 20.5826 150.667 20.5347C150.882 20.4628 151.073 20.3429 151.241 20.1752C151.408 19.9835 151.528 19.7319 151.6 19.4203C151.695 19.0848 151.743 18.6535 151.743 18.1262C151.743 17.3115 151.636 16.7124 151.42 16.3289C151.205 15.9215 150.691 15.7178 149.877 15.7178H146.216ZM146.216 11.0088H149.267C149.793 11.0088 150.152 10.8411 150.344 10.5056C150.535 10.1461 150.631 9.59494 150.631 8.85205C150.631 8.20501 150.535 7.72572 150.344 7.41419C150.176 7.10265 149.817 6.94688 149.267 6.94688H146.216V11.0088Z" fill="#909599"/>
<path d="M178.353 18.8811C178.353 19.8397 178.221 20.7503 177.958 21.6131C177.719 22.4758 177.252 23.2307 176.558 23.8777C175.888 24.5247 174.967 25.04 173.795 25.4234C172.622 25.8068 171.127 25.9985 169.308 25.9985C167.993 25.9985 166.808 25.8547 165.755 25.5672C164.703 25.3036 163.805 24.8123 163.064 24.0934C162.322 23.3744 161.748 22.4039 161.341 21.1817C160.934 19.9356 160.731 18.3539 160.731 16.4368C160.731 14.6394 160.922 13.1297 161.305 11.9075C161.712 10.6614 162.298 9.65485 163.064 8.88799C163.853 8.12113 164.81 7.56995 165.935 7.23445C167.083 6.87499 168.399 6.69526 169.883 6.69526C171.462 6.69526 172.79 6.87499 173.867 7.23445C174.943 7.56995 175.805 8.08519 176.451 8.78015C177.121 9.45116 177.599 10.3019 177.886 11.3324C178.197 12.3389 178.353 13.5011 178.353 14.8192V17.4433H167.406C167.406 18.2581 167.442 18.9171 167.514 19.4203C167.61 19.8996 167.753 20.2711 167.945 20.5347C168.16 20.7743 168.435 20.9421 168.77 21.0379C169.105 21.1098 169.536 21.1458 170.062 21.1458C170.947 21.1458 171.57 20.9421 171.928 20.5347C172.287 20.1273 172.467 19.5761 172.467 18.8811H178.353ZM169.883 11.4761C169.404 11.4761 169.009 11.5121 168.698 11.584C168.387 11.6559 168.136 11.7997 167.945 12.0153C167.753 12.2071 167.61 12.4826 167.514 12.8421C167.442 13.1776 167.406 13.621 167.406 14.1721H172.323C172.323 13.621 172.287 13.1776 172.216 12.8421C172.144 12.4826 172.012 12.2071 171.821 12.0153C171.653 11.7997 171.414 11.6559 171.103 11.584C170.792 11.5121 170.385 11.4761 169.883 11.4761Z" fill="#909599"/>
<path d="M194.428 25.4593C193.543 25.4593 191.588 25.4593 191.588 25.4593V23.103C191.588 23.103 190.229 24.8363 189.296 25.3155C188.363 25.7709 187.106 25.9985 185.527 25.9985C183.685 25.9985 182.357 25.5432 181.543 24.6326C180.73 23.7219 180.323 22.3679 180.323 20.5706C180.323 19.4443 180.443 18.4857 180.682 17.6949C180.945 16.8801 181.352 16.2211 181.902 15.7178C182.477 15.2146 183.218 14.8551 184.127 14.6394C185.037 14.3998 186.161 14.28 187.501 14.28H190.552V12.914C190.552 12.4347 190.432 12.1112 190.193 11.9434C189.954 11.7517 189.268 11.445 188.721 11.6559C188.446 11.7621 188.317 11.8711 188.115 12.1069C187.86 12.4048 187.839 12.9859 187.839 12.9859H181.281C181.281 12.9859 181.451 10.5396 182.29 9.41395C183.298 8.06122 184.161 7.40409 185.763 7.01877C187.107 6.69526 187.824 6.69526 189.332 6.69526C190.767 6.69526 191.964 6.80309 192.921 7.01877C193.902 7.23445 194.691 7.58194 195.289 8.06122C195.887 8.51655 196.318 9.12764 196.581 9.8945C196.845 10.6374 196.976 11.56 196.976 12.6624V19.6719C196.976 20.0793 196.966 20.6345 196.966 20.6345C196.966 20.6345 197.491 20.6425 197.873 20.6425H198.699V25.4593H194.428ZM188.147 21.0379C188.913 21.0379 189.499 20.8462 189.906 20.4628C190.336 20.0793 190.552 19.636 190.552 19.1328V17.6589H189.116C188.566 17.6589 188.135 17.7069 187.824 17.8027C187.537 17.8986 187.31 18.0304 187.142 18.1981C186.975 18.3659 186.867 18.5696 186.819 18.8092C186.795 19.0249 186.783 19.2646 186.783 19.5282C186.783 20.1033 186.891 20.4987 187.106 20.7144C187.322 20.9301 187.669 21.0379 188.147 21.0379Z" fill="#909599"/>
<path d="M201.774 7.23445V2.90603L208.199 0.998535V7.23445H211.644V12.0513H208.199V19.2406C208.199 19.7918 208.294 20.1872 208.486 20.4268C208.701 20.6665 209.096 20.7863 209.67 20.7863C209.981 20.7863 210.364 20.7743 210.819 20.7503C211.297 20.7024 211.74 20.6425 212.146 20.5706V25.3515C211.74 25.4474 211.094 25.5432 210.208 25.6391C209.347 25.7589 208.45 25.8188 207.517 25.8188C206.368 25.8188 205.423 25.7229 204.681 25.5312C203.94 25.3635 203.353 25.0519 202.923 24.5966C202.492 24.1173 202.193 23.4583 202.025 22.6196C201.858 21.7808 201.774 20.7024 201.774 19.3844V12.0513H200.051V7.23445H201.774Z" fill="#909599"/>
</svg>
