<svg width="120" height="134" viewBox="0 0 120 134" fill="none" xmlns="http://www.w3.org/2000/svg">
<rect width="3" height="3" rx="0.5" transform="matrix(0.884092 0.467313 0.466033 -0.884767 16.9158 23.4482)" fill="url(#paint0_radial_1011_7532)" fill-opacity="0.5"/>
<rect width="3" height="3" rx="0.5" transform="matrix(0.884092 0.467313 0.466033 -0.884767 16.9158 23.4482)" fill="url(#paint1_radial_1011_7532)"/>
<rect width="3" height="3" rx="0.5" transform="matrix(0.884092 0.467313 0.466033 -0.884767 14.6804 30.499)" fill="url(#paint2_radial_1011_7532)" fill-opacity="0.5"/>
<rect width="3" height="3" rx="0.5" transform="matrix(0.884092 0.467313 0.466033 -0.884767 14.6804 30.499)" fill="url(#paint3_radial_1011_7532)"/>
<rect width="3" height="3" rx="0.5" transform="matrix(0.884092 0.467313 0.466033 -0.884767 13.095 37.7241)" fill="url(#paint4_radial_1011_7532)" fill-opacity="0.5"/>
<rect width="3" height="3" rx="0.5" transform="matrix(0.884092 0.467313 0.466033 -0.884767 13.095 37.7241)" fill="url(#paint5_radial_1011_7532)"/>
<rect width="3" height="3" rx="0.5" transform="matrix(0.884092 0.467313 0.466033 -0.884767 12.4915 45.0962)" fill="url(#paint6_radial_1011_7532)" fill-opacity="0.5"/>
<rect width="3" height="3" rx="0.5" transform="matrix(0.884092 0.467313 0.466033 -0.884767 12.4915 45.0962)" fill="url(#paint7_radial_1011_7532)"/>
<rect width="3" height="3" rx="0.5" transform="matrix(0.884092 0.467313 0.466033 -0.884767 13.6172 52.4067)" fill="url(#paint8_radial_1011_7532)" fill-opacity="0.5"/>
<rect width="3" height="3" rx="0.5" transform="matrix(0.884092 0.467313 0.466033 -0.884767 13.6172 52.4067)" fill="url(#paint9_radial_1011_7532)"/>
<rect width="3" height="3" rx="0.5" transform="matrix(0.884092 0.467313 0.466033 -0.884767 17.4739 58.2751)" fill="url(#paint10_radial_1011_7532)" fill-opacity="0.5"/>
<rect width="3" height="3" rx="0.5" transform="matrix(0.884092 0.467313 0.466033 -0.884767 17.4739 58.2751)" fill="url(#paint11_radial_1011_7532)"/>
<rect width="3" height="3" rx="0.5" transform="matrix(0.884092 0.467313 0.466033 -0.884767 23.8884 62.2253)" fill="url(#paint12_radial_1011_7532)" fill-opacity="0.5"/>
<rect width="3" height="3" rx="0.5" transform="matrix(0.884092 0.467313 0.466033 -0.884767 23.8884 62.2253)" fill="url(#paint13_radial_1011_7532)"/>
<rect width="3" height="3" rx="0.5" transform="matrix(0.884092 0.467313 0.466033 -0.884767 31.1973 63.3647)" fill="url(#paint14_radial_1011_7532)" fill-opacity="0.5"/>
<rect width="3" height="3" rx="0.5" transform="matrix(0.884092 0.467313 0.466033 -0.884767 31.1973 63.3647)" fill="url(#paint15_radial_1011_7532)"/>
<rect width="3" height="3" rx="0.5" transform="matrix(0.884092 0.467313 0.466033 -0.884767 38.4172 61.7566)" fill="url(#paint16_radial_1011_7532)" fill-opacity="0.5"/>
<rect width="3" height="3" rx="0.5" transform="matrix(0.884092 0.467313 0.466033 -0.884767 38.4172 61.7566)" fill="url(#paint17_radial_1011_7532)"/>
<rect width="3" height="3" rx="0.5" transform="matrix(0.884092 0.467313 0.466033 -0.884767 45.1619 58.7195)" fill="url(#paint18_radial_1011_7532)" fill-opacity="0.5"/>
<rect width="3" height="3" rx="0.5" transform="matrix(0.884092 0.467313 0.466033 -0.884767 45.1619 58.7195)" fill="url(#paint19_radial_1011_7532)"/>
<rect width="3" height="3" rx="0.5" transform="matrix(0.884092 0.467313 0.466033 -0.884767 51.7148 55.2888)" fill="url(#paint20_radial_1011_7532)" fill-opacity="0.5"/>
<rect width="3" height="3" rx="0.5" transform="matrix(0.884092 0.467313 0.466033 -0.884767 51.7148 55.2888)" fill="url(#paint21_radial_1011_7532)"/>
<rect width="3" height="3" rx="0.5" transform="matrix(0.884092 0.467313 0.466033 -0.884767 58.4531 52.2371)" fill="url(#paint22_radial_1011_7532)" fill-opacity="0.5"/>
<rect width="3" height="3" rx="0.5" transform="matrix(0.884092 0.467313 0.466033 -0.884767 58.4531 52.2371)" fill="url(#paint23_radial_1011_7532)"/>
<rect width="3" height="3" rx="0.5" transform="matrix(0.884092 0.467313 0.466033 -0.884767 65.6514 50.5337)" fill="url(#paint24_radial_1011_7532)" fill-opacity="0.5"/>
<rect width="3" height="3" rx="0.5" transform="matrix(0.884092 0.467313 0.466033 -0.884767 65.6514 50.5337)" fill="url(#paint25_radial_1011_7532)"/>
<rect width="3" height="3" rx="0.5" transform="matrix(0.884092 0.467313 0.466033 -0.884767 72.998 51.3899)" fill="url(#paint26_radial_1011_7532)" fill-opacity="0.5"/>
<rect width="3" height="3" rx="0.5" transform="matrix(0.884092 0.467313 0.466033 -0.884767 72.998 51.3899)" fill="url(#paint27_radial_1011_7532)"/>
<rect width="3" height="3" rx="0.5" transform="matrix(0.884092 0.467313 0.466033 -0.884767 79.5029 54.9124)" fill="url(#paint28_radial_1011_7532)" fill-opacity="0.5"/>
<rect width="3" height="3" rx="0.5" transform="matrix(0.884092 0.467313 0.466033 -0.884767 79.5029 54.9124)" fill="url(#paint29_radial_1011_7532)"/>
<rect width="3" height="3" rx="0.5" transform="matrix(0.884092 0.467313 0.466033 -0.884767 85.2031 60.2847)" fill="url(#paint30_radial_1011_7532)" fill-opacity="0.5"/>
<rect width="3" height="3" rx="0.5" transform="matrix(0.884092 0.467313 0.466033 -0.884767 85.2031 60.2847)" fill="url(#paint31_radial_1011_7532)"/>
<rect width="3" height="3" rx="0.5" transform="matrix(0.884092 0.467313 0.466033 -0.884767 89.7871 66.0903)" fill="url(#paint32_radial_1011_7532)" fill-opacity="0.5"/>
<rect width="3" height="3" rx="0.5" transform="matrix(0.884092 0.467313 0.466033 -0.884767 89.7871 66.0903)" fill="url(#paint33_radial_1011_7532)"/>
<rect width="3" height="3" rx="0.5" transform="matrix(0.884092 0.467313 0.466033 -0.884767 93.6733 72.3843)" fill="url(#paint34_radial_1011_7532)" fill-opacity="0.5"/>
<rect width="3" height="3" rx="0.5" transform="matrix(0.884092 0.467313 0.466033 -0.884767 93.6733 72.3843)" fill="url(#paint35_radial_1011_7532)"/>
<rect width="3" height="3" rx="0.5" transform="matrix(0.884092 0.467313 0.466033 -0.884767 96.9365 79.0217)" fill="url(#paint36_radial_1011_7532)" fill-opacity="0.5"/>
<rect width="3" height="3" rx="0.5" transform="matrix(0.884092 0.467313 0.466033 -0.884767 96.9365 79.0217)" fill="url(#paint37_radial_1011_7532)"/>
<rect width="3" height="3" rx="0.5" transform="matrix(0.884092 0.467313 0.466033 -0.884767 99.6499 85.9033)" fill="url(#paint38_radial_1011_7532)" fill-opacity="0.5"/>
<rect width="3" height="3" rx="0.5" transform="matrix(0.884092 0.467313 0.466033 -0.884767 99.6499 85.9033)" fill="url(#paint39_radial_1011_7532)"/>
<rect width="3" height="3" rx="0.5" transform="matrix(0.884092 0.467313 0.466033 -0.884767 101.865 92.9556)" fill="url(#paint40_radial_1011_7532)" fill-opacity="0.5"/>
<rect width="3" height="3" rx="0.5" transform="matrix(0.884092 0.467313 0.466033 -0.884767 101.865 92.9556)" fill="url(#paint41_radial_1011_7532)"/>
<rect width="3" height="3" rx="0.5" transform="matrix(0.884092 0.467313 0.466033 -0.884767 103.55 99.2537)" fill="url(#paint42_radial_1011_7532)" fill-opacity="0.5"/>
<rect width="3" height="3" rx="0.5" transform="matrix(0.884092 0.467313 0.466033 -0.884767 103.55 99.2537)" fill="url(#paint43_radial_1011_7532)"/>
<rect width="3" height="3" rx="0.5" transform="matrix(0.884092 0.467313 0.466033 -0.884767 104.792 106.98)" fill="url(#paint44_radial_1011_7532)" fill-opacity="0.5"/>
<rect width="3" height="3" rx="0.5" transform="matrix(0.884092 0.467313 0.466033 -0.884767 104.792 106.98)" fill="url(#paint45_radial_1011_7532)"/>
<defs>
<radialGradient id="paint0_radial_1011_7532" cx="0" cy="0" r="1" gradientUnits="userSpaceOnUse" gradientTransform="translate(1.5 1.5) rotate(85.3036) scale(2.87506)">
<stop stop-color="#868686"/>
<stop offset="1" stop-color="#D1D1D1"/>
</radialGradient>
<radialGradient id="paint1_radial_1011_7532" cx="0" cy="0" r="1" gradientUnits="userSpaceOnUse" gradientTransform="translate(1.5 1.5) rotate(85.3036) scale(2.87506)">
<stop stop-color="#868686"/>
<stop offset="1" stop-color="#D1D1D1"/>
</radialGradient>
<radialGradient id="paint2_radial_1011_7532" cx="0" cy="0" r="1" gradientUnits="userSpaceOnUse" gradientTransform="translate(1.5 1.5) rotate(85.3036) scale(2.87506)">
<stop stop-color="#868686"/>
<stop offset="1" stop-color="#D1D1D1"/>
</radialGradient>
<radialGradient id="paint3_radial_1011_7532" cx="0" cy="0" r="1" gradientUnits="userSpaceOnUse" gradientTransform="translate(1.5 1.5) rotate(85.3036) scale(2.87506)">
<stop stop-color="#868686"/>
<stop offset="1" stop-color="#D1D1D1"/>
</radialGradient>
<radialGradient id="paint4_radial_1011_7532" cx="0" cy="0" r="1" gradientUnits="userSpaceOnUse" gradientTransform="translate(1.5 1.5) rotate(85.3036) scale(2.87506)">
<stop stop-color="#868686"/>
<stop offset="1" stop-color="#D1D1D1"/>
</radialGradient>
<radialGradient id="paint5_radial_1011_7532" cx="0" cy="0" r="1" gradientUnits="userSpaceOnUse" gradientTransform="translate(1.5 1.5) rotate(85.3036) scale(2.87506)">
<stop stop-color="#868686"/>
<stop offset="1" stop-color="#D1D1D1"/>
</radialGradient>
<radialGradient id="paint6_radial_1011_7532" cx="0" cy="0" r="1" gradientUnits="userSpaceOnUse" gradientTransform="translate(1.5 1.5) rotate(85.3036) scale(2.87506)">
<stop stop-color="#868686"/>
<stop offset="1" stop-color="#D1D1D1"/>
</radialGradient>
<radialGradient id="paint7_radial_1011_7532" cx="0" cy="0" r="1" gradientUnits="userSpaceOnUse" gradientTransform="translate(1.5 1.5) rotate(85.3036) scale(2.87506)">
<stop stop-color="#868686"/>
<stop offset="1" stop-color="#D1D1D1"/>
</radialGradient>
<radialGradient id="paint8_radial_1011_7532" cx="0" cy="0" r="1" gradientUnits="userSpaceOnUse" gradientTransform="translate(1.5 1.5) rotate(85.3036) scale(2.87506)">
<stop stop-color="#868686"/>
<stop offset="1" stop-color="#D1D1D1"/>
</radialGradient>
<radialGradient id="paint9_radial_1011_7532" cx="0" cy="0" r="1" gradientUnits="userSpaceOnUse" gradientTransform="translate(1.5 1.5) rotate(85.3036) scale(2.87506)">
<stop stop-color="#868686"/>
<stop offset="1" stop-color="#D1D1D1"/>
</radialGradient>
<radialGradient id="paint10_radial_1011_7532" cx="0" cy="0" r="1" gradientUnits="userSpaceOnUse" gradientTransform="translate(1.5 1.5) rotate(85.3036) scale(2.87506)">
<stop stop-color="#868686"/>
<stop offset="1" stop-color="#D1D1D1"/>
</radialGradient>
<radialGradient id="paint11_radial_1011_7532" cx="0" cy="0" r="1" gradientUnits="userSpaceOnUse" gradientTransform="translate(1.5 1.5) rotate(85.3036) scale(2.87506)">
<stop stop-color="#868686"/>
<stop offset="1" stop-color="#D1D1D1"/>
</radialGradient>
<radialGradient id="paint12_radial_1011_7532" cx="0" cy="0" r="1" gradientUnits="userSpaceOnUse" gradientTransform="translate(1.5 1.5) rotate(85.3036) scale(2.87506)">
<stop stop-color="#868686"/>
<stop offset="1" stop-color="#D1D1D1"/>
</radialGradient>
<radialGradient id="paint13_radial_1011_7532" cx="0" cy="0" r="1" gradientUnits="userSpaceOnUse" gradientTransform="translate(1.5 1.5) rotate(85.3036) scale(2.87506)">
<stop stop-color="#868686"/>
<stop offset="1" stop-color="#D1D1D1"/>
</radialGradient>
<radialGradient id="paint14_radial_1011_7532" cx="0" cy="0" r="1" gradientUnits="userSpaceOnUse" gradientTransform="translate(1.5 1.5) rotate(85.3036) scale(2.87506)">
<stop stop-color="#868686"/>
<stop offset="1" stop-color="#D1D1D1"/>
</radialGradient>
<radialGradient id="paint15_radial_1011_7532" cx="0" cy="0" r="1" gradientUnits="userSpaceOnUse" gradientTransform="translate(1.5 1.5) rotate(85.3036) scale(2.87506)">
<stop stop-color="#868686"/>
<stop offset="1" stop-color="#D1D1D1"/>
</radialGradient>
<radialGradient id="paint16_radial_1011_7532" cx="0" cy="0" r="1" gradientUnits="userSpaceOnUse" gradientTransform="translate(1.5 1.5) rotate(85.3036) scale(2.87506)">
<stop stop-color="#868686"/>
<stop offset="1" stop-color="#D1D1D1"/>
</radialGradient>
<radialGradient id="paint17_radial_1011_7532" cx="0" cy="0" r="1" gradientUnits="userSpaceOnUse" gradientTransform="translate(1.5 1.5) rotate(85.3036) scale(2.87506)">
<stop stop-color="#868686"/>
<stop offset="1" stop-color="#D1D1D1"/>
</radialGradient>
<radialGradient id="paint18_radial_1011_7532" cx="0" cy="0" r="1" gradientUnits="userSpaceOnUse" gradientTransform="translate(1.5 1.5) rotate(85.3036) scale(2.87506)">
<stop stop-color="#868686"/>
<stop offset="1" stop-color="#D1D1D1"/>
</radialGradient>
<radialGradient id="paint19_radial_1011_7532" cx="0" cy="0" r="1" gradientUnits="userSpaceOnUse" gradientTransform="translate(1.5 1.5) rotate(85.3036) scale(2.87506)">
<stop stop-color="#868686"/>
<stop offset="1" stop-color="#D1D1D1"/>
</radialGradient>
<radialGradient id="paint20_radial_1011_7532" cx="0" cy="0" r="1" gradientUnits="userSpaceOnUse" gradientTransform="translate(1.5 1.5) rotate(85.3036) scale(2.87506)">
<stop stop-color="#868686"/>
<stop offset="1" stop-color="#D1D1D1"/>
</radialGradient>
<radialGradient id="paint21_radial_1011_7532" cx="0" cy="0" r="1" gradientUnits="userSpaceOnUse" gradientTransform="translate(1.5 1.5) rotate(85.3036) scale(2.87506)">
<stop stop-color="#868686"/>
<stop offset="1" stop-color="#D1D1D1"/>
</radialGradient>
<radialGradient id="paint22_radial_1011_7532" cx="0" cy="0" r="1" gradientUnits="userSpaceOnUse" gradientTransform="translate(1.5 1.5) rotate(85.3036) scale(2.87506)">
<stop stop-color="#868686"/>
<stop offset="1" stop-color="#D1D1D1"/>
</radialGradient>
<radialGradient id="paint23_radial_1011_7532" cx="0" cy="0" r="1" gradientUnits="userSpaceOnUse" gradientTransform="translate(1.5 1.5) rotate(85.3036) scale(2.87506)">
<stop stop-color="#868686"/>
<stop offset="1" stop-color="#D1D1D1"/>
</radialGradient>
<radialGradient id="paint24_radial_1011_7532" cx="0" cy="0" r="1" gradientUnits="userSpaceOnUse" gradientTransform="translate(1.5 1.5) rotate(85.3036) scale(2.87506)">
<stop stop-color="#868686"/>
<stop offset="1" stop-color="#D1D1D1"/>
</radialGradient>
<radialGradient id="paint25_radial_1011_7532" cx="0" cy="0" r="1" gradientUnits="userSpaceOnUse" gradientTransform="translate(1.5 1.5) rotate(85.3036) scale(2.87506)">
<stop stop-color="#868686"/>
<stop offset="1" stop-color="#D1D1D1"/>
</radialGradient>
<radialGradient id="paint26_radial_1011_7532" cx="0" cy="0" r="1" gradientUnits="userSpaceOnUse" gradientTransform="translate(1.5 1.5) rotate(85.3036) scale(2.87506)">
<stop stop-color="#868686"/>
<stop offset="1" stop-color="#D1D1D1"/>
</radialGradient>
<radialGradient id="paint27_radial_1011_7532" cx="0" cy="0" r="1" gradientUnits="userSpaceOnUse" gradientTransform="translate(1.5 1.5) rotate(85.3036) scale(2.87506)">
<stop stop-color="#868686"/>
<stop offset="1" stop-color="#D1D1D1"/>
</radialGradient>
<radialGradient id="paint28_radial_1011_7532" cx="0" cy="0" r="1" gradientUnits="userSpaceOnUse" gradientTransform="translate(1.5 1.5) rotate(85.3036) scale(2.87506)">
<stop stop-color="#868686"/>
<stop offset="1" stop-color="#D1D1D1"/>
</radialGradient>
<radialGradient id="paint29_radial_1011_7532" cx="0" cy="0" r="1" gradientUnits="userSpaceOnUse" gradientTransform="translate(1.5 1.5) rotate(85.3036) scale(2.87506)">
<stop stop-color="#868686"/>
<stop offset="1" stop-color="#D1D1D1"/>
</radialGradient>
<radialGradient id="paint30_radial_1011_7532" cx="0" cy="0" r="1" gradientUnits="userSpaceOnUse" gradientTransform="translate(1.5 1.5) rotate(85.3036) scale(2.87506)">
<stop stop-color="#868686"/>
<stop offset="1" stop-color="#D1D1D1"/>
</radialGradient>
<radialGradient id="paint31_radial_1011_7532" cx="0" cy="0" r="1" gradientUnits="userSpaceOnUse" gradientTransform="translate(1.5 1.5) rotate(85.3036) scale(2.87506)">
<stop stop-color="#868686"/>
<stop offset="1" stop-color="#D1D1D1"/>
</radialGradient>
<radialGradient id="paint32_radial_1011_7532" cx="0" cy="0" r="1" gradientUnits="userSpaceOnUse" gradientTransform="translate(1.5 1.5) rotate(85.3036) scale(2.87506)">
<stop stop-color="#868686"/>
<stop offset="1" stop-color="#D1D1D1"/>
</radialGradient>
<radialGradient id="paint33_radial_1011_7532" cx="0" cy="0" r="1" gradientUnits="userSpaceOnUse" gradientTransform="translate(1.5 1.5) rotate(85.3036) scale(2.87506)">
<stop stop-color="#868686"/>
<stop offset="1" stop-color="#D1D1D1"/>
</radialGradient>
<radialGradient id="paint34_radial_1011_7532" cx="0" cy="0" r="1" gradientUnits="userSpaceOnUse" gradientTransform="translate(1.5 1.5) rotate(85.3036) scale(2.87506)">
<stop stop-color="#868686"/>
<stop offset="1" stop-color="#D1D1D1"/>
</radialGradient>
<radialGradient id="paint35_radial_1011_7532" cx="0" cy="0" r="1" gradientUnits="userSpaceOnUse" gradientTransform="translate(1.5 1.5) rotate(85.3036) scale(2.87506)">
<stop stop-color="#868686"/>
<stop offset="1" stop-color="#D1D1D1"/>
</radialGradient>
<radialGradient id="paint36_radial_1011_7532" cx="0" cy="0" r="1" gradientUnits="userSpaceOnUse" gradientTransform="translate(1.5 1.5) rotate(85.3036) scale(2.87506)">
<stop stop-color="#868686"/>
<stop offset="1" stop-color="#D1D1D1"/>
</radialGradient>
<radialGradient id="paint37_radial_1011_7532" cx="0" cy="0" r="1" gradientUnits="userSpaceOnUse" gradientTransform="translate(1.5 1.5) rotate(85.3036) scale(2.87506)">
<stop stop-color="#868686"/>
<stop offset="1" stop-color="#D1D1D1"/>
</radialGradient>
<radialGradient id="paint38_radial_1011_7532" cx="0" cy="0" r="1" gradientUnits="userSpaceOnUse" gradientTransform="translate(1.5 1.5) rotate(85.3036) scale(2.87506)">
<stop stop-color="#868686"/>
<stop offset="1" stop-color="#D1D1D1"/>
</radialGradient>
<radialGradient id="paint39_radial_1011_7532" cx="0" cy="0" r="1" gradientUnits="userSpaceOnUse" gradientTransform="translate(1.5 1.5) rotate(85.3036) scale(2.87506)">
<stop stop-color="#868686"/>
<stop offset="1" stop-color="#D1D1D1"/>
</radialGradient>
<radialGradient id="paint40_radial_1011_7532" cx="0" cy="0" r="1" gradientUnits="userSpaceOnUse" gradientTransform="translate(1.5 1.5) rotate(85.3036) scale(2.87506)">
<stop stop-color="#868686"/>
<stop offset="1" stop-color="#D1D1D1"/>
</radialGradient>
<radialGradient id="paint41_radial_1011_7532" cx="0" cy="0" r="1" gradientUnits="userSpaceOnUse" gradientTransform="translate(1.5 1.5) rotate(85.3036) scale(2.87506)">
<stop stop-color="#868686"/>
<stop offset="1" stop-color="#D1D1D1"/>
</radialGradient>
<radialGradient id="paint42_radial_1011_7532" cx="0" cy="0" r="1" gradientUnits="userSpaceOnUse" gradientTransform="translate(1.5 1.5) rotate(85.3036) scale(2.87506)">
<stop stop-color="#868686"/>
<stop offset="1" stop-color="#D1D1D1"/>
</radialGradient>
<radialGradient id="paint43_radial_1011_7532" cx="0" cy="0" r="1" gradientUnits="userSpaceOnUse" gradientTransform="translate(1.5 1.5) rotate(85.3036) scale(2.87506)">
<stop stop-color="#868686"/>
<stop offset="1" stop-color="#D1D1D1"/>
</radialGradient>
<radialGradient id="paint44_radial_1011_7532" cx="0" cy="0" r="1" gradientUnits="userSpaceOnUse" gradientTransform="translate(1.5 1.5) rotate(85.3036) scale(2.87506)">
<stop stop-color="#868686"/>
<stop offset="1" stop-color="#D1D1D1"/>
</radialGradient>
<radialGradient id="paint45_radial_1011_7532" cx="0" cy="0" r="1" gradientUnits="userSpaceOnUse" gradientTransform="translate(1.5 1.5) rotate(85.3036) scale(2.87506)">
<stop stop-color="#868686"/>
<stop offset="1" stop-color="#D1D1D1"/>
</radialGradient>
</defs>
</svg>
