<svg width="91" height="76" viewBox="0 0 91 76" fill="none" xmlns="http://www.w3.org/2000/svg">
<path d="M11.7505 34.6065C12.6401 32.6018 11.7362 30.2554 9.73144 29.3658C7.72672 28.4761 5.38038 29.3801 4.49073 31.3848C3.60108 33.3895 4.50502 35.7358 6.50974 36.6255C8.51446 37.5151 10.8608 36.6112 11.7505 34.6065Z" fill="#8E4DD5"/>
<path d="M58.7634 19.128L53.7329 23.8471L53.6087 30.7436L48.8896 25.713L41.9932 25.5889L47.0234 20.8696L47.1479 13.9733L51.867 19.0039L58.7634 19.128Z" fill="#FFCC00"/>
<path d="M76.4744 62.9845L71.4441 67.7037L71.3197 74.6L66.6004 69.5694L59.7041 69.4453L64.7344 64.7261L64.8588 57.8298L69.5779 62.8599L76.4744 62.9845Z" fill="#00A98F"/>
</svg>
